Besley-Black.ufo
<glyph name="seven" format="2">
  <advance height="2310" width="1303"/>
  <unicode hex="0037"/>
  <outline>
    <contour>
      <point x="65" y="982" type="curve" smooth="yes"/>
      <point x="75" y="1347"/>
      <point x="284" y="1520"/>
      <point x="485" y="1520" type="curve" smooth="yes"/>
      <point x="679" y="1520"/>
      <point x="799" y="1400"/>
      <point x="965" y="1400" type="curve" smooth="yes"/>
      <point x="1033" y="1400"/>
      <point x="1066" y="1427"/>
      <point x="1086" y="1471" type="curve" smooth="yes"/>
      <point x="1094" y="1489"/>
      <point x="1097" y="1500"/>
      <point x="1125" y="1500" type="curve" smooth="yes"/>
      <point x="1254" y="1500" type="line" smooth="yes"/>
      <point x="1289" y="1500"/>
      <point x="1295" y="1493"/>
      <point x="1290" y="1460" type="curve" smooth="yes"/>
      <point x="1267" y="1305"/>
      <point x="1076" y="993"/>
      <point x="891" y="756" type="curve" smooth="yes"/>
      <point x="769" y="599"/>
      <point x="713" y="532"/>
      <point x="713" y="464" type="curve" smooth="yes"/>
      <point x="713" y="368"/>
      <point x="889" y="368"/>
      <point x="889" y="216" type="curve" smooth="yes"/>
      <point x="889" y="102"/>
      <point x="819" y="-20"/>
      <point x="661" y="-20" type="curve" smooth="yes"/>
      <point x="513" y="-20"/>
      <point x="399" y="74"/>
      <point x="399" y="252" type="curve" smooth="yes"/>
      <point x="399" y="430"/>
      <point x="501" y="564"/>
      <point x="663" y="762" type="curve" smooth="yes"/>
      <point x="763" y="884"/>
      <point x="833" y="965"/>
      <point x="929" y="1100" type="curve" smooth="yes"/>
      <point x="958" y="1141"/>
      <point x="983" y="1176"/>
      <point x="973" y="1186" type="curve" smooth="yes"/>
      <point x="958" y="1201"/>
      <point x="934" y="1159"/>
      <point x="905" y="1136" type="curve" smooth="yes"/>
      <point x="858" y="1098"/>
      <point x="779" y="1066"/>
      <point x="725" y="1066" type="curve" smooth="yes"/>
      <point x="605" y="1066"/>
      <point x="545" y="1134"/>
      <point x="443" y="1134" type="curve" smooth="yes"/>
      <point x="356" y="1134"/>
      <point x="251" y="1082"/>
      <point x="241" y="980" type="curve" smooth="yes"/>
      <point x="239" y="957"/>
      <point x="246" y="946"/>
      <point x="218" y="946" type="curve" smooth="yes"/>
      <point x="102" y="946" type="line" smooth="yes"/>
      <point x="72" y="946"/>
      <point x="64" y="954"/>
    </contour>
  </outline>
</glyph>
<glyph name="question" format="2">
  <advance width="1170"/>
  <unicode hex="003F"/>
  <outline>
    <contour>
      <point x="358" y="1334" type="curve" smooth="yes"/>
      <point x="358" y="1294"/>
      <point x="500" y="1312"/>
      <point x="500" y="1150" type="curve" smooth="yes"/>
      <point x="500" y="1026"/>
      <point x="374" y="940"/>
      <point x="264" y="940" type="curve" smooth="yes"/>
      <point x="144" y="940"/>
      <point x="30" y="1026"/>
      <point x="30" y="1182" type="curve" smooth="yes"/>
      <point x="30" y="1346"/>
      <point x="228" y="1520"/>
      <point x="562" y="1520" type="curve" smooth="yes"/>
      <point x="884" y="1520"/>
      <point x="1140" y="1390"/>
      <point x="1140" y="1100" type="curve" smooth="yes"/>
      <point x="1140" y="840"/>
      <point x="925" y="690"/>
      <point x="666" y="618" type="curve" smooth="yes"/>
      <point x="639" y="611"/>
      <point x="634" y="613"/>
      <point x="631" y="580" type="curve" smooth="yes"/>
      <point x="628" y="536" type="line" smooth="yes"/>
      <point x="625" y="500"/>
      <point x="608" y="498"/>
      <point x="572" y="498" type="curve" smooth="yes"/>
      <point x="506" y="498" type="line" smooth="yes"/>
      <point x="440" y="498"/>
      <point x="433" y="504"/>
      <point x="425" y="560" type="curve" smooth="yes"/>
      <point x="411" y="652" type="line" smooth="yes"/>
      <point x="402" y="712"/>
      <point x="426" y="702"/>
      <point x="470" y="722" type="curve" smooth="yes"/>
      <point x="643" y="799"/>
      <point x="738" y="956"/>
      <point x="738" y="1140" type="curve" smooth="yes"/>
      <point x="738" y="1288"/>
      <point x="680" y="1396"/>
      <point x="522" y="1396" type="curve" smooth="yes"/>
      <point x="414" y="1396"/>
      <point x="358" y="1358"/>
    </contour>
    <component base="period" xOffset="258"/>
  </outline>
</glyph>
<glyph name="B" format="2">
  <advance width="1700"/>
  <unicode hex="0042"/>
  <anchor x="794" y="1500" name="Anchor-0"/>
  <anchor x="826" y="0" name="Anchor-1"/>
  <anchor x="826" y="0" name="Anchor-2"/>
  <outline>
    <contour>
      <point x="930" y="270" type="line" smooth="yes"/>
      <point x="1102" y="270"/>
      <point x="1150" y="352"/>
      <point x="1150" y="470" type="curve" smooth="yes"/>
      <point x="1150" y="588"/>
      <point x="1062" y="640"/>
      <point x="930" y="640" type="curve" smooth="yes"/>
      <point x="781" y="640" type="line" smooth="yes"/>
      <point x="755" y="640"/>
      <point x="740" y="624"/>
      <point x="740" y="596" type="curve" smooth="yes"/>
      <point x="740" y="326" type="line" smooth="yes"/>
      <point x="740" y="285"/>
      <point x="746" y="270"/>
      <point x="785" y="270" type="curve" smooth="yes"/>
    </contour>
    <contour>
      <point x="797" y="910" type="curve" smooth="yes"/>
      <point x="890" y="910" type="line" smooth="yes"/>
      <point x="1012" y="910"/>
      <point x="1090" y="962"/>
      <point x="1090" y="1080" type="curve" smooth="yes"/>
      <point x="1090" y="1198"/>
      <point x="1032" y="1230"/>
      <point x="890" y="1230" type="curve" smooth="yes"/>
      <point x="791" y="1230" type="line" smooth="yes"/>
      <point x="760" y="1230"/>
      <point x="740" y="1229"/>
      <point x="740" y="1198" type="curve" smooth="yes"/>
      <point x="740" y="969" type="line" smooth="yes"/>
      <point x="740" y="919"/>
      <point x="748" y="910"/>
    </contour>
    <contour>
      <point x="970" y="0" type="curve" smooth="yes"/>
      <point x="97" y="0" type="line" smooth="yes"/>
      <point x="51" y="0"/>
      <point x="50" y="19"/>
      <point x="50" y="66" type="curve" smooth="yes"/>
      <point x="50" y="240" type="line" smooth="yes"/>
      <point x="50" y="266"/>
      <point x="61" y="270"/>
      <point x="85" y="270" type="curve" smooth="yes"/>
      <point x="223" y="270" type="line" smooth="yes"/>
      <point x="267" y="270"/>
      <point x="270" y="287"/>
      <point x="270" y="332" type="curve" smooth="yes"/>
      <point x="270" y="1178" type="line" smooth="yes"/>
      <point x="270" y="1214"/>
      <point x="264" y="1230"/>
      <point x="229" y="1230" type="curve" smooth="yes"/>
      <point x="93" y="1230" type="line" smooth="yes"/>
      <point x="56" y="1230"/>
      <point x="50" y="1236"/>
      <point x="50" y="1272" type="curve" smooth="yes"/>
      <point x="50" y="1448" type="line" smooth="yes"/>
      <point x="50" y="1488"/>
      <point x="59" y="1500"/>
      <point x="97" y="1500" type="curve" smooth="yes"/>
      <point x="910" y="1500" type="line" smooth="yes"/>
      <point x="1372" y="1500"/>
      <point x="1570" y="1410"/>
      <point x="1570" y="1130" type="curve" smooth="yes"/>
      <point x="1570" y="965"/>
      <point x="1474" y="859"/>
      <point x="1295" y="805" type="curve" smooth="yes"/>
      <point x="1257" y="794"/>
      <point x="1255" y="769"/>
      <point x="1301" y="760" type="curve" smooth="yes"/>
      <point x="1523" y="714"/>
      <point x="1650" y="603"/>
      <point x="1650" y="420" type="curve" smooth="yes"/>
      <point x="1650" y="100"/>
      <point x="1452" y="0"/>
    </contour>
  </outline>
</glyph>
<glyph name="D" format="2">
  <advance width="1840"/>
  <unicode hex="0044"/>
  <anchor x="934" y="1500" name="Anchor-0"/>
  <anchor x="933" y="0" name="Anchor-1"/>
  <anchor x="933" y="0" name="Anchor-2"/>
  <outline>
    <contour>
      <point x="50" y="34" type="curve" smooth="yes"/>
      <point x="50" y="230" type="line" smooth="yes"/>
      <point x="50" y="263"/>
      <point x="58" y="270"/>
      <point x="89" y="270" type="curve" smooth="yes"/>
      <point x="233" y="270" type="line" smooth="yes"/>
      <point x="269" y="270"/>
      <point x="270" y="279"/>
      <point x="270" y="316" type="curve" smooth="yes"/>
      <point x="270" y="1179" type="line" smooth="yes"/>
      <point x="270" y="1222"/>
      <point x="264" y="1230"/>
      <point x="223" y="1230" type="curve" smooth="yes"/>
      <point x="99" y="1230" type="line" smooth="yes"/>
      <point x="55" y="1230"/>
      <point x="50" y="1236"/>
      <point x="50" y="1278" type="curve" smooth="yes"/>
      <point x="50" y="1447" type="line" smooth="yes"/>
      <point x="50" y="1492"/>
      <point x="60" y="1500"/>
      <point x="103" y="1500" type="curve" smooth="yes"/>
      <point x="910" y="1500" type="line" smooth="yes"/>
      <point x="1576" y="1500"/>
      <point x="1770" y="1176"/>
      <point x="1770" y="750" type="curve" smooth="yes"/>
      <point x="1770" y="324"/>
      <point x="1556" y="0"/>
      <point x="910" y="0" type="curve" smooth="yes"/>
      <point x="98" y="0" type="line" smooth="yes"/>
      <point x="65" y="0"/>
      <point x="50" y="1"/>
    </contour>
    <contour>
      <point x="798" y="270" type="curve" smooth="yes"/>
      <point x="890" y="270" type="line" smooth="yes"/>
      <point x="1118" y="270"/>
      <point x="1250" y="426"/>
      <point x="1250" y="750" type="curve" smooth="yes"/>
      <point x="1250" y="1074"/>
      <point x="1098" y="1230"/>
      <point x="890" y="1230" type="curve" smooth="yes"/>
      <point x="799" y="1230" type="line" smooth="yes"/>
      <point x="752" y="1230"/>
      <point x="740" y="1222"/>
      <point x="740" y="1174" type="curve" smooth="yes"/>
      <point x="740" y="316" type="line" smooth="yes"/>
      <point x="740" y="272"/>
      <point x="753" y="270"/>
    </contour>
  </outline>
</glyph>
<glyph name="E" format="2">
  <advance width="1679"/>
  <unicode hex="0045"/>
  <anchor x="844" y="1500" name="Anchor-0"/>
  <anchor x="816" y="0" name="Anchor-1"/>
  <anchor x="816" y="0" name="Anchor-2"/>
  <anchor x="1426" y="50" name="Anchor-3"/>
  <outline>
    <contour>
      <point x="226" y="1230" type="curve" smooth="yes"/>
      <point x="96" y="1230" type="line" smooth="yes"/>
      <point x="54" y="1230"/>
      <point x="50" y="1238"/>
      <point x="50" y="1278" type="curve" smooth="yes"/>
      <point x="50" y="1454" type="line" smooth="yes"/>
      <point x="50" y="1499"/>
      <point x="64" y="1500"/>
      <point x="106" y="1500" type="curve" smooth="yes"/>
      <point x="1538" y="1500" type="line" smooth="yes"/>
      <point x="1577" y="1500"/>
      <point x="1580" y="1489"/>
      <point x="1580" y="1452" type="curve" smooth="yes"/>
      <point x="1580" y="948" type="line" smooth="yes"/>
      <point x="1580" y="910"/>
      <point x="1580" y="910"/>
      <point x="1542" y="910" type="curve" smooth="yes"/>
      <point x="1352" y="910" type="line" smooth="yes"/>
      <point x="1322" y="910"/>
      <point x="1320" y="924"/>
      <point x="1319" y="950" type="curve" smooth="yes"/>
      <point x="1313" y="1154"/>
      <point x="1260" y="1230"/>
      <point x="1040" y="1230" type="curve" smooth="yes"/>
      <point x="798" y="1230" type="line" smooth="yes"/>
      <point x="759" y="1230"/>
      <point x="740" y="1226"/>
      <point x="740" y="1183" type="curve" smooth="yes"/>
      <point x="740" y="918" type="line" smooth="yes"/>
      <point x="740" y="870"/>
      <point x="746" y="860"/>
      <point x="778" y="860" type="curve" smooth="yes"/>
      <point x="783" y="860" type="line" smooth="yes"/>
      <point x="886" y="860"/>
      <point x="950" y="945"/>
      <point x="966" y="1038" type="curve" smooth="yes"/>
      <point x="971" y="1069"/>
      <point x="973" y="1086"/>
      <point x="1001" y="1086" type="curve" smooth="yes"/>
      <point x="1112" y="1086" type="line" smooth="yes"/>
      <point x="1155" y="1086"/>
      <point x="1160" y="1080"/>
      <point x="1160" y="1038" type="curve" smooth="yes"/>
      <point x="1160" y="458" type="line" smooth="yes"/>
      <point x="1160" y="423"/>
      <point x="1155" y="416"/>
      <point x="1118" y="416" type="curve" smooth="yes"/>
      <point x="1010" y="416" type="line" smooth="yes"/>
      <point x="969" y="416"/>
      <point x="971" y="435"/>
      <point x="965" y="468" type="curve" smooth="yes"/>
      <point x="949" y="559"/>
      <point x="869" y="650"/>
      <point x="792" y="650" type="curve" smooth="yes"/>
      <point x="786" y="650" type="line" smooth="yes"/>
      <point x="759" y="650"/>
      <point x="740" y="633"/>
      <point x="740" y="592" type="curve" smooth="yes"/>
      <point x="740" y="310" type="line" smooth="yes"/>
      <point x="740" y="263"/>
      <point x="749" y="270"/>
      <point x="794" y="270" type="curve" smooth="yes"/>
      <point x="1020" y="270" type="line" smooth="yes"/>
      <point x="1274" y="270"/>
      <point x="1332" y="361"/>
      <point x="1339" y="592" type="curve" smooth="yes"/>
      <point x="1341" y="643"/>
      <point x="1335" y="650"/>
      <point x="1390" y="650" type="curve" smooth="yes"/>
      <point x="1560" y="650" type="line" smooth="yes"/>
      <point x="1605" y="650"/>
      <point x="1600" y="644"/>
      <point x="1600" y="600" type="curve" smooth="yes"/>
      <point x="1600" y="40" type="line" smooth="yes"/>
      <point x="1600" y="-2"/>
      <point x="1598" y="0"/>
      <point x="1556" y="0" type="curve" smooth="yes"/>
      <point x="100" y="0" type="line" smooth="yes"/>
      <point x="60" y="0"/>
      <point x="50" y="-7"/>
      <point x="50" y="36" type="curve" smooth="yes"/>
      <point x="50" y="238" type="line" smooth="yes"/>
      <point x="50" y="272"/>
      <point x="53" y="270"/>
      <point x="86" y="270" type="curve" smooth="yes"/>
      <point x="226" y="270" type="line" smooth="yes"/>
      <point x="269" y="270"/>
      <point x="270" y="269"/>
      <point x="270" y="312" type="curve" smooth="yes"/>
      <point x="270" y="1192" type="line" smooth="yes"/>
      <point x="270" y="1227"/>
      <point x="262" y="1230"/>
    </contour>
  </outline>
</glyph>
<glyph name="g" format="2">
  <advance height="2310" width="1379"/>
  <unicode hex="0067"/>
  <anchor x="702" y="1040" name="Anchor-0"/>
  <anchor x="526" y="-565" name="Anchor-1"/>
  <anchor x="526" y="-565" name="Anchor-2"/>
  <outline>
    <contour>
      <point x="455" y="710" type="curve" smooth="yes"/>
      <point x="455" y="602"/>
      <point x="475" y="520"/>
      <point x="543" y="520" type="curve" smooth="yes"/>
      <point x="611" y="520"/>
      <point x="631" y="602"/>
      <point x="631" y="710" type="curve" smooth="yes"/>
      <point x="631" y="818"/>
      <point x="611" y="900"/>
      <point x="543" y="900" type="curve" smooth="yes"/>
      <point x="475" y="900"/>
      <point x="455" y="818"/>
    </contour>
    <contour>
      <point x="45" y="710" type="curve" smooth="yes"/>
      <point x="45" y="950"/>
      <point x="281" y="1080"/>
      <point x="543" y="1080" type="curve" smooth="yes"/>
      <point x="671" y="1080"/>
      <point x="789" y="1048"/>
      <point x="875" y="988" type="curve" smooth="yes"/>
      <point x="902" y="970"/>
      <point x="901" y="966"/>
      <point x="925" y="988" type="curve" smooth="yes"/>
      <point x="995" y="1052"/>
      <point x="1085" y="1080"/>
      <point x="1171" y="1080" type="curve" smooth="yes"/>
      <point x="1293" y="1080"/>
      <point x="1399" y="992"/>
      <point x="1399" y="868" type="curve" smooth="yes"/>
      <point x="1399" y="750"/>
      <point x="1313" y="688"/>
      <point x="1213" y="688" type="curve" smooth="yes"/>
      <point x="1107" y="688"/>
      <point x="1067" y="766"/>
      <point x="1067" y="826" type="curve" smooth="yes"/>
      <point x="1067" y="894"/>
      <point x="1113" y="901"/>
      <point x="1113" y="921" type="curve" smooth="yes"/>
      <point x="1113" y="929"/>
      <point x="1108" y="930"/>
      <point x="1099" y="930" type="curve" smooth="yes"/>
      <point x="1068" y="930"/>
      <point x="1028" y="902"/>
      <point x="1011" y="880" type="curve" smooth="yes"/>
      <point x="995" y="860"/>
      <point x="993" y="849"/>
      <point x="1002" y="824" type="curve" smooth="yes"/>
      <point x="1014" y="789"/>
      <point x="1021" y="751"/>
      <point x="1021" y="710" type="curve" smooth="yes"/>
      <point x="1021" y="470"/>
      <point x="805" y="340"/>
      <point x="543" y="340" type="curve" smooth="yes"/>
      <point x="500" y="340"/>
      <point x="461" y="345"/>
      <point x="421" y="352" type="curve" smooth="yes"/>
      <point x="402" y="355"/>
      <point x="394" y="350"/>
      <point x="383" y="340" type="curve" smooth="yes"/>
      <point x="370" y="327"/>
      <point x="365" y="312"/>
      <point x="365" y="294" type="curve" smooth="yes"/>
      <point x="365" y="266"/>
      <point x="379" y="238"/>
      <point x="449" y="238" type="curve" smooth="yes"/>
      <point x="499" y="238"/>
      <point x="755" y="240"/>
      <point x="871" y="240" type="curve" smooth="yes"/>
      <point x="1121" y="240"/>
      <point x="1275" y="118"/>
      <point x="1275" y="-114" type="curve" smooth="yes"/>
      <point x="1275" y="-396"/>
      <point x="915" y="-530"/>
      <point x="555" y="-530" type="curve" smooth="yes"/>
      <point x="189" y="-530"/>
      <point x="-65" y="-440"/>
      <point x="-65" y="-270" type="curve" smooth="yes"/>
      <point x="-65" y="-169"/>
      <point x="28" y="-100"/>
      <point x="149" y="-55" type="curve" smooth="yes"/>
      <point x="178" y="-44"/>
      <point x="176" y="-37"/>
      <point x="153" y="-21" type="curve" smooth="yes"/>
      <point x="85" y="26"/>
      <point x="39" y="87"/>
      <point x="39" y="168" type="curve" smooth="yes"/>
      <point x="39" y="275"/>
      <point x="103" y="343"/>
      <point x="206" y="391" type="curve" smooth="yes"/>
      <point x="233" y="404"/>
      <point x="232" y="413"/>
      <point x="211" y="426" type="curve" smooth="yes"/>
      <point x="111" y="489"/>
      <point x="45" y="584"/>
    </contour>
    <contour>
      <point x="927" y="-202" type="curve" smooth="yes"/>
      <point x="927" y="-134"/>
      <point x="885" y="-118"/>
      <point x="755" y="-118" type="curve" smooth="yes"/>
      <point x="713" y="-118"/>
      <point x="501" y="-118"/>
      <point x="457" y="-118" type="curve" smooth="yes"/>
      <point x="435" y="-118"/>
      <point x="413" y="-117"/>
      <point x="391" y="-114" type="curve" smooth="yes"/>
      <point x="370" y="-111"/>
      <point x="354" y="-107"/>
      <point x="341" y="-120" type="curve" smooth="yes"/>
      <point x="316" y="-145"/>
      <point x="305" y="-174"/>
      <point x="305" y="-204" type="curve" smooth="yes"/>
      <point x="305" y="-300"/>
      <point x="435" y="-326"/>
      <point x="587" y="-326" type="curve" smooth="yes"/>
      <point x="755" y="-326"/>
      <point x="927" y="-286"/>
    </contour>
  </outline>
</glyph>
<glyph name="i" format="2">
  <advance height="2310" width="865"/>
  <unicode hex="0069"/>
  <anchor x="437" y="0" name="Anchor-1"/>
  <anchor x="437" y="0" name="Anchor-2"/>
  <outline>
    <contour>
      <point x="195" y="1380" type="curve" smooth="yes"/>
      <point x="195" y="1516"/>
      <point x="303" y="1590"/>
      <point x="435" y="1590" type="curve" smooth="yes"/>
      <point x="567" y="1590"/>
      <point x="675" y="1516"/>
      <point x="675" y="1380" type="curve" smooth="yes"/>
      <point x="675" y="1244"/>
      <point x="567" y="1170"/>
      <point x="435" y="1170" type="curve" smooth="yes"/>
      <point x="303" y="1170"/>
      <point x="195" y="1244"/>
    </contour>
    <contour>
      <point x="216" y="830" type="curve" smooth="yes"/>
      <point x="81" y="830" type="line" smooth="yes"/>
      <point x="63" y="830"/>
      <point x="55" y="833"/>
      <point x="55" y="850" type="curve" smooth="yes"/>
      <point x="55" y="1012" type="line" smooth="yes"/>
      <point x="55" y="1035"/>
      <point x="63" y="1040"/>
      <point x="85" y="1040" type="curve" smooth="yes"/>
      <point x="630" y="1040" type="line" smooth="yes"/>
      <point x="649" y="1040"/>
      <point x="655" y="1039"/>
      <point x="655" y="1020" type="curve" smooth="yes"/>
      <point x="655" y="235" type="line" smooth="yes"/>
      <point x="655" y="215"/>
      <point x="656" y="210"/>
      <point x="676" y="210" type="curve" smooth="yes"/>
      <point x="807" y="210" type="line" smooth="yes"/>
      <point x="830" y="210"/>
      <point x="835" y="209"/>
      <point x="835" y="186" type="curve" smooth="yes"/>
      <point x="835" y="31" type="line" smooth="yes"/>
      <point x="835" y="2"/>
      <point x="827" y="0"/>
      <point x="797" y="0" type="curve" smooth="yes"/>
      <point x="79" y="0" type="line" smooth="yes"/>
      <point x="59" y="0"/>
      <point x="55" y="4"/>
      <point x="55" y="25" type="curve" smooth="yes"/>
      <point x="55" y="181" type="line" smooth="yes"/>
      <point x="55" y="206"/>
      <point x="58" y="210"/>
      <point x="82" y="210" type="curve" smooth="yes"/>
      <point x="209" y="210" type="line" smooth="yes"/>
      <point x="230" y="210"/>
      <point x="235" y="211"/>
      <point x="235" y="232" type="curve" smooth="yes"/>
      <point x="235" y="804" type="line" smooth="yes"/>
      <point x="235" y="821"/>
      <point x="232" y="830"/>
    </contour>
  </outline>
</glyph>
<glyph name="r" format="2">
  <advance height="2310" width="1316"/>
  <unicode hex="0072"/>
  <anchor x="645" y="1040" name="Anchor-0"/>
  <anchor x="427" y="0" name="Anchor-1"/>
  <anchor x="427" y="0" name="Anchor-2"/>
  <outline>
    <contour>
      <point x="235" y="787" type="line" smooth="yes"/>
      <point x="235" y="820"/>
      <point x="234" y="830"/>
      <point x="201" y="830" type="curve" smooth="yes"/>
      <point x="91" y="830" type="line" smooth="yes"/>
      <point x="62" y="830"/>
      <point x="55" y="833"/>
      <point x="55" y="861" type="curve" smooth="yes"/>
      <point x="55" y="1000" type="line" smooth="yes"/>
      <point x="55" y="1032"/>
      <point x="63" y="1040"/>
      <point x="93" y="1040" type="curve" smooth="yes"/>
      <point x="583" y="1040" type="line" smooth="yes"/>
      <point x="609" y="1040"/>
      <point x="615" y="1035"/>
      <point x="615" y="1007" type="curve" smooth="yes"/>
      <point x="615" y="926" type="line" smooth="yes"/>
      <point x="615" y="882"/>
      <point x="620" y="869"/>
      <point x="635" y="894" type="curve" smooth="yes"/>
      <point x="699" y="999"/>
      <point x="806" y="1080"/>
      <point x="985" y="1080" type="curve" smooth="yes"/>
      <point x="1173" y="1080"/>
      <point x="1311" y="988"/>
      <point x="1311" y="812" type="curve" smooth="yes"/>
      <point x="1311" y="708"/>
      <point x="1237" y="560"/>
      <point x="1067" y="560" type="curve" smooth="yes"/>
      <point x="939" y="560"/>
      <point x="845" y="630"/>
      <point x="845" y="732" type="curve" smooth="yes"/>
      <point x="845" y="826"/>
      <point x="905" y="848"/>
      <point x="905" y="872" type="curve" smooth="yes"/>
      <point x="905" y="882"/>
      <point x="897" y="892"/>
      <point x="875" y="892" type="curve" smooth="yes"/>
      <point x="779" y="892"/>
      <point x="655" y="732"/>
      <point x="655" y="526" type="curve" smooth="yes"/>
      <point x="655" y="245" type="line" smooth="yes"/>
      <point x="655" y="213"/>
      <point x="662" y="210"/>
      <point x="695" y="210" type="curve" smooth="yes"/>
      <point x="807" y="210" type="line" smooth="yes"/>
      <point x="832" y="210"/>
      <point x="835" y="203"/>
      <point x="835" y="177" type="curve" smooth="yes"/>
      <point x="835" y="40" type="line" smooth="yes"/>
      <point x="835" y="9"/>
      <point x="834" y="0"/>
      <point x="803" y="0" type="curve" smooth="yes"/>
      <point x="99" y="0" type="line" smooth="yes"/>
      <point x="66" y="0"/>
      <point x="55" y="9"/>
      <point x="55" y="43" type="curve" smooth="yes"/>
      <point x="55" y="180" type="line" smooth="yes"/>
      <point x="55" y="209"/>
      <point x="64" y="210"/>
      <point x="93" y="210" type="curve" smooth="yes"/>
      <point x="188" y="210" type="line" smooth="yes"/>
      <point x="222" y="210"/>
      <point x="235" y="213"/>
      <point x="235" y="246" type="curve" smooth="yes"/>
    </contour>
  </outline>
</glyph>
<glyph name="v" format="2">
  <advance height="2310" width="1358"/>
  <unicode hex="0076"/>
  <anchor x="784" y="1040" name="Anchor-0"/>
  <anchor x="707" y="0" name="Anchor-1"/>
  <anchor x="707" y="0" name="Anchor-2"/>
  <outline>
    <contour>
      <point x="859" y="547" type="curve" smooth="yes"/>
      <point x="973" y="799" type="line" smooth="yes"/>
      <point x="983" y="821"/>
      <point x="978" y="830"/>
      <point x="946" y="830" type="curve" smooth="yes"/>
      <point x="886" y="830" type="line" smooth="yes"/>
      <point x="865" y="830"/>
      <point x="860" y="840"/>
      <point x="860" y="859" type="curve" smooth="yes"/>
      <point x="860" y="1010" type="line" smooth="yes"/>
      <point x="860" y="1034"/>
      <point x="865" y="1040"/>
      <point x="888" y="1040" type="curve" smooth="yes"/>
      <point x="1342" y="1040" type="line" smooth="yes"/>
      <point x="1360" y="1040"/>
      <point x="1368" y="1032"/>
      <point x="1368" y="1015" type="curve" smooth="yes"/>
      <point x="1368" y="857" type="line" smooth="yes"/>
      <point x="1368" y="839"/>
      <point x="1361" y="830"/>
      <point x="1342" y="830" type="curve" smooth="yes"/>
      <point x="1262" y="830" type="line" smooth="yes"/>
      <point x="1234" y="830"/>
      <point x="1227" y="817"/>
      <point x="1218" y="799" type="curve" smooth="yes"/>
      <point x="826" y="2" type="line" smooth="yes"/>
      <point x="813" y="-24"/>
      <point x="804" y="-30"/>
      <point x="764" y="-30" type="curve" smooth="yes"/>
      <point x="632" y="-30" type="line" smooth="yes"/>
      <point x="602" y="-30"/>
      <point x="593" y="-24"/>
      <point x="583" y="-5" type="curve" smooth="yes"/>
      <point x="149" y="812" type="line" smooth="yes"/>
      <point x="140" y="828"/>
      <point x="129" y="830"/>
      <point x="104" y="830" type="curve" smooth="yes"/>
      <point x="22" y="830" type="line" smooth="yes"/>
      <point x="-2" y="830"/>
      <point x="-10" y="833"/>
      <point x="-10" y="856" type="curve" smooth="yes"/>
      <point x="-10" y="1012" type="line" smooth="yes"/>
      <point x="-10" y="1035"/>
      <point x="-3" y="1040"/>
      <point x="18" y="1040" type="curve" smooth="yes"/>
      <point x="752" y="1040" type="line" smooth="yes"/>
      <point x="771" y="1040"/>
      <point x="772" y="1031"/>
      <point x="772" y="1011" type="curve" smooth="yes"/>
      <point x="772" y="855" type="line" smooth="yes"/>
      <point x="772" y="832"/>
      <point x="764" y="830"/>
      <point x="740" y="830" type="curve" smooth="yes"/>
      <point x="653" y="830" type="line" smooth="yes"/>
      <point x="620" y="830"/>
      <point x="618" y="818"/>
      <point x="629" y="797" type="curve" smooth="yes"/>
      <point x="753" y="549" type="line" smooth="yes"/>
      <point x="769" y="517"/>
      <point x="776" y="451"/>
      <point x="803" y="451" type="curve" smooth="yes"/>
      <point x="830" y="451"/>
      <point x="845" y="516"/>
    </contour>
  </outline>
</glyph>
<glyph name="currency" format="2">
  <advance width="1140"/>
  <unicode hex="00A4"/>
  <outline>
    <contour>
      <point x="131" y="238" type="line"/>
      <point x="38" y="331" type="line"/>
      <point x="196" y="489" type="line"/>
      <point x="127" y="573"/>
      <point x="112" y="653"/>
      <point x="112" y="770" type="curve" smooth="yes"/>
      <point x="112" y="887"/>
      <point x="137" y="967"/>
      <point x="196" y="1051" type="curve"/>
      <point x="38" y="1209" type="line"/>
      <point x="131" y="1302" type="line"/>
      <point x="289" y="1144" type="line"/>
      <point x="361" y="1196"/>
      <point x="441" y="1229"/>
      <point x="571" y="1229" type="curve" smooth="yes"/>
      <point x="701" y="1229"/>
      <point x="779" y="1196"/>
      <point x="852" y="1145" type="curve"/>
      <point x="1009" y="1302" type="line"/>
      <point x="1102" y="1209" type="line"/>
      <point x="944" y="1051" type="line"/>
      <point x="1003" y="967"/>
      <point x="1028" y="887"/>
      <point x="1028" y="770" type="curve" smooth="yes"/>
      <point x="1028" y="654"/>
      <point x="1004" y="573"/>
      <point x="945" y="488" type="curve"/>
      <point x="1102" y="331" type="line"/>
      <point x="1009" y="238" type="line"/>
      <point x="852" y="395" type="line"/>
      <point x="780" y="344"/>
      <point x="700" y="310"/>
      <point x="571" y="310" type="curve" smooth="yes"/>
      <point x="441" y="310"/>
      <point x="360" y="344"/>
      <point x="288" y="395" type="curve"/>
    </contour>
    <contour>
      <point x="571" y="473" type="curve" smooth="yes"/>
      <point x="754" y="473"/>
      <point x="858" y="591"/>
      <point x="858" y="770" type="curve" smooth="yes"/>
      <point x="858" y="949"/>
      <point x="753" y="1067"/>
      <point x="571" y="1067" type="curve" smooth="yes"/>
      <point x="388" y="1067"/>
      <point x="282" y="949"/>
      <point x="282" y="770" type="curve" smooth="yes"/>
      <point x="282" y="591"/>
      <point x="389" y="473"/>
    </contour>
  </outline>
</glyph>
<glyph name="yen" format="2">
  <advance width="1770"/>
  <unicode hex="00A5"/>
  <anchor x="986" y="1500" name="Anchor-0"/>
  <anchor x="901" y="0" name="Anchor-1"/>
  <anchor x="901" y="0" name="Anchor-2"/>
  <outline>
    <contour>
      <point x="347" y="870" type="curve" smooth="yes"/>
      <point x="1410" y="870" type="line" smooth="yes"/>
      <point x="1464" y="870"/>
      <point x="1470" y="863"/>
      <point x="1470" y="831" type="curve" smooth="yes"/>
      <point x="1470" y="681" type="line" smooth="yes"/>
      <point x="1470" y="646"/>
      <point x="1468" y="640"/>
      <point x="1407" y="640" type="curve" smooth="yes"/>
      <point x="361" y="640" type="line" smooth="yes"/>
      <point x="298" y="640"/>
      <point x="288" y="645"/>
      <point x="288" y="680" type="curve" smooth="yes"/>
      <point x="288" y="829" type="line" smooth="yes"/>
      <point x="288" y="861"/>
      <point x="291" y="870"/>
    </contour>
    <contour>
      <point x="347" y="580" type="curve" smooth="yes"/>
      <point x="1409" y="580" type="line" smooth="yes"/>
      <point x="1463" y="580"/>
      <point x="1468" y="573"/>
      <point x="1468" y="541" type="curve" smooth="yes"/>
      <point x="1468" y="391" type="line" smooth="yes"/>
      <point x="1468" y="356"/>
      <point x="1467" y="350"/>
      <point x="1406" y="350" type="curve" smooth="yes"/>
      <point x="361" y="350" type="line" smooth="yes"/>
      <point x="299" y="350"/>
      <point x="288" y="355"/>
      <point x="288" y="390" type="curve" smooth="yes"/>
      <point x="288" y="539" type="line" smooth="yes"/>
      <point x="288" y="571"/>
      <point x="291" y="580"/>
    </contour>
    <component base="Y"/>
  </outline>
</glyph>
<glyph name="guillemotleft" format="2">
  <advance width="1390"/>
  <unicode hex="00AB"/>
  <outline>
    <contour>
      <point x="1002" y="775" type="line"/>
      <point x="1350" y="380" type="line"/>
      <point x="1270" y="270" type="line"/>
      <point x="590" y="750" type="line"/>
      <point x="590" y="800" type="line"/>
      <point x="1270" y="1280" type="line"/>
      <point x="1350" y="1170" type="line"/>
    </contour>
    <contour>
      <point x="442" y="775" type="line"/>
      <point x="790" y="380" type="line"/>
      <point x="710" y="270" type="line"/>
      <point x="30" y="750" type="line"/>
      <point x="30" y="800" type="line"/>
      <point x="710" y="1280" type="line"/>
      <point x="790" y="1170" type="line"/>
    </contour>
  </outline>
</glyph>
<glyph name="logicalnot" format="2">
  <advance width="1051"/>
  <unicode hex="00AC"/>
  <outline>
    <contour>
      <point x="739" y="406" type="line"/>
      <point x="739" y="666" type="line"/>
      <point x="120" y="666" type="line"/>
      <point x="120" y="880" type="line"/>
      <point x="932" y="880" type="line"/>
      <point x="932" y="406" type="line"/>
    </contour>
  </outline>
</glyph>
<glyph name="plusminus" format="2">
  <advance width="1059"/>
  <unicode hex="00B1"/>
  <outline>
    <contour>
      <point x="423" y="361" type="line"/>
      <point x="423" y="666" type="line"/>
      <point x="120" y="666" type="line"/>
      <point x="120" y="878" type="line"/>
      <point x="423" y="878" type="line"/>
      <point x="423" y="1180" type="line"/>
      <point x="636" y="1180" type="line"/>
      <point x="636" y="878" type="line"/>
      <point x="939" y="878" type="line"/>
      <point x="939" y="666" type="line"/>
      <point x="636" y="666" type="line"/>
      <point x="636" y="361" type="line"/>
    </contour>
    <contour>
      <point x="121" y="-15" type="line"/>
      <point x="121" y="197" type="line"/>
      <point x="940" y="197" type="line"/>
      <point x="940" y="-15" type="line"/>
    </contour>
  </outline>
</glyph>
<glyph name="acute" format="2">
  <advance width="790"/>
  <unicode hex="00B4"/>
  <outline>
    <contour>
      <point x="535" y="1340" type="curve" smooth="yes"/>
      <point x="151" y="1373" type="line" smooth="yes"/>
      <point x="89" y="1378"/>
      <point x="65" y="1377"/>
      <point x="61" y="1432" type="curve" smooth="yes"/>
      <point x="55" y="1509"/>
      <point x="84" y="1512"/>
      <point x="148" y="1536" type="curve" smooth="yes"/>
      <point x="515" y="1676" type="line" smooth="yes"/>
      <point x="631" y="1720"/>
      <point x="725" y="1628"/>
      <point x="725" y="1510" type="curve" smooth="yes"/>
      <point x="725" y="1392"/>
      <point x="640" y="1331"/>
    </contour>
  </outline>
</glyph>
<glyph name="paragraph" format="2">
  <advance width="1632"/>
  <unicode hex="00B6"/>
  <outline>
    <contour>
      <point x="485" y="-270" type="curve" smooth="yes"/>
      <point x="485" y="-146" type="line" smooth="yes"/>
      <point x="485" y="-97"/>
      <point x="486" y="-87"/>
      <point x="535" y="-87" type="curve" smooth="yes"/>
      <point x="773" y="-87" type="line" smooth="yes"/>
      <point x="805" y="-87"/>
      <point x="815" y="-86"/>
      <point x="815" y="-54" type="curve" smooth="yes"/>
      <point x="815" y="440" type="line" smooth="yes"/>
      <point x="815" y="475"/>
      <point x="806" y="479"/>
      <point x="773" y="479" type="curve" smooth="yes"/>
      <point x="666" y="479" type="line" smooth="yes"/>
      <point x="409" y="479"/>
      <point x="126" y="642"/>
      <point x="126" y="989" type="curve" smooth="yes"/>
      <point x="126" y="1336"/>
      <point x="408" y="1500"/>
      <point x="666" y="1500" type="curve" smooth="yes"/>
      <point x="1509" y="1500" type="line" smooth="yes"/>
      <point x="1537" y="1500"/>
      <point x="1546" y="1496"/>
      <point x="1546" y="1466" type="curve" smooth="yes"/>
      <point x="1546" y="1328" type="line" smooth="yes"/>
      <point x="1546" y="1290"/>
      <point x="1538" y="1287"/>
      <point x="1499" y="1287" type="curve" smooth="yes"/>
      <point x="1409" y="1287" type="line" smooth="yes"/>
      <point x="1367" y="1287"/>
      <point x="1366" y="1278"/>
      <point x="1366" y="1236" type="curve" smooth="yes"/>
      <point x="1366" y="-32" type="line" smooth="yes"/>
      <point x="1366" y="-66"/>
      <point x="1369" y="-87"/>
      <point x="1407" y="-87" type="curve" smooth="yes"/>
      <point x="1511" y="-87" type="line" smooth="yes"/>
      <point x="1537" y="-87"/>
      <point x="1546" y="-88"/>
      <point x="1546" y="-114" type="curve" smooth="yes"/>
      <point x="1546" y="-259" type="line" smooth="yes"/>
      <point x="1546" y="-293"/>
      <point x="1540" y="-300"/>
      <point x="1507" y="-300" type="curve" smooth="yes"/>
      <point x="531" y="-300" type="line" smooth="yes"/>
      <point x="505" y="-300"/>
      <point x="485" y="-299"/>
    </contour>
    <contour>
      <point x="1153" y="-44" type="curve" smooth="yes"/>
      <point x="1153" y="1258" type="line" smooth="yes"/>
      <point x="1153" y="1286"/>
      <point x="1144" y="1287"/>
      <point x="1115" y="1287" type="curve" smooth="yes"/>
      <point x="1071" y="1287" type="line" smooth="yes"/>
      <point x="1033" y="1287"/>
      <point x="1028" y="1281"/>
      <point x="1028" y="1242" type="curve" smooth="yes"/>
      <point x="1028" y="-36" type="line" smooth="yes"/>
      <point x="1028" y="-69"/>
      <point x="1028" y="-87"/>
      <point x="1065" y="-87" type="curve" smooth="yes"/>
      <point x="1101" y="-87" type="line" smooth="yes"/>
      <point x="1143" y="-87"/>
      <point x="1153" y="-86"/>
    </contour>
  </outline>
</glyph>
<glyph name="Oslash" format="2">
  <advance width="1820"/>
  <unicode hex="00D8"/>
  <anchor x="906" y="1500" name="Anchor-0"/>
  <anchor x="906" y="0" name="Anchor-1"/>
  <anchor x="906" y="0" name="Anchor-2"/>
  <outline>
    <contour>
      <point x="1155" y="1660" type="curve" smooth="yes"/>
      <point x="1273" y="1660" type="line" smooth="yes"/>
      <point x="1340" y="1660"/>
      <point x="1351" y="1657"/>
      <point x="1334" y="1605" type="curve" smooth="yes"/>
      <point x="745" y="-154" type="line" smooth="yes"/>
      <point x="732" y="-194"/>
      <point x="724" y="-200"/>
      <point x="669" y="-200" type="curve" smooth="yes"/>
      <point x="559" y="-200" type="line" smooth="yes"/>
      <point x="488" y="-200"/>
      <point x="472" y="-199"/>
      <point x="490" y="-146" type="curve" smooth="yes"/>
      <point x="1092" y="1624" type="line" smooth="yes"/>
      <point x="1103" y="1655"/>
      <point x="1111" y="1660"/>
    </contour>
    <component base="O"/>
  </outline>
</glyph>
<glyph name="oslash" format="2">
  <advance width="1296"/>
  <unicode hex="00F8"/>
  <anchor x="648" y="1040" name="Anchor-0"/>
  <anchor x="645" y="0" name="Anchor-1"/>
  <anchor x="645" y="0" name="Anchor-2"/>
  <outline>
    <contour>
      <point x="875" y="1215" type="curve" smooth="yes"/>
      <point x="993" y="1215" type="line" smooth="yes"/>
      <point x="1060" y="1215"/>
      <point x="1071" y="1212"/>
      <point x="1054" y="1173" type="curve" smooth="yes"/>
      <point x="465" y="-155" type="line" smooth="yes"/>
      <point x="452" y="-185"/>
      <point x="444" y="-189"/>
      <point x="389" y="-189" type="curve" smooth="yes"/>
      <point x="279" y="-189" type="line" smooth="yes"/>
      <point x="208" y="-189"/>
      <point x="192" y="-189"/>
      <point x="210" y="-149" type="curve" smooth="yes"/>
      <point x="812" y="1187" type="line" smooth="yes"/>
      <point x="823" y="1210"/>
      <point x="831" y="1215"/>
    </contour>
    <component base="o"/>
  </outline>
</glyph>
<glyph name="Dcroat" format="2">
  <advance width="1840"/>
  <unicode hex="0110"/>
  <anchor x="934" y="1500" name="Anchor-0"/>
  <anchor x="933" y="0" name="Anchor-1"/>
  <anchor x="933" y="0" name="Anchor-2"/>
  <outline>
    <contour>
      <point x="117" y="900" type="curve" smooth="yes"/>
      <point x="862" y="900" type="line" smooth="yes"/>
      <point x="900" y="900"/>
      <point x="903" y="893"/>
      <point x="903" y="861" type="curve" smooth="yes"/>
      <point x="903" y="711" type="line" smooth="yes"/>
      <point x="903" y="676"/>
      <point x="903" y="670"/>
      <point x="860" y="670" type="curve" smooth="yes"/>
      <point x="127" y="670" type="line" smooth="yes"/>
      <point x="83" y="670"/>
      <point x="76" y="675"/>
      <point x="76" y="710" type="curve" smooth="yes"/>
      <point x="76" y="859" type="line" smooth="yes"/>
      <point x="76" y="891"/>
      <point x="78" y="900"/>
    </contour>
    <component base="D"/>
  </outline>
</glyph>
<glyph name="OE" format="2">
  <advance width="2627"/>
  <unicode hex="0152"/>
  <anchor x="1793" y="1500" name="Anchor-0"/>
  <anchor x="1765" y="0" name="Anchor-1"/>
  <anchor x="1765" y="0" name="Anchor-2"/>
  <anchor x="2375" y="50" name="Anchor-3"/>
  <outline>
    <contour>
      <point x="1090" y="1500" type="line"/>
      <point x="1090" y="1230" type="line"/>
      <point x="940" y="1230" type="line" smooth="yes"/>
      <point x="732" y="1230"/>
      <point x="580" y="1114"/>
      <point x="580" y="750" type="curve" smooth="yes"/>
      <point x="580" y="386"/>
      <point x="752" y="270"/>
      <point x="940" y="270" type="curve" smooth="yes"/>
      <point x="1090" y="270" type="line"/>
      <point x="1090" y="0" type="line"/>
      <point x="870" y="0" type="line" smooth="yes"/>
      <point x="274" y="0"/>
      <point x="50" y="324"/>
      <point x="50" y="750" type="curve" smooth="yes"/>
      <point x="50" y="1176"/>
      <point x="294" y="1500"/>
      <point x="870" y="1500" type="curve" smooth="yes"/>
    </contour>
    <component base="E" xOffset="949"/>
  </outline>
</glyph>
<glyph name="Tbar" format="2">
  <advance width="1620"/>
  <unicode hex="0166"/>
  <anchor x="805" y="1500" name="Anchor-0"/>
  <anchor x="806" y="0" name="Anchor-1"/>
  <anchor x="806" y="0" name="Anchor-2"/>
  <outline>
    <contour>
      <point x="403" y="840" type="curve" smooth="yes"/>
      <point x="1221" y="840" type="line" smooth="yes"/>
      <point x="1262" y="840"/>
      <point x="1267" y="833"/>
      <point x="1267" y="801" type="curve" smooth="yes"/>
      <point x="1267" y="651" type="line" smooth="yes"/>
      <point x="1267" y="616"/>
      <point x="1266" y="610"/>
      <point x="1219" y="610" type="curve" smooth="yes"/>
      <point x="413" y="610" type="line" smooth="yes"/>
      <point x="365" y="610"/>
      <point x="357" y="615"/>
      <point x="357" y="650" type="curve" smooth="yes"/>
      <point x="357" y="799" type="line" smooth="yes"/>
      <point x="357" y="831"/>
      <point x="360" y="840"/>
    </contour>
    <component base="T"/>
  </outline>
</glyph>
<glyph name="tbar" format="2">
  <advance height="2309" width="966"/>
  <unicode hex="0167"/>
  <anchor x="522" y="1277" name="Anchor-0"/>
  <anchor x="712" y="1153" name="Anchor-1"/>
  <anchor x="535" y="0" name="Anchor-2"/>
  <anchor x="712" y="1153" name="Anchor-3"/>
  <outline>
    <contour>
      <point x="49" y="657" type="curve" smooth="yes"/>
      <point x="820" y="657" type="line" smooth="yes"/>
      <point x="859" y="657"/>
      <point x="863" y="650"/>
      <point x="863" y="618" type="curve" smooth="yes"/>
      <point x="863" y="468" type="line" smooth="yes"/>
      <point x="863" y="433"/>
      <point x="862" y="427"/>
      <point x="818" y="427" type="curve" smooth="yes"/>
      <point x="59" y="427" type="line" smooth="yes"/>
      <point x="14" y="427"/>
      <point x="6" y="432"/>
      <point x="6" y="467" type="curve" smooth="yes"/>
      <point x="6" y="616" type="line" smooth="yes"/>
      <point x="6" y="648"/>
      <point x="9" y="657"/>
    </contour>
    <component base="t"/>
  </outline>
</glyph>
<glyph name="ogonek" format="2">
  <advance width="1000"/>
  <unicode hex="02DB"/>
  <anchor x="511" y="47" name="_Anchor-2"/>
  <anchor x="511" y="47" name="_Anchor-3"/>
  <outline>
    <contour>
      <point x="444" y="-422" type="curve" smooth="yes"/>
      <point x="281" y="-422"/>
      <point x="178" y="-355"/>
      <point x="178" y="-240" type="curve" smooth="yes"/>
      <point x="178" y="-68"/>
      <point x="396" y="28"/>
      <point x="503" y="100" type="curve" smooth="yes"/>
      <point x="525" y="115"/>
      <point x="571" y="88"/>
      <point x="581" y="80" type="curve" smooth="yes"/>
      <point x="620" y="49"/>
      <point x="639" y="44"/>
      <point x="623" y="26" type="curve" smooth="yes"/>
      <point x="577" y="-26"/>
      <point x="464" y="-89"/>
      <point x="464" y="-170" type="curve" smooth="yes"/>
      <point x="464" y="-221"/>
      <point x="499" y="-235"/>
      <point x="549" y="-235" type="curve" smooth="yes"/>
      <point x="598" y="-235"/>
      <point x="625" y="-216"/>
      <point x="645" y="-194" type="curve" smooth="yes"/>
      <point x="657" y="-181"/>
      <point x="664" y="-179"/>
      <point x="674" y="-187" type="curve" smooth="yes"/>
      <point x="738" y="-237" type="line" smooth="yes"/>
      <point x="751" y="-246"/>
      <point x="750" y="-250"/>
      <point x="742" y="-265" type="curve" smooth="yes"/>
      <point x="702" y="-338"/>
      <point x="611" y="-422"/>
    </contour>
  </outline>
</glyph>
<glyph name="dieresiscomb" format="2">
  <unicode hex="0308"/>
  <anchor x="501" y="1500" name="_Anchor-0"/>
  <outline>
    <contour>
      <point x="780" y="1690" type="curve" smooth="yes"/>
      <point x="674" y="1690"/>
      <point x="588" y="1776"/>
      <point x="588" y="1882" type="curve" smooth="yes"/>
      <point x="588" y="1988"/>
      <point x="674" y="2074"/>
      <point x="780" y="2074" type="curve" smooth="yes"/>
      <point x="886" y="2074"/>
      <point x="972" y="1988"/>
      <point x="972" y="1882" type="curve" smooth="yes"/>
      <point x="972" y="1776"/>
      <point x="886" y="1690"/>
    </contour>
    <contour>
      <point x="220" y="1690" type="curve" smooth="yes"/>
      <point x="114" y="1690"/>
      <point x="28" y="1776"/>
      <point x="28" y="1882" type="curve" smooth="yes"/>
      <point x="28" y="1988"/>
      <point x="114" y="2074"/>
      <point x="220" y="2074" type="curve" smooth="yes"/>
      <point x="326" y="2074"/>
      <point x="412" y="1988"/>
      <point x="412" y="1882" type="curve" smooth="yes"/>
      <point x="412" y="1776"/>
      <point x="326" y="1690"/>
    </contour>
  </outline>
</glyph>
<glyph name="commaturnedabovecomb" format="2">
  <unicode hex="0312"/>
  <anchor x="497" y="920" name="_Anchor-0"/>
  <outline>
    <contour>
      <point x="712" y="1259" type="curve" smooth="yes"/>
      <point x="712" y="1142"/>
      <point x="610" y="1068"/>
      <point x="501" y="1068" type="curve" smooth="yes"/>
      <point x="367" y="1068"/>
      <point x="277" y="1157"/>
      <point x="277" y="1330" type="curve" smooth="yes"/>
      <point x="277" y="1554"/>
      <point x="506" y="1709"/>
      <point x="653" y="1728" type="curve" smooth="yes"/>
      <point x="676" y="1731"/>
      <point x="683" y="1728"/>
      <point x="683" y="1702" type="curve" smooth="yes"/>
      <point x="683" y="1607" type="line" smooth="yes"/>
      <point x="683" y="1591"/>
      <point x="677" y="1588"/>
      <point x="663" y="1586" type="curve" smooth="yes"/>
      <point x="567" y="1576"/>
      <point x="470" y="1498"/>
      <point x="437" y="1443" type="curve" smooth="yes"/>
      <point x="433" y="1437"/>
      <point x="439" y="1431"/>
      <point x="449" y="1435" type="curve" smooth="yes"/>
      <point x="467" y="1443"/>
      <point x="496" y="1449"/>
      <point x="531" y="1449" type="curve" smooth="yes"/>
      <point x="640" y="1449"/>
      <point x="712" y="1376"/>
    </contour>
  </outline>
</glyph>
<glyph name="Dje-cy" format="2">
  <advance width="2200"/>
  <unicode hex="0402"/>
  <anchor x="765" y="1500" name="Anchor-0"/>
  <anchor x="766" y="0" name="Anchor-1"/>
  <anchor x="766" y="0" name="Anchor-2"/>
  <outline>
    <contour>
      <point x="354" y="41" type="curve" smooth="yes"/>
      <point x="354" y="235" type="line" smooth="yes"/>
      <point x="354" y="267"/>
      <point x="366" y="270"/>
      <point x="396" y="270" type="curve" smooth="yes"/>
      <point x="540" y="270" type="line" smooth="yes"/>
      <point x="588" y="270"/>
      <point x="594" y="275"/>
      <point x="594" y="325" type="curve" smooth="yes"/>
      <point x="594" y="1195" type="line" smooth="yes"/>
      <point x="594" y="1233"/>
      <point x="587" y="1240"/>
      <point x="550" y="1240" type="curve" smooth="yes"/>
      <point x="540" y="1240" type="line" smooth="yes"/>
      <point x="368" y="1240"/>
      <point x="291" y="1162"/>
      <point x="285" y="981" type="curve" smooth="yes"/>
      <point x="284" y="950"/>
      <point x="281" y="940"/>
      <point x="247" y="940" type="curve" smooth="yes"/>
      <point x="79" y="940" type="line" smooth="yes"/>
      <point x="45" y="940"/>
      <point x="45" y="961"/>
      <point x="45" y="991" type="curve" smooth="yes"/>
      <point x="45" y="1447" type="line" smooth="yes"/>
      <point x="45" y="1493"/>
      <point x="48" y="1500"/>
      <point x="93" y="1500" type="curve" smooth="yes"/>
      <point x="1532" y="1500" type="line" smooth="yes"/>
      <point x="1571" y="1500"/>
      <point x="1574" y="1493"/>
      <point x="1574" y="1453" type="curve" smooth="yes"/>
      <point x="1574" y="971" type="line" smooth="yes"/>
      <point x="1574" y="942"/>
      <point x="1566" y="940"/>
      <point x="1536" y="940" type="curve" smooth="yes"/>
      <point x="1372" y="940" type="line" smooth="yes"/>
      <point x="1335" y="940"/>
      <point x="1334" y="955"/>
      <point x="1333" y="987" type="curve" smooth="yes"/>
      <point x="1326" y="1164"/>
      <point x="1260" y="1240"/>
      <point x="1090" y="1240" type="curve" smooth="yes"/>
      <point x="1064" y="1240" type="line" smooth="yes"/>
      <point x="1029" y="1240"/>
      <point x="1026" y="1233"/>
      <point x="1026" y="1197" type="curve" smooth="yes"/>
      <point x="1026" y="788" type="line" smooth="yes"/>
      <point x="1026" y="742"/>
      <point x="1030" y="746"/>
      <point x="1057" y="764" type="curve" smooth="yes"/>
      <point x="1174" y="842"/>
      <point x="1328" y="891"/>
      <point x="1471" y="891" type="curve" smooth="yes"/>
      <point x="1793" y="891"/>
      <point x="2085" y="738"/>
      <point x="2085" y="438" type="curve" smooth="yes"/>
      <point x="2085" y="138"/>
      <point x="1779" y="-19"/>
      <point x="1507" y="-19" type="curve" smooth="yes"/>
      <point x="1293" y="-19"/>
      <point x="1075" y="105"/>
      <point x="1075" y="319" type="curve" smooth="yes"/>
      <point x="1075" y="455"/>
      <point x="1205" y="561"/>
      <point x="1313" y="561" type="curve" smooth="yes"/>
      <point x="1437" y="561"/>
      <point x="1517" y="499"/>
      <point x="1517" y="395" type="curve" smooth="yes"/>
      <point x="1517" y="283"/>
      <point x="1433" y="233"/>
      <point x="1433" y="207" type="curve" smooth="yes"/>
      <point x="1433" y="183"/>
      <point x="1439" y="155"/>
      <point x="1507" y="155" type="curve" smooth="yes"/>
      <point x="1575" y="155"/>
      <point x="1623" y="213"/>
      <point x="1623" y="401" type="curve" smooth="yes"/>
      <point x="1623" y="669"/>
      <point x="1565" y="705"/>
      <point x="1437" y="705" type="curve" smooth="yes"/>
      <point x="1318" y="705"/>
      <point x="1187" y="671"/>
      <point x="1061" y="576" type="curve" smooth="yes"/>
      <point x="1037" y="558"/>
      <point x="1026" y="549"/>
      <point x="1026" y="504" type="curve" smooth="yes"/>
      <point x="1026" y="42" type="line" smooth="yes"/>
      <point x="1026" y="2"/>
      <point x="1004" y="0"/>
      <point x="968" y="0" type="curve" smooth="yes"/>
      <point x="400" y="0" type="line" smooth="yes"/>
      <point x="361" y="0"/>
      <point x="354" y="3"/>
    </contour>
  </outline>
</glyph>
<glyph name="Lje-cy" format="2">
  <advance width="2595"/>
  <unicode hex="0409"/>
  <outline>
    <contour>
      <point x="1806" y="270" type="curve" smooth="yes"/>
      <point x="1870" y="270" type="line" smooth="yes"/>
      <point x="2002" y="270"/>
      <point x="2090" y="322"/>
      <point x="2090" y="460" type="curve" smooth="yes"/>
      <point x="2090" y="598"/>
      <point x="2002" y="670"/>
      <point x="1870" y="670" type="curve" smooth="yes"/>
      <point x="1812" y="670" type="line" smooth="yes"/>
      <point x="1775" y="670"/>
      <point x="1770" y="664"/>
      <point x="1770" y="626" type="curve" smooth="yes"/>
      <point x="1770" y="314" type="line" smooth="yes"/>
      <point x="1770" y="279"/>
      <point x="1771" y="270"/>
    </contour>
    <contour>
      <point x="0" y="330" type="curve" smooth="yes"/>
      <point x="0" y="514"/>
      <point x="128" y="600"/>
      <point x="258" y="600" type="curve" smooth="yes"/>
      <point x="392" y="600"/>
      <point x="476" y="528"/>
      <point x="476" y="412" type="curve" smooth="yes"/>
      <point x="476" y="262"/>
      <point x="400" y="244"/>
      <point x="400" y="218" type="curve" smooth="yes"/>
      <point x="400" y="194"/>
      <point x="418" y="190"/>
      <point x="452" y="190" type="curve" smooth="yes"/>
      <point x="725" y="190"/>
      <point x="652" y="869"/>
      <point x="652" y="1172" type="curve" smooth="yes"/>
      <point x="652" y="1228"/>
      <point x="639" y="1230"/>
      <point x="583" y="1230" type="curve" smooth="yes"/>
      <point x="390" y="1230" type="line" smooth="yes"/>
      <point x="346" y="1230"/>
      <point x="332" y="1231"/>
      <point x="332" y="1278" type="curve" smooth="yes"/>
      <point x="332" y="1442" type="line" smooth="yes"/>
      <point x="332" y="1491"/>
      <point x="333" y="1500"/>
      <point x="382" y="1500" type="curve" smooth="yes"/>
      <point x="1984" y="1500" type="line" smooth="yes"/>
      <point x="2030" y="1500"/>
      <point x="2030" y="1490"/>
      <point x="2030" y="1444" type="curve" smooth="yes"/>
      <point x="2030" y="1280" type="line" smooth="yes"/>
      <point x="2030" y="1238"/>
      <point x="2028" y="1230"/>
      <point x="1986" y="1230" type="curve" smooth="yes"/>
      <point x="1822" y="1230" type="line" smooth="yes"/>
      <point x="1777" y="1230"/>
      <point x="1770" y="1226"/>
      <point x="1770" y="1182" type="curve" smooth="yes"/>
      <point x="1770" y="992" type="line" smooth="yes"/>
      <point x="1770" y="949"/>
      <point x="1771" y="940"/>
      <point x="1814" y="940" type="curve" smooth="yes"/>
      <point x="1910" y="940" type="line" smooth="yes"/>
      <point x="2272" y="940"/>
      <point x="2590" y="800"/>
      <point x="2590" y="460" type="curve" smooth="yes"/>
      <point x="2590" y="120"/>
      <point x="2272" y="0"/>
      <point x="1910" y="0" type="curve" smooth="yes"/>
      <point x="1136" y="0" type="line" smooth="yes"/>
      <point x="1091" y="0"/>
      <point x="1080" y="4"/>
      <point x="1080" y="52" type="curve" smooth="yes"/>
      <point x="1080" y="222" type="line" smooth="yes"/>
      <point x="1080" y="268"/>
      <point x="1088" y="270"/>
      <point x="1134" y="270" type="curve" smooth="yes"/>
      <point x="1244" y="270" type="line" smooth="yes"/>
      <point x="1291" y="270"/>
      <point x="1300" y="271"/>
      <point x="1300" y="318" type="curve" smooth="yes"/>
      <point x="1300" y="1166" type="line" smooth="yes"/>
      <point x="1300" y="1220"/>
      <point x="1298" y="1230"/>
      <point x="1242" y="1230" type="curve" smooth="yes"/>
      <point x="980" y="1230" type="line" smooth="yes"/>
      <point x="945" y="1230"/>
      <point x="942" y="1217"/>
      <point x="942" y="1181" type="curve" smooth="yes"/>
      <point x="942" y="494"/>
      <point x="991" y="-40"/>
      <point x="412" y="-40" type="curve" smooth="yes"/>
      <point x="168" y="-40"/>
      <point x="0" y="110"/>
    </contour>
  </outline>
</glyph>
<glyph name="Tshe-cy" format="2">
  <advance width="2135"/>
  <unicode hex="040B"/>
  <outline>
    <contour>
      <point x="354" y="41" type="curve" smooth="yes"/>
      <point x="354" y="235" type="line" smooth="yes"/>
      <point x="354" y="267"/>
      <point x="366" y="270"/>
      <point x="396" y="270" type="curve" smooth="yes"/>
      <point x="540" y="270" type="line" smooth="yes"/>
      <point x="588" y="270"/>
      <point x="594" y="275"/>
      <point x="594" y="325" type="curve" smooth="yes"/>
      <point x="594" y="1195" type="line" smooth="yes"/>
      <point x="594" y="1233"/>
      <point x="587" y="1240"/>
      <point x="550" y="1240" type="curve" smooth="yes"/>
      <point x="540" y="1240" type="line" smooth="yes"/>
      <point x="358" y="1240"/>
      <point x="291" y="1172"/>
      <point x="285" y="981" type="curve" smooth="yes"/>
      <point x="284" y="950"/>
      <point x="281" y="940"/>
      <point x="247" y="940" type="curve" smooth="yes"/>
      <point x="79" y="940" type="line" smooth="yes"/>
      <point x="45" y="940"/>
      <point x="45" y="961"/>
      <point x="45" y="991" type="curve" smooth="yes"/>
      <point x="45" y="1447" type="line" smooth="yes"/>
      <point x="45" y="1493"/>
      <point x="48" y="1500"/>
      <point x="93" y="1500" type="curve" smooth="yes"/>
      <point x="1533" y="1500" type="line" smooth="yes"/>
      <point x="1572" y="1500"/>
      <point x="1575" y="1493"/>
      <point x="1575" y="1453" type="curve" smooth="yes"/>
      <point x="1575" y="971" type="line" smooth="yes"/>
      <point x="1575" y="942"/>
      <point x="1567" y="940"/>
      <point x="1537" y="940" type="curve" smooth="yes"/>
      <point x="1368" y="940" type="line" smooth="yes"/>
      <point x="1331" y="940"/>
      <point x="1330" y="955"/>
      <point x="1329" y="987" type="curve" smooth="yes"/>
      <point x="1322" y="1184"/>
      <point x="1260" y="1240"/>
      <point x="1070" y="1240" type="curve" smooth="yes"/>
      <point x="1064" y="1240" type="line" smooth="yes"/>
      <point x="1029" y="1240"/>
      <point x="1026" y="1233"/>
      <point x="1026" y="1197" type="curve" smooth="yes"/>
      <point x="1026" y="863" type="line" smooth="yes"/>
      <point x="1026" y="787"/>
      <point x="1028" y="769"/>
      <point x="1069" y="800" type="curve" smooth="yes"/>
      <point x="1171" y="877"/>
      <point x="1311" y="926"/>
      <point x="1470" y="926" type="curve" smooth="yes"/>
      <point x="1796" y="926"/>
      <point x="1940" y="782"/>
      <point x="1940" y="436" type="curve" smooth="yes"/>
      <point x="1940" y="309" type="line" smooth="yes"/>
      <point x="1940" y="277"/>
      <point x="1949" y="270"/>
      <point x="1979" y="270" type="curve" smooth="yes"/>
      <point x="2085" y="270" type="line" smooth="yes"/>
      <point x="2119" y="270"/>
      <point x="2120" y="259"/>
      <point x="2120" y="224" type="curve" smooth="yes"/>
      <point x="2120" y="38" type="line" smooth="yes"/>
      <point x="2120" y="6"/>
      <point x="2110" y="0"/>
      <point x="2080" y="0" type="curve" smooth="yes"/>
      <point x="1400" y="0" type="line" smooth="yes"/>
      <point x="1373" y="0"/>
      <point x="1360" y="3"/>
      <point x="1360" y="32" type="curve" smooth="yes"/>
      <point x="1360" y="232" type="line" smooth="yes"/>
      <point x="1360" y="264"/>
      <point x="1366" y="270"/>
      <point x="1397" y="270" type="curve" smooth="yes"/>
      <point x="1461" y="270" type="line" smooth="yes"/>
      <point x="1495" y="270"/>
      <point x="1500" y="277"/>
      <point x="1500" y="313" type="curve" smooth="yes"/>
      <point x="1500" y="386" type="line" smooth="yes"/>
      <point x="1500" y="550"/>
      <point x="1478" y="616"/>
      <point x="1320" y="616" type="curve" smooth="yes"/>
      <point x="1225" y="616"/>
      <point x="1155" y="571"/>
      <point x="1072" y="504" type="curve" smooth="yes"/>
      <point x="1043" y="481"/>
      <point x="1026" y="456"/>
      <point x="1026" y="402" type="curve" smooth="yes"/>
      <point x="1026" y="327" type="line" smooth="yes"/>
      <point x="1026" y="276"/>
      <point x="1031" y="270"/>
      <point x="1080" y="270" type="curve" smooth="yes"/>
      <point x="1224" y="270" type="line" smooth="yes"/>
      <point x="1264" y="270"/>
      <point x="1266" y="262"/>
      <point x="1266" y="221" type="curve" smooth="yes"/>
      <point x="1266" y="42" type="line" smooth="yes"/>
      <point x="1266" y="2"/>
      <point x="1244" y="0"/>
      <point x="1208" y="0" type="curve" smooth="yes"/>
      <point x="400" y="0" type="line" smooth="yes"/>
      <point x="361" y="0"/>
      <point x="354" y="3"/>
    </contour>
  </outline>
</glyph>
<glyph name="Dzhe-cy" format="2">
  <advance width="2020"/>
  <unicode hex="040F"/>
  <anchor x="1006" y="1500" name="Anchor-0"/>
  <anchor x="1006" y="0" name="Anchor-1"/>
  <anchor x="1006" y="0" name="Anchor-2"/>
  <outline>
    <contour>
      <point x="740" y="332" type="line" smooth="yes"/>
      <point x="740" y="290"/>
      <point x="741" y="270"/>
      <point x="783" y="270" type="curve" smooth="yes"/>
      <point x="1241" y="270" type="line" smooth="yes"/>
      <point x="1275" y="270"/>
      <point x="1280" y="287"/>
      <point x="1280" y="323" type="curve" smooth="yes"/>
      <point x="1280" y="1180" type="line" smooth="yes"/>
      <point x="1280" y="1211"/>
      <point x="1275" y="1230"/>
      <point x="1242" y="1230" type="curve" smooth="yes"/>
      <point x="1113" y="1230" type="line" smooth="yes"/>
      <point x="1086" y="1230"/>
      <point x="1080" y="1240"/>
      <point x="1080" y="1269" type="curve" smooth="yes"/>
      <point x="1080" y="1445" type="line" smooth="yes"/>
      <point x="1080" y="1490"/>
      <point x="1086" y="1500"/>
      <point x="1130" y="1500" type="curve" smooth="yes"/>
      <point x="1930" y="1500" type="line" smooth="yes"/>
      <point x="1963" y="1500"/>
      <point x="1970" y="1490"/>
      <point x="1970" y="1455" type="curve" smooth="yes"/>
      <point x="1970" y="1277" type="line" smooth="yes"/>
      <point x="1970" y="1241"/>
      <point x="1964" y="1230"/>
      <point x="1929" y="1230" type="curve" smooth="yes"/>
      <point x="1791" y="1230" type="line" smooth="yes"/>
      <point x="1759" y="1230"/>
      <point x="1750" y="1218"/>
      <point x="1750" y="1186" type="curve" smooth="yes"/>
      <point x="1750" y="309" type="line" smooth="yes"/>
      <point x="1750" y="277"/>
      <point x="1759" y="270"/>
      <point x="1789" y="270" type="curve" smooth="yes"/>
      <point x="1935" y="270" type="line" smooth="yes"/>
      <point x="1969" y="270"/>
      <point x="1970" y="249"/>
      <point x="1970" y="214" type="curve" smooth="yes"/>
      <point x="1970" y="48" type="line" smooth="yes"/>
      <point x="1970" y="16"/>
      <point x="1960" y="0"/>
      <point x="1930" y="0" type="curve" smooth="yes"/>
      <point x="1466" y="0" type="line" smooth="yes"/>
      <point x="1203" y="0"/>
      <point x="1127" y="-93"/>
      <point x="1127" y="-379" type="curve" smooth="yes"/>
      <point x="1127" y="-408"/>
      <point x="1109" y="-410"/>
      <point x="1078" y="-410" type="curve" smooth="yes"/>
      <point x="934" y="-410" type="line" smooth="yes"/>
      <point x="904" y="-410"/>
      <point x="886" y="-408"/>
      <point x="886" y="-379" type="curve" smooth="yes"/>
      <point x="886" y="-93"/>
      <point x="810" y="0"/>
      <point x="547" y="0" type="curve" smooth="yes"/>
      <point x="90" y="0" type="line" smooth="yes"/>
      <point x="58" y="0"/>
      <point x="50" y="14"/>
      <point x="50" y="48" type="curve" smooth="yes"/>
      <point x="50" y="226" type="line" smooth="yes"/>
      <point x="50" y="254"/>
      <point x="59" y="270"/>
      <point x="89" y="270" type="curve" smooth="yes"/>
      <point x="215" y="270" type="line" smooth="yes"/>
      <point x="259" y="270"/>
      <point x="270" y="272"/>
      <point x="270" y="316" type="curve" smooth="yes"/>
      <point x="270" y="1186" type="line" smooth="yes"/>
      <point x="270" y="1214"/>
      <point x="263" y="1230"/>
      <point x="233" y="1230" type="curve" smooth="yes"/>
      <point x="94" y="1230" type="line" smooth="yes"/>
      <point x="67" y="1230"/>
      <point x="50" y="1238"/>
      <point x="50" y="1267" type="curve" smooth="yes"/>
      <point x="50" y="1451" type="line" smooth="yes"/>
      <point x="50" y="1493"/>
      <point x="66" y="1500"/>
      <point x="105" y="1500" type="curve" smooth="yes"/>
      <point x="900" y="1500" type="line" smooth="yes"/>
      <point x="936" y="1500"/>
      <point x="940" y="1488"/>
      <point x="940" y="1451" type="curve" smooth="yes"/>
      <point x="940" y="1271" type="line" smooth="yes"/>
      <point x="940" y="1243"/>
      <point x="938" y="1230"/>
      <point x="911" y="1230" type="curve" smooth="yes"/>
      <point x="782" y="1230" type="line" smooth="yes"/>
      <point x="743" y="1230"/>
      <point x="740" y="1207"/>
      <point x="740" y="1170" type="curve" smooth="yes"/>
    </contour>
  </outline>
</glyph>
<glyph name="Be-cy" format="2">
  <advance width="1655"/>
  <unicode hex="0411"/>
  <outline>
    <contour>
      <point x="785" y="570" type="line" smooth="yes"/>
      <point x="743" y="570"/>
      <point x="735" y="568"/>
      <point x="735" y="526" type="curve" smooth="yes"/>
      <point x="735" y="309" type="line" smooth="yes"/>
      <point x="735" y="282"/>
      <point x="738" y="270"/>
      <point x="764" y="270" type="curve" smooth="yes"/>
      <point x="945" y="270" type="line" smooth="yes"/>
      <point x="1107" y="270"/>
      <point x="1175" y="322"/>
      <point x="1175" y="430" type="curve" smooth="yes"/>
      <point x="1175" y="538"/>
      <point x="1107" y="570"/>
      <point x="945" y="570" type="curve" smooth="yes"/>
    </contour>
    <contour>
      <point x="238" y="270" type="line" smooth="yes"/>
      <point x="262" y="270"/>
      <point x="270" y="273"/>
      <point x="270" y="296" type="curve" smooth="yes"/>
      <point x="270" y="1182" type="line" smooth="yes"/>
      <point x="270" y="1220"/>
      <point x="265" y="1230"/>
      <point x="224" y="1230" type="curve" smooth="yes"/>
      <point x="82" y="1230" type="line" smooth="yes"/>
      <point x="57" y="1230"/>
      <point x="50" y="1234"/>
      <point x="50" y="1258" type="curve" smooth="yes"/>
      <point x="50" y="1454" type="line" smooth="yes"/>
      <point x="50" y="1498"/>
      <point x="63" y="1500"/>
      <point x="104" y="1500" type="curve" smooth="yes"/>
      <point x="1536" y="1500" type="line" smooth="yes"/>
      <point x="1557" y="1500"/>
      <point x="1560" y="1493"/>
      <point x="1560" y="1471" type="curve" smooth="yes"/>
      <point x="1560" y="890" type="line" smooth="yes"/>
      <point x="1560" y="871"/>
      <point x="1551" y="870"/>
      <point x="1532" y="870" type="curve" smooth="yes"/>
      <point x="1325" y="870" type="line" smooth="yes"/>
      <point x="1305" y="870"/>
      <point x="1305" y="875"/>
      <point x="1305" y="894" type="curve" smooth="yes"/>
      <point x="1302" y="1153"/>
      <point x="1234" y="1230"/>
      <point x="1005" y="1230" type="curve" smooth="yes"/>
      <point x="793" y="1230" type="line" smooth="yes"/>
      <point x="739" y="1230"/>
      <point x="735" y="1222"/>
      <point x="735" y="1167" type="curve" smooth="yes"/>
      <point x="735" y="886" type="line" smooth="yes"/>
      <point x="735" y="831"/>
      <point x="744" y="830"/>
      <point x="799" y="830" type="curve" smooth="yes"/>
      <point x="995" y="830" type="line" smooth="yes"/>
      <point x="1427" y="830"/>
      <point x="1650" y="710"/>
      <point x="1650" y="420" type="curve" smooth="yes"/>
      <point x="1650" y="160"/>
      <point x="1427" y="0"/>
      <point x="995" y="0" type="curve" smooth="yes"/>
      <point x="87" y="0" type="line" smooth="yes"/>
      <point x="58" y="0"/>
      <point x="50" y="5"/>
      <point x="50" y="36" type="curve" smooth="yes"/>
      <point x="50" y="237" type="line" smooth="yes"/>
      <point x="50" y="261"/>
      <point x="51" y="270"/>
      <point x="75" y="270" type="curve" smooth="yes"/>
    </contour>
  </outline>
</glyph>
<glyph name="De-cy" format="2">
  <advance height="2080" width="1815"/>
  <unicode hex="0414"/>
  <outline>
    <contour>
      <point x="737" y="1230" type="line" smooth="yes"/>
      <point x="694" y="1230"/>
      <point x="692" y="1222"/>
      <point x="692" y="1178" type="curve" smooth="yes"/>
      <point x="692" y="770"/>
      <point x="670" y="468"/>
      <point x="523" y="324" type="curve" smooth="yes"/>
      <point x="467" y="269"/>
      <point x="467" y="270"/>
      <point x="551" y="270" type="curve" smooth="yes"/>
      <point x="992" y="270" type="line" smooth="yes"/>
      <point x="1027" y="270"/>
      <point x="1060" y="274"/>
      <point x="1060" y="320" type="curve" smooth="yes"/>
      <point x="1060" y="1196" type="line" smooth="yes"/>
      <point x="1060" y="1222"/>
      <point x="1060" y="1230"/>
      <point x="1030" y="1230" type="curve" smooth="yes"/>
    </contour>
    <contour>
      <point x="1530" y="1194" type="curve" smooth="yes"/>
      <point x="1530" y="314" type="line" smooth="yes"/>
      <point x="1530" y="281"/>
      <point x="1539" y="270"/>
      <point x="1568" y="270" type="curve" smooth="yes"/>
      <point x="1748" y="270" type="line" smooth="yes"/>
      <point x="1767" y="270"/>
      <point x="1770" y="257"/>
      <point x="1770" y="238" type="curve" smooth="yes"/>
      <point x="1770" y="-379" type="line" smooth="yes"/>
      <point x="1770" y="-408"/>
      <point x="1762" y="-410"/>
      <point x="1732" y="-410" type="curve" smooth="yes"/>
      <point x="1568" y="-410" type="line" smooth="yes"/>
      <point x="1531" y="-410"/>
      <point x="1530" y="-395"/>
      <point x="1529" y="-363" type="curve" smooth="yes"/>
      <point x="1522" y="-86"/>
      <point x="1450" y="0"/>
      <point x="1190" y="0" type="curve" smooth="yes"/>
      <point x="580" y="0" type="line" smooth="yes"/>
      <point x="318" y="0"/>
      <point x="246" y="-88"/>
      <point x="240" y="-369" type="curve" smooth="yes"/>
      <point x="239" y="-400"/>
      <point x="236" y="-410"/>
      <point x="202" y="-410" type="curve" smooth="yes"/>
      <point x="34" y="-410" type="line" smooth="yes"/>
      <point x="0" y="-410"/>
      <point x="0" y="-389"/>
      <point x="0" y="-359" type="curve" smooth="yes"/>
      <point x="0" y="242" type="line" smooth="yes"/>
      <point x="0" y="263"/>
      <point x="8" y="270"/>
      <point x="46" y="270" type="curve" smooth="yes"/>
      <point x="409" y="270"/>
      <point x="432" y="738"/>
      <point x="432" y="1171" type="curve" smooth="yes"/>
      <point x="432" y="1216"/>
      <point x="430" y="1230"/>
      <point x="385" y="1230" type="curve" smooth="yes"/>
      <point x="247" y="1230" type="line" smooth="yes"/>
      <point x="205" y="1230"/>
      <point x="202" y="1237"/>
      <point x="202" y="1280" type="curve" smooth="yes"/>
      <point x="202" y="1460" type="line" smooth="yes"/>
      <point x="202" y="1499"/>
      <point x="216" y="1500"/>
      <point x="252" y="1500" type="curve" smooth="yes"/>
      <point x="1734" y="1500" type="line" smooth="yes"/>
      <point x="1764" y="1500"/>
      <point x="1770" y="1497"/>
      <point x="1770" y="1466" type="curve" smooth="yes"/>
      <point x="1770" y="1272" type="line" smooth="yes"/>
      <point x="1770" y="1237"/>
      <point x="1753" y="1230"/>
      <point x="1728" y="1230" type="curve" smooth="yes"/>
      <point x="1568" y="1230" type="line" smooth="yes"/>
      <point x="1536" y="1230"/>
      <point x="1530" y="1227"/>
    </contour>
  </outline>
</glyph>
<glyph name="Hardsign-cy" format="2">
  <advance width="1965"/>
  <unicode hex="042A"/>
  <outline>
    <contour>
      <point x="1182" y="670" type="line" smooth="yes"/>
      <point x="1145" y="670"/>
      <point x="1140" y="664"/>
      <point x="1140" y="626" type="curve" smooth="yes"/>
      <point x="1140" y="314" type="line" smooth="yes"/>
      <point x="1140" y="279"/>
      <point x="1141" y="270"/>
      <point x="1176" y="270" type="curve" smooth="yes"/>
      <point x="1240" y="270" type="line" smooth="yes"/>
      <point x="1372" y="270"/>
      <point x="1460" y="322"/>
      <point x="1460" y="460" type="curve" smooth="yes"/>
      <point x="1460" y="598"/>
      <point x="1372" y="670"/>
      <point x="1240" y="670" type="curve" smooth="yes"/>
    </contour>
    <contour>
      <point x="614" y="270" type="line" smooth="yes"/>
      <point x="661" y="270"/>
      <point x="670" y="271"/>
      <point x="670" y="318" type="curve" smooth="yes"/>
      <point x="670" y="1166" type="line" smooth="yes"/>
      <point x="670" y="1216"/>
      <point x="669" y="1229"/>
      <point x="623" y="1230" type="curve" smooth="yes"/>
      <point x="531" y="1230" type="line" smooth="yes"/>
      <point x="361" y="1230"/>
      <point x="297" y="1157"/>
      <point x="291" y="927" type="curve" smooth="yes"/>
      <point x="290" y="879"/>
      <point x="276" y="870"/>
      <point x="224" y="870" type="curve" smooth="yes"/>
      <point x="103" y="870" type="line" smooth="yes"/>
      <point x="64" y="870"/>
      <point x="50" y="872"/>
      <point x="50" y="911" type="curve" smooth="yes"/>
      <point x="50" y="1442" type="line" smooth="yes"/>
      <point x="50" y="1485"/>
      <point x="51" y="1500"/>
      <point x="94" y="1500" type="curve" smooth="yes"/>
      <point x="1354" y="1500" type="line" smooth="yes"/>
      <point x="1400" y="1500"/>
      <point x="1400" y="1490"/>
      <point x="1400" y="1444" type="curve" smooth="yes"/>
      <point x="1400" y="1280" type="line" smooth="yes"/>
      <point x="1400" y="1238"/>
      <point x="1398" y="1230"/>
      <point x="1356" y="1230" type="curve" smooth="yes"/>
      <point x="1192" y="1230" type="line" smooth="yes"/>
      <point x="1147" y="1230"/>
      <point x="1140" y="1226"/>
      <point x="1140" y="1182" type="curve" smooth="yes"/>
      <point x="1140" y="992" type="line" smooth="yes"/>
      <point x="1140" y="949"/>
      <point x="1141" y="940"/>
      <point x="1184" y="940" type="curve" smooth="yes"/>
      <point x="1280" y="940" type="line" smooth="yes"/>
      <point x="1642" y="940"/>
      <point x="1960" y="800"/>
      <point x="1960" y="460" type="curve" smooth="yes"/>
      <point x="1960" y="120"/>
      <point x="1642" y="0"/>
      <point x="1280" y="0" type="curve" smooth="yes"/>
      <point x="506" y="0" type="line" smooth="yes"/>
      <point x="461" y="0"/>
      <point x="450" y="4"/>
      <point x="450" y="52" type="curve" smooth="yes"/>
      <point x="450" y="222" type="line" smooth="yes"/>
      <point x="450" y="268"/>
      <point x="458" y="270"/>
      <point x="504" y="270" type="curve" smooth="yes"/>
    </contour>
  </outline>
</glyph>
<glyph name="Yeru-cy" format="2">
  <advance width="2545"/>
  <unicode hex="042B"/>
  <outline>
    <contour>
      <point x="2235" y="1178" type="curve" smooth="yes"/>
      <point x="2235" y="314" type="line" smooth="yes"/>
      <point x="2235" y="271"/>
      <point x="2245" y="270"/>
      <point x="2289" y="270" type="curve" smooth="yes"/>
      <point x="2447" y="270" type="line" smooth="yes"/>
      <point x="2480" y="270"/>
      <point x="2495" y="269"/>
      <point x="2495" y="236" type="curve" smooth="yes"/>
      <point x="2495" y="50" type="line" smooth="yes"/>
      <point x="2495" y="5"/>
      <point x="2489" y="0"/>
      <point x="2445" y="0" type="curve" smooth="yes"/>
      <point x="1575" y="0" type="line" smooth="yes"/>
      <point x="1529" y="0"/>
      <point x="1525" y="9"/>
      <point x="1525" y="56" type="curve" smooth="yes"/>
      <point x="1525" y="221" type="line" smooth="yes"/>
      <point x="1525" y="266"/>
      <point x="1538" y="270"/>
      <point x="1580" y="270" type="curve" smooth="yes"/>
      <point x="1718" y="270" type="line" smooth="yes"/>
      <point x="1756" y="270"/>
      <point x="1765" y="276"/>
      <point x="1765" y="317" type="curve" smooth="yes"/>
      <point x="1765" y="1176" type="line" smooth="yes"/>
      <point x="1765" y="1219"/>
      <point x="1763" y="1230"/>
      <point x="1720" y="1230" type="curve" smooth="yes"/>
      <point x="1578" y="1230" type="line" smooth="yes"/>
      <point x="1537" y="1230"/>
      <point x="1525" y="1234"/>
      <point x="1525" y="1278" type="curve" smooth="yes"/>
      <point x="1525" y="1443" type="line" smooth="yes"/>
      <point x="1525" y="1491"/>
      <point x="1527" y="1500"/>
      <point x="1575" y="1500" type="curve" smooth="yes"/>
      <point x="2441" y="1500" type="line" smooth="yes"/>
      <point x="2489" y="1500"/>
      <point x="2495" y="1489"/>
      <point x="2495" y="1444" type="curve" smooth="yes"/>
      <point x="2495" y="1284" type="line" smooth="yes"/>
      <point x="2495" y="1236"/>
      <point x="2488" y="1230"/>
      <point x="2442" y="1230" type="curve" smooth="yes"/>
      <point x="2285" y="1230" type="line" smooth="yes"/>
      <point x="2241" y="1230"/>
      <point x="2235" y="1220"/>
    </contour>
    <contour>
      <point x="194" y="270" type="line" smooth="yes"/>
      <point x="241" y="270"/>
      <point x="250" y="271"/>
      <point x="250" y="318" type="curve" smooth="yes"/>
      <point x="250" y="1166" type="line" smooth="yes"/>
      <point x="250" y="1220"/>
      <point x="248" y="1230"/>
      <point x="192" y="1230" type="curve" smooth="yes"/>
      <point x="76" y="1230" type="line" smooth="yes"/>
      <point x="34" y="1230"/>
      <point x="30" y="1237"/>
      <point x="30" y="1280" type="curve" smooth="yes"/>
      <point x="30" y="1454" type="line" smooth="yes"/>
      <point x="30" y="1496"/>
      <point x="38" y="1500"/>
      <point x="78" y="1500" type="curve" smooth="yes"/>
      <point x="934" y="1500" type="line" smooth="yes"/>
      <point x="980" y="1500"/>
      <point x="980" y="1490"/>
      <point x="980" y="1444" type="curve" smooth="yes"/>
      <point x="980" y="1280" type="line" smooth="yes"/>
      <point x="980" y="1238"/>
      <point x="978" y="1230"/>
      <point x="936" y="1230" type="curve" smooth="yes"/>
      <point x="772" y="1230" type="line" smooth="yes"/>
      <point x="727" y="1230"/>
      <point x="720" y="1226"/>
      <point x="720" y="1182" type="curve" smooth="yes"/>
      <point x="720" y="992" type="line" smooth="yes"/>
      <point x="720" y="949"/>
      <point x="721" y="940"/>
      <point x="764" y="940" type="curve" smooth="yes"/>
      <point x="820" y="940" type="line" smooth="yes"/>
      <point x="1182" y="940"/>
      <point x="1500" y="800"/>
      <point x="1500" y="460" type="curve" smooth="yes"/>
      <point x="1500" y="120"/>
      <point x="1182" y="0"/>
      <point x="820" y="0" type="curve" smooth="yes"/>
      <point x="86" y="0" type="line" smooth="yes"/>
      <point x="41" y="0"/>
      <point x="30" y="4"/>
      <point x="30" y="52" type="curve" smooth="yes"/>
      <point x="30" y="222" type="line" smooth="yes"/>
      <point x="30" y="268"/>
      <point x="38" y="270"/>
      <point x="84" y="270" type="curve" smooth="yes"/>
    </contour>
    <contour>
      <point x="762" y="670" type="line" smooth="yes"/>
      <point x="725" y="670"/>
      <point x="720" y="664"/>
      <point x="720" y="626" type="curve" smooth="yes"/>
      <point x="720" y="314" type="line" smooth="yes"/>
      <point x="720" y="279"/>
      <point x="721" y="270"/>
      <point x="756" y="270" type="curve" smooth="yes"/>
      <point x="780" y="270" type="line" smooth="yes"/>
      <point x="912" y="270"/>
      <point x="1000" y="322"/>
      <point x="1000" y="460" type="curve" smooth="yes"/>
      <point x="1000" y="598"/>
      <point x="912" y="670"/>
      <point x="780" y="670" type="curve" smooth="yes"/>
    </contour>
  </outline>
</glyph>
<glyph name="Softsign-cy" format="2">
  <advance width="1545"/>
  <unicode hex="042C"/>
  <outline>
    <contour>
      <point x="194" y="270" type="line" smooth="yes"/>
      <point x="241" y="270"/>
      <point x="250" y="271"/>
      <point x="250" y="318" type="curve" smooth="yes"/>
      <point x="250" y="1166" type="line" smooth="yes"/>
      <point x="250" y="1220"/>
      <point x="248" y="1230"/>
      <point x="192" y="1230" type="curve" smooth="yes"/>
      <point x="76" y="1230" type="line" smooth="yes"/>
      <point x="34" y="1230"/>
      <point x="30" y="1237"/>
      <point x="30" y="1280" type="curve" smooth="yes"/>
      <point x="30" y="1454" type="line" smooth="yes"/>
      <point x="30" y="1496"/>
      <point x="38" y="1500"/>
      <point x="78" y="1500" type="curve" smooth="yes"/>
      <point x="934" y="1500" type="line" smooth="yes"/>
      <point x="980" y="1500"/>
      <point x="980" y="1490"/>
      <point x="980" y="1444" type="curve" smooth="yes"/>
      <point x="980" y="1280" type="line" smooth="yes"/>
      <point x="980" y="1238"/>
      <point x="978" y="1230"/>
      <point x="936" y="1230" type="curve" smooth="yes"/>
      <point x="772" y="1230" type="line" smooth="yes"/>
      <point x="727" y="1230"/>
      <point x="720" y="1226"/>
      <point x="720" y="1182" type="curve" smooth="yes"/>
      <point x="720" y="992" type="line" smooth="yes"/>
      <point x="720" y="949"/>
      <point x="721" y="940"/>
      <point x="764" y="940" type="curve" smooth="yes"/>
      <point x="860" y="940" type="line" smooth="yes"/>
      <point x="1222" y="940"/>
      <point x="1540" y="800"/>
      <point x="1540" y="460" type="curve" smooth="yes"/>
      <point x="1540" y="120"/>
      <point x="1222" y="0"/>
      <point x="860" y="0" type="curve" smooth="yes"/>
      <point x="86" y="0" type="line" smooth="yes"/>
      <point x="41" y="0"/>
      <point x="30" y="4"/>
      <point x="30" y="52" type="curve" smooth="yes"/>
      <point x="30" y="222" type="line" smooth="yes"/>
      <point x="30" y="268"/>
      <point x="38" y="270"/>
      <point x="84" y="270" type="curve" smooth="yes"/>
    </contour>
    <contour>
      <point x="762" y="670" type="line" smooth="yes"/>
      <point x="725" y="670"/>
      <point x="720" y="664"/>
      <point x="720" y="626" type="curve" smooth="yes"/>
      <point x="720" y="314" type="line" smooth="yes"/>
      <point x="720" y="279"/>
      <point x="721" y="270"/>
      <point x="756" y="270" type="curve" smooth="yes"/>
      <point x="820" y="270" type="line" smooth="yes"/>
      <point x="952" y="270"/>
      <point x="1040" y="322"/>
      <point x="1040" y="460" type="curve" smooth="yes"/>
      <point x="1040" y="598"/>
      <point x="952" y="670"/>
      <point x="820" y="670" type="curve" smooth="yes"/>
    </contour>
  </outline>
</glyph>
<glyph name="Yu-cy" format="2">
  <advance width="2800"/>
  <unicode hex="042E"/>
  <outline>
    <contour>
      <point x="1570" y="750" type="curve" smooth="yes"/>
      <point x="1570" y="426"/>
      <point x="1662" y="220"/>
      <point x="1890" y="220" type="curve" smooth="yes"/>
      <point x="2138" y="220"/>
      <point x="2210" y="426"/>
      <point x="2210" y="750" type="curve" smooth="yes"/>
      <point x="2210" y="1074"/>
      <point x="2118" y="1280"/>
      <point x="1890" y="1280" type="curve" smooth="yes"/>
      <point x="1662" y="1280"/>
      <point x="1570" y="1074"/>
    </contour>
    <contour>
      <point x="822" y="870" type="curve" smooth="yes"/>
      <point x="1020" y="870" type="line" smooth="yes"/>
      <point x="1066" y="870"/>
      <point x="1058" y="883"/>
      <point x="1065" y="920" type="curve" smooth="yes"/>
      <point x="1133" y="1293"/>
      <point x="1431" y="1540"/>
      <point x="1890" y="1540" type="curve" smooth="yes"/>
      <point x="2416" y="1540"/>
      <point x="2730" y="1216"/>
      <point x="2730" y="750" type="curve" smooth="yes"/>
      <point x="2730" y="284"/>
      <point x="2396" y="-40"/>
      <point x="1890" y="-40" type="curve" smooth="yes"/>
      <point x="1429" y="-40"/>
      <point x="1130" y="209"/>
      <point x="1064" y="585" type="curve" smooth="yes"/>
      <point x="1059" y="612"/>
      <point x="1064" y="620"/>
      <point x="1030" y="620" type="curve" smooth="yes"/>
      <point x="834" y="620" type="line" smooth="yes"/>
      <point x="786" y="620"/>
      <point x="785" y="621"/>
      <point x="785" y="572" type="curve" smooth="yes"/>
      <point x="785" y="314" type="line" smooth="yes"/>
      <point x="785" y="271"/>
      <point x="795" y="270"/>
      <point x="839" y="270" type="curve" smooth="yes"/>
      <point x="997" y="270" type="line" smooth="yes"/>
      <point x="1030" y="270"/>
      <point x="1045" y="269"/>
      <point x="1045" y="236" type="curve" smooth="yes"/>
      <point x="1045" y="50" type="line" smooth="yes"/>
      <point x="1045" y="5"/>
      <point x="1039" y="0"/>
      <point x="995" y="0" type="curve" smooth="yes"/>
      <point x="125" y="0" type="line" smooth="yes"/>
      <point x="79" y="0"/>
      <point x="75" y="9"/>
      <point x="75" y="56" type="curve" smooth="yes"/>
      <point x="75" y="221" type="line" smooth="yes"/>
      <point x="75" y="266"/>
      <point x="88" y="270"/>
      <point x="130" y="270" type="curve" smooth="yes"/>
      <point x="268" y="270" type="line" smooth="yes"/>
      <point x="306" y="270"/>
      <point x="315" y="276"/>
      <point x="315" y="317" type="curve" smooth="yes"/>
      <point x="315" y="1176" type="line" smooth="yes"/>
      <point x="315" y="1219"/>
      <point x="313" y="1230"/>
      <point x="270" y="1230" type="curve" smooth="yes"/>
      <point x="128" y="1230" type="line" smooth="yes"/>
      <point x="87" y="1230"/>
      <point x="75" y="1234"/>
      <point x="75" y="1278" type="curve" smooth="yes"/>
      <point x="75" y="1443" type="line" smooth="yes"/>
      <point x="75" y="1491"/>
      <point x="77" y="1500"/>
      <point x="125" y="1500" type="curve" smooth="yes"/>
      <point x="991" y="1500" type="line" smooth="yes"/>
      <point x="1039" y="1500"/>
      <point x="1045" y="1489"/>
      <point x="1045" y="1444" type="curve" smooth="yes"/>
      <point x="1045" y="1284" type="line" smooth="yes"/>
      <point x="1045" y="1236"/>
      <point x="1038" y="1230"/>
      <point x="992" y="1230" type="curve" smooth="yes"/>
      <point x="835" y="1230" type="line" smooth="yes"/>
      <point x="791" y="1230"/>
      <point x="785" y="1220"/>
      <point x="785" y="1178" type="curve" smooth="yes"/>
      <point x="785" y="910" type="line" smooth="yes"/>
      <point x="785" y="872"/>
      <point x="783" y="870"/>
    </contour>
  </outline>
</glyph>
<glyph name="be-cy" format="2">
  <advance height="2310" width="1306"/>
  <unicode hex="0431"/>
  <anchor x="655" y="0" name="Anchor-1"/>
  <anchor x="655" y="0" name="Anchor-2"/>
  <outline>
    <contour>
      <point x="510" y="540" type="curve" smooth="yes"/>
      <point x="510" y="292"/>
      <point x="550" y="160"/>
      <point x="658" y="160" type="curve" smooth="yes"/>
      <point x="756" y="160"/>
      <point x="806" y="292"/>
      <point x="806" y="500" type="curve" smooth="yes"/>
      <point x="806" y="748"/>
      <point x="756" y="880"/>
      <point x="658" y="880" type="curve" smooth="yes"/>
      <point x="550" y="880"/>
      <point x="510" y="748"/>
    </contour>
    <contour>
      <point x="1256" y="1565" type="curve" smooth="yes"/>
      <point x="1259" y="1203"/>
      <point x="989" y="1140"/>
      <point x="756" y="1140" type="curve" smooth="yes"/>
      <point x="509" y="1140"/>
      <point x="381" y="1222"/>
      <point x="317" y="975" type="curve" smooth="yes"/>
      <point x="301" y="912"/>
      <point x="310" y="898"/>
      <point x="356" y="948" type="curve" smooth="yes"/>
      <point x="416" y="1013"/>
      <point x="537" y="1080"/>
      <point x="678" y="1080" type="curve" smooth="yes"/>
      <point x="1030" y="1080"/>
      <point x="1256" y="820"/>
      <point x="1256" y="540" type="curve" smooth="yes"/>
      <point x="1256" y="220"/>
      <point x="1010" y="-40"/>
      <point x="658" y="-40" type="curve" smooth="yes"/>
      <point x="266" y="-40"/>
      <point x="50" y="200"/>
      <point x="50" y="630" type="curve" smooth="yes"/>
      <point x="50" y="1262"/>
      <point x="386" y="1561"/>
      <point x="778" y="1561" type="curve" smooth="yes"/>
      <point x="945" y="1561"/>
      <point x="1054" y="1475"/>
      <point x="1061" y="1567" type="curve" smooth="yes"/>
      <point x="1064" y="1590"/>
      <point x="1063" y="1594"/>
      <point x="1089" y="1594" type="curve" smooth="yes"/>
      <point x="1230" y="1594" type="line" smooth="yes"/>
      <point x="1253" y="1594"/>
      <point x="1256" y="1589"/>
    </contour>
  </outline>
</glyph>
<glyph name="iishort-cy" format="2">
  <advance height="2310" width="1580"/>
  <unicode hex="0439"/>
  <outline>
    <contour>
      <point x="1048" y="1611" type="curve" smooth="yes"/>
      <point x="1169" y="1611"/>
      <point x="1261" y="1522"/>
      <point x="1261" y="1411" type="curve" smooth="yes"/>
      <point x="1261" y="1236"/>
      <point x="1096" y="1137"/>
      <point x="814" y="1137" type="curve" smooth="yes"/>
      <point x="530" y="1137"/>
      <point x="366" y="1236"/>
      <point x="366" y="1413" type="curve" smooth="yes"/>
      <point x="366" y="1522"/>
      <point x="458" y="1611"/>
      <point x="579" y="1611" type="curve" smooth="yes"/>
      <point x="679" y="1611"/>
      <point x="745" y="1540"/>
      <point x="745" y="1456" type="curve" smooth="yes"/>
      <point x="745" y="1357"/>
      <point x="628" y="1359"/>
      <point x="628" y="1327" type="curve" smooth="yes"/>
      <point x="628" y="1294"/>
      <point x="695" y="1280"/>
      <point x="822" y="1280" type="curve" smooth="yes"/>
      <point x="936" y="1280"/>
      <point x="999" y="1296"/>
      <point x="999" y="1327" type="curve" smooth="yes"/>
      <point x="999" y="1360"/>
      <point x="882" y="1356"/>
      <point x="882" y="1456" type="curve" smooth="yes"/>
      <point x="882" y="1540"/>
      <point x="948" y="1611"/>
    </contour>
    <component base="ii-cy" xOffset="5"/>
  </outline>
</glyph>
<glyph name="ka-cy" format="2">
  <advance width="1528"/>
  <unicode hex="043A"/>
  <outline>
    <contour>
      <point x="1537" y="218" type="curve" smooth="yes"/>
      <point x="1435" y="67"/>
      <point x="1351" y="-40"/>
      <point x="1147" y="-40" type="curve" smooth="yes"/>
      <point x="661" y="-40"/>
      <point x="890" y="420"/>
      <point x="677" y="420" type="curve" smooth="yes"/>
      <point x="653" y="420" type="line" smooth="yes"/>
      <point x="609" y="420"/>
      <point x="608" y="412"/>
      <point x="607" y="368" type="curve" smooth="yes"/>
      <point x="605" y="244" type="line" smooth="yes"/>
      <point x="605" y="213"/>
      <point x="613" y="210"/>
      <point x="645" y="210" type="curve" smooth="yes"/>
      <point x="684" y="210" type="line" smooth="yes"/>
      <point x="712" y="210"/>
      <point x="715" y="193"/>
      <point x="715" y="164" type="curve" smooth="yes"/>
      <point x="715" y="39" type="line" smooth="yes"/>
      <point x="715" y="14"/>
      <point x="708" y="0"/>
      <point x="682" y="0" type="curve" smooth="yes"/>
      <point x="108" y="0" type="line" smooth="yes"/>
      <point x="82" y="0"/>
      <point x="75" y="14"/>
      <point x="75" y="39" type="curve" smooth="yes"/>
      <point x="75" y="164" type="line" smooth="yes"/>
      <point x="75" y="193"/>
      <point x="78" y="210"/>
      <point x="106" y="210" type="curve" smooth="yes"/>
      <point x="145" y="210" type="line" smooth="yes"/>
      <point x="177" y="210"/>
      <point x="185" y="213"/>
      <point x="185" y="244" type="curve" smooth="yes"/>
      <point x="185" y="783" type="line" smooth="yes"/>
      <point x="185" y="830"/>
      <point x="185" y="830"/>
      <point x="138" y="830" type="curve" smooth="yes"/>
      <point x="97" y="830" type="line" smooth="yes"/>
      <point x="72" y="830"/>
      <point x="55" y="837"/>
      <point x="55" y="872" type="curve" smooth="yes"/>
      <point x="55" y="1006" type="line" smooth="yes"/>
      <point x="55" y="1037"/>
      <point x="61" y="1040"/>
      <point x="91" y="1040" type="curve" smooth="yes"/>
      <point x="689" y="1040" type="line" smooth="yes"/>
      <point x="719" y="1040"/>
      <point x="725" y="1037"/>
      <point x="725" y="1006" type="curve" smooth="yes"/>
      <point x="725" y="872" type="line" smooth="yes"/>
      <point x="725" y="837"/>
      <point x="708" y="830"/>
      <point x="683" y="830" type="curve" smooth="yes"/>
      <point x="654" y="830" type="line" smooth="yes"/>
      <point x="607" y="830"/>
      <point x="605" y="830"/>
      <point x="605" y="782" type="curve" smooth="yes"/>
      <point x="607" y="658" type="line" smooth="yes"/>
      <point x="608" y="632"/>
      <point x="601" y="620"/>
      <point x="644" y="620" type="curve" smooth="yes"/>
      <point x="652" y="620" type="line" smooth="yes"/>
      <point x="695" y="620"/>
      <point x="718" y="678"/>
      <point x="740" y="762" type="curve" smooth="yes"/>
      <point x="800" y="987"/>
      <point x="934" y="1074"/>
      <point x="1144" y="1074" type="curve" smooth="yes"/>
      <point x="1346" y="1074"/>
      <point x="1485" y="951"/>
      <point x="1485" y="787" type="curve" smooth="yes"/>
      <point x="1485" y="611"/>
      <point x="1372" y="535"/>
      <point x="1232" y="535" type="curve" smooth="yes"/>
      <point x="1112" y="535"/>
      <point x="1026" y="600"/>
      <point x="1026" y="706" type="curve" smooth="yes"/>
      <point x="1026" y="836"/>
      <point x="1148" y="840"/>
      <point x="1148" y="880" type="curve" smooth="yes"/>
      <point x="1148" y="893"/>
      <point x="1134" y="899"/>
      <point x="1117" y="899" type="curve" smooth="yes"/>
      <point x="1034" y="899"/>
      <point x="949" y="838"/>
      <point x="920" y="702" type="curve" smooth="yes"/>
      <point x="909" y="650"/>
      <point x="895" y="612"/>
      <point x="858" y="573" type="curve" smooth="yes"/>
      <point x="813" y="525"/>
      <point x="933" y="547"/>
      <point x="1025" y="518" type="curve" smooth="yes"/>
      <point x="1201" y="462"/>
      <point x="1174" y="287"/>
      <point x="1284" y="287" type="curve" smooth="yes"/>
      <point x="1311" y="287"/>
      <point x="1341" y="305"/>
      <point x="1376" y="351" type="curve" smooth="yes"/>
      <point x="1388" y="367"/>
      <point x="1401" y="381"/>
      <point x="1423" y="365" type="curve" smooth="yes"/>
      <point x="1525" y="291" type="line" smooth="yes"/>
      <point x="1565" y="262"/>
      <point x="1547" y="233"/>
    </contour>
  </outline>
</glyph>
<glyph name="ef-cy" format="2">
  <advance height="2310" width="1929"/>
  <unicode hex="0444"/>
  <outline>
    <contour>
      <point x="50" y="520" type="curve" smooth="yes"/>
      <point x="50" y="880"/>
      <point x="256" y="1080"/>
      <point x="514" y="1080" type="curve" smooth="yes"/>
      <point x="627" y="1080"/>
      <point x="696" y="1009"/>
      <point x="731" y="946" type="curve" smooth="yes"/>
      <point x="743" y="924"/>
      <point x="752" y="915"/>
      <point x="755" y="944" type="curve" smooth="yes"/>
      <point x="755" y="1323" type="line" smooth="yes"/>
      <point x="755" y="1343"/>
      <point x="752" y="1350"/>
      <point x="733" y="1350" type="curve" smooth="yes"/>
      <point x="611" y="1350" type="line" smooth="yes"/>
      <point x="580" y="1350"/>
      <point x="575" y="1354"/>
      <point x="575" y="1384" type="curve" smooth="yes"/>
      <point x="575" y="1529" type="line" smooth="yes"/>
      <point x="575" y="1556"/>
      <point x="586" y="1560"/>
      <point x="611" y="1560" type="curve" smooth="yes"/>
      <point x="1127" y="1560" type="line" smooth="yes"/>
      <point x="1159" y="1560"/>
      <point x="1175" y="1559"/>
      <point x="1175" y="1524" type="curve" smooth="yes"/>
      <point x="1175" y="943" type="line" smooth="yes"/>
      <point x="1175" y="902"/>
      <point x="1184" y="898"/>
      <point x="1191" y="916" type="curve" smooth="yes"/>
      <point x="1227" y="1010"/>
      <point x="1303" y="1078"/>
      <point x="1437" y="1078" type="curve" smooth="yes"/>
      <point x="1695" y="1078"/>
      <point x="1881" y="880"/>
      <point x="1881" y="520" type="curve" smooth="yes"/>
      <point x="1881" y="160"/>
      <point x="1675" y="-40"/>
      <point x="1417" y="-40" type="curve" smooth="yes"/>
      <point x="1293" y="-40"/>
      <point x="1231" y="58"/>
      <point x="1198" y="103" type="curve" smooth="yes"/>
      <point x="1185" y="121"/>
      <point x="1179" y="124"/>
      <point x="1176" y="104" type="curve" smooth="yes"/>
      <point x="1176" y="-274" type="line" smooth="yes"/>
      <point x="1176" y="-300"/>
      <point x="1185" y="-310"/>
      <point x="1211" y="-310" type="curve" smooth="yes"/>
      <point x="1297" y="-310" type="line" smooth="yes"/>
      <point x="1338" y="-310"/>
      <point x="1356" y="-317"/>
      <point x="1356" y="-362" type="curve" smooth="yes"/>
      <point x="1356" y="-480" type="line" smooth="yes"/>
      <point x="1356" y="-511"/>
      <point x="1347" y="-520"/>
      <point x="1314" y="-520" type="curve" smooth="yes"/>
      <point x="619" y="-520" type="line" smooth="yes"/>
      <point x="581" y="-520"/>
      <point x="576" y="-514"/>
      <point x="576" y="-474" type="curve" smooth="yes"/>
      <point x="576" y="-356" type="line" smooth="yes"/>
      <point x="576" y="-320"/>
      <point x="577" y="-310"/>
      <point x="613" y="-310" type="curve" smooth="yes"/>
      <point x="721" y="-310" type="line" smooth="yes"/>
      <point x="755" y="-310"/>
      <point x="756" y="-296"/>
      <point x="756" y="-261" type="curve" smooth="yes"/>
      <point x="756" y="42" type="line" smooth="yes"/>
      <point x="756" y="134"/>
      <point x="741" y="119"/>
      <point x="717" y="81" type="curve" smooth="yes"/>
      <point x="689" y="37"/>
      <point x="607" y="-38"/>
      <point x="494" y="-38" type="curve" smooth="yes"/>
      <point x="236" y="-38"/>
      <point x="50" y="160"/>
    </contour>
    <contour>
      <point x="1176" y="513" type="curve" smooth="yes"/>
      <point x="1176" y="330"/>
      <point x="1246" y="204"/>
      <point x="1321" y="204" type="curve" smooth="yes"/>
      <point x="1389" y="204"/>
      <point x="1441" y="332"/>
      <point x="1441" y="520" type="curve" smooth="yes"/>
      <point x="1441" y="708"/>
      <point x="1389" y="836"/>
      <point x="1321" y="836" type="curve" smooth="yes"/>
      <point x="1246" y="836"/>
      <point x="1176" y="701"/>
    </contour>
    <contour>
      <point x="490" y="520" type="curve" smooth="yes"/>
      <point x="490" y="332"/>
      <point x="542" y="204"/>
      <point x="610" y="204" type="curve" smooth="yes"/>
      <point x="685" y="204"/>
      <point x="755" y="330"/>
      <point x="755" y="513" type="curve" smooth="yes"/>
      <point x="755" y="701"/>
      <point x="685" y="836"/>
      <point x="610" y="836" type="curve" smooth="yes"/>
      <point x="542" y="836"/>
      <point x="490" y="708"/>
    </contour>
  </outline>
</glyph>
<glyph name="softsign-cy" format="2">
  <advance height="2234" width="1338"/>
  <unicode hex="044C"/>
  <outline>
    <contour>
      <point x="78" y="0" type="line" smooth="yes"/>
      <point x="57" y="0"/>
      <point x="55" y="4"/>
      <point x="55" y="26" type="curve" smooth="yes"/>
      <point x="55" y="188" type="line" smooth="yes"/>
      <point x="55" y="208"/>
      <point x="65" y="210"/>
      <point x="83" y="210" type="curve" smooth="yes"/>
      <point x="213" y="210" type="line" smooth="yes"/>
      <point x="234" y="210"/>
      <point x="235" y="217"/>
      <point x="235" y="237" type="curve" smooth="yes"/>
      <point x="235" y="796" type="line" smooth="yes"/>
      <point x="235" y="821"/>
      <point x="234" y="830"/>
      <point x="209" y="830" type="curve" smooth="yes"/>
      <point x="80" y="830" type="line" smooth="yes"/>
      <point x="60" y="830"/>
      <point x="55" y="832"/>
      <point x="55" y="854" type="curve" smooth="yes"/>
      <point x="55" y="1016" type="line" smooth="yes"/>
      <point x="55" y="1037"/>
      <point x="62" y="1040"/>
      <point x="82" y="1040" type="curve" smooth="yes"/>
      <point x="809" y="1040" type="line" smooth="yes"/>
      <point x="836" y="1040"/>
      <point x="835" y="1039"/>
      <point x="835" y="1010" type="curve" smooth="yes"/>
      <point x="835" y="859" type="line" smooth="yes"/>
      <point x="835" y="831"/>
      <point x="842" y="830"/>
      <point x="814" y="830" type="curve" smooth="yes"/>
      <point x="680" y="830" type="line" smooth="yes"/>
      <point x="658" y="830"/>
      <point x="655" y="823"/>
      <point x="655" y="800" type="curve" smooth="yes"/>
      <point x="655" y="675" type="line" smooth="yes"/>
      <point x="655" y="651"/>
      <point x="664" y="650"/>
      <point x="689" y="650" type="curve" smooth="yes"/>
      <point x="888" y="650" type="line" smooth="yes"/>
      <point x="1160" y="650"/>
      <point x="1338" y="550"/>
      <point x="1338" y="310" type="curve" smooth="yes"/>
      <point x="1338" y="70"/>
      <point x="1160" y="0"/>
      <point x="888" y="0" type="curve" smooth="yes"/>
    </contour>
    <contour>
      <point x="723" y="210" type="line" smooth="yes"/>
      <point x="815" y="210"/>
      <point x="873" y="222"/>
      <point x="873" y="320" type="curve" smooth="yes"/>
      <point x="873" y="418"/>
      <point x="815" y="440"/>
      <point x="723" y="440" type="curve" smooth="yes"/>
      <point x="704" y="440" type="line" smooth="yes"/>
      <point x="657" y="440"/>
      <point x="655" y="432"/>
      <point x="655" y="384" type="curve" smooth="yes"/>
      <point x="655" y="246" type="line" smooth="yes"/>
      <point x="655" y="214"/>
      <point x="656" y="210"/>
      <point x="688" y="210" type="curve" smooth="yes"/>
    </contour>
  </outline>
</glyph>
<glyph name="ereversed-cy" format="2">
  <advance height="2310" width="1268"/>
  <unicode hex="044D"/>
  <outline>
    <contour>
      <point x="1218" y="540" type="curve" smooth="yes"/>
      <point x="1218" y="240"/>
      <point x="1002" y="-40"/>
      <point x="580" y="-40" type="curve" smooth="yes"/>
      <point x="256" y="-40"/>
      <point x="90" y="122"/>
      <point x="90" y="296" type="curve" smooth="yes"/>
      <point x="90" y="422"/>
      <point x="198" y="490"/>
      <point x="286" y="490" type="curve" smooth="yes"/>
      <point x="390" y="490"/>
      <point x="480" y="438"/>
      <point x="480" y="344" type="curve" smooth="yes"/>
      <point x="480" y="242"/>
      <point x="423" y="222"/>
      <point x="423" y="188" type="curve" smooth="yes"/>
      <point x="423" y="162"/>
      <point x="514" y="142"/>
      <point x="570" y="142" type="curve" smooth="yes"/>
      <point x="673" y="142"/>
      <point x="724" y="223"/>
      <point x="741" y="369" type="curve" smooth="yes"/>
      <point x="744" y="398"/>
      <point x="737" y="401"/>
      <point x="714" y="401" type="curve" smooth="yes"/>
      <point x="531" y="401" type="line" smooth="yes"/>
      <point x="509" y="401"/>
      <point x="505" y="408"/>
      <point x="505" y="431" type="curve" smooth="yes"/>
      <point x="505" y="588" type="line" smooth="yes"/>
      <point x="505" y="610"/>
      <point x="514" y="610"/>
      <point x="536" y="610" type="curve" smooth="yes"/>
      <point x="715" y="610" type="line" smooth="yes"/>
      <point x="746" y="610"/>
      <point x="744" y="613"/>
      <point x="741" y="640" type="curve" smooth="yes"/>
      <point x="725" y="771"/>
      <point x="681" y="874"/>
      <point x="578" y="874" type="curve" smooth="yes"/>
      <point x="474" y="874"/>
      <point x="412" y="812"/>
      <point x="375" y="649" type="curve" smooth="yes"/>
      <point x="370" y="628"/>
      <point x="377" y="620"/>
      <point x="351" y="620" type="curve" smooth="yes"/>
      <point x="150" y="620" type="line" smooth="yes"/>
      <point x="127" y="620"/>
      <point x="121" y="624"/>
      <point x="121" y="646" type="curve" smooth="yes"/>
      <point x="121" y="1031" type="line" smooth="yes"/>
      <point x="121" y="1047"/>
      <point x="124" y="1050"/>
      <point x="141" y="1050" type="curve" smooth="yes"/>
      <point x="298" y="1050" type="line" smooth="yes"/>
      <point x="317" y="1050"/>
      <point x="315" y="1046"/>
      <point x="319" y="1032" type="curve" smooth="yes"/>
      <point x="328" y="999" type="line" smooth="yes"/>
      <point x="339" y="962"/>
      <point x="347" y="962"/>
      <point x="367" y="983" type="curve" smooth="yes"/>
      <point x="418" y="1039"/>
      <point x="509" y="1080"/>
      <point x="622" y="1080" type="curve" smooth="yes"/>
      <point x="1024" y="1080"/>
      <point x="1218" y="820"/>
    </contour>
  </outline>
</glyph>
<glyph name="yu-cy" format="2">
  <advance height="2310" width="2113"/>
  <unicode hex="044E"/>
  <outline>
    <contour>
      <point x="1317" y="540" type="curve" smooth="yes"/>
      <point x="1317" y="332"/>
      <point x="1347" y="160"/>
      <point x="1465" y="160" type="curve" smooth="yes"/>
      <point x="1583" y="160"/>
      <point x="1613" y="332"/>
      <point x="1613" y="500" type="curve" smooth="yes"/>
      <point x="1613" y="708"/>
      <point x="1583" y="880"/>
      <point x="1465" y="880" type="curve" smooth="yes"/>
      <point x="1347" y="880"/>
      <point x="1317" y="708"/>
    </contour>
    <contour>
      <point x="235" y="249" type="curve" smooth="yes"/>
      <point x="235" y="785" type="line" smooth="yes"/>
      <point x="235" y="818"/>
      <point x="226" y="830"/>
      <point x="193" y="830" type="curve" smooth="yes"/>
      <point x="81" y="830" type="line" smooth="yes"/>
      <point x="59" y="830"/>
      <point x="55" y="837"/>
      <point x="55" y="860" type="curve" smooth="yes"/>
      <point x="55" y="1018" type="line" smooth="yes"/>
      <point x="55" y="1040"/>
      <point x="64" y="1040"/>
      <point x="86" y="1040" type="curve" smooth="yes"/>
      <point x="807" y="1040" type="line" smooth="yes"/>
      <point x="831" y="1040"/>
      <point x="835" y="1033"/>
      <point x="835" y="1008" type="curve" smooth="yes"/>
      <point x="835" y="862" type="line" smooth="yes"/>
      <point x="835" y="834"/>
      <point x="825" y="830"/>
      <point x="799" y="830" type="curve" smooth="yes"/>
      <point x="695" y="830" type="line" smooth="yes"/>
      <point x="663" y="830"/>
      <point x="655" y="826"/>
      <point x="655" y="791" type="curve" smooth="yes"/>
      <point x="655" y="666" type="line" smooth="yes"/>
      <point x="655" y="627"/>
      <point x="645" y="610"/>
      <point x="688" y="610" type="curve" smooth="yes"/>
      <point x="834" y="610" type="line" smooth="yes"/>
      <point x="874" y="610"/>
      <point x="876" y="609"/>
      <point x="884" y="642" type="curve" smooth="yes"/>
      <point x="942" y="891"/>
      <point x="1145" y="1080"/>
      <point x="1465" y="1080" type="curve" smooth="yes"/>
      <point x="1847" y="1080"/>
      <point x="2063" y="820"/>
      <point x="2063" y="540" type="curve" smooth="yes"/>
      <point x="2063" y="220"/>
      <point x="1847" y="-40"/>
      <point x="1465" y="-40" type="curve" smooth="yes"/>
      <point x="1153" y="-40"/>
      <point x="952" y="127"/>
      <point x="889" y="340" type="curve" smooth="yes"/>
      <point x="879" y="375"/>
      <point x="888" y="400"/>
      <point x="840" y="400" type="curve" smooth="yes"/>
      <point x="710" y="400" type="line" smooth="yes"/>
      <point x="670" y="400"/>
      <point x="655" y="409"/>
      <point x="655" y="366" type="curve" smooth="yes"/>
      <point x="655" y="255" type="line" smooth="yes"/>
      <point x="655" y="222"/>
      <point x="664" y="210"/>
      <point x="697" y="210" type="curve" smooth="yes"/>
      <point x="809" y="210" type="line" smooth="yes"/>
      <point x="831" y="210"/>
      <point x="835" y="203"/>
      <point x="835" y="180" type="curve" smooth="yes"/>
      <point x="835" y="22" type="line" smooth="yes"/>
      <point x="835" y="0"/>
      <point x="826" y="0"/>
      <point x="804" y="0" type="curve" smooth="yes"/>
      <point x="83" y="0" type="line" smooth="yes"/>
      <point x="59" y="0"/>
      <point x="55" y="7"/>
      <point x="55" y="32" type="curve" smooth="yes"/>
      <point x="55" y="178" type="line" smooth="yes"/>
      <point x="55" y="206"/>
      <point x="65" y="210"/>
      <point x="91" y="210" type="curve" smooth="yes"/>
      <point x="195" y="210" type="line" smooth="yes"/>
      <point x="227" y="210"/>
      <point x="235" y="214"/>
    </contour>
  </outline>
</glyph>
<glyph name="lje-cy" format="2">
  <advance width="2173"/>
  <unicode hex="0459"/>
  <outline>
    <contour>
      <point x="70" y="290" type="curve" smooth="yes"/>
      <point x="70" y="424"/>
      <point x="168" y="510"/>
      <point x="288" y="510" type="curve" smooth="yes"/>
      <point x="412" y="510"/>
      <point x="486" y="448"/>
      <point x="486" y="342" type="curve" smooth="yes"/>
      <point x="486" y="212"/>
      <point x="410" y="204"/>
      <point x="410" y="178" type="curve" smooth="yes"/>
      <point x="410" y="154"/>
      <point x="429" y="150"/>
      <point x="452" y="150" type="curve" smooth="yes"/>
      <point x="595" y="150"/>
      <point x="612" y="579"/>
      <point x="612" y="772" type="curve" smooth="yes"/>
      <point x="612" y="828"/>
      <point x="599" y="830"/>
      <point x="543" y="830" type="curve" smooth="yes"/>
      <point x="350" y="830" type="line" smooth="yes"/>
      <point x="306" y="830"/>
      <point x="292" y="831"/>
      <point x="292" y="878" type="curve" smooth="yes"/>
      <point x="292" y="982" type="line" smooth="yes"/>
      <point x="292" y="1031"/>
      <point x="293" y="1040"/>
      <point x="342" y="1040" type="curve" smooth="yes"/>
      <point x="1644" y="1040" type="line" smooth="yes"/>
      <point x="1671" y="1040"/>
      <point x="1670" y="1039"/>
      <point x="1670" y="1010" type="curve" smooth="yes"/>
      <point x="1670" y="859" type="line" smooth="yes"/>
      <point x="1670" y="831"/>
      <point x="1677" y="830"/>
      <point x="1649" y="830" type="curve" smooth="yes"/>
      <point x="1515" y="830" type="line" smooth="yes"/>
      <point x="1493" y="830"/>
      <point x="1490" y="823"/>
      <point x="1490" y="800" type="curve" smooth="yes"/>
      <point x="1490" y="675" type="line" smooth="yes"/>
      <point x="1490" y="651"/>
      <point x="1499" y="650"/>
      <point x="1524" y="650" type="curve" smooth="yes"/>
      <point x="1723" y="650" type="line" smooth="yes"/>
      <point x="1995" y="650"/>
      <point x="2173" y="550"/>
      <point x="2173" y="310" type="curve" smooth="yes"/>
      <point x="2173" y="70"/>
      <point x="1995" y="0"/>
      <point x="1723" y="0" type="curve" smooth="yes"/>
      <point x="966" y="0" type="line" smooth="yes"/>
      <point x="921" y="0"/>
      <point x="910" y="4"/>
      <point x="910" y="52" type="curve" smooth="yes"/>
      <point x="910" y="162" type="line" smooth="yes"/>
      <point x="910" y="208"/>
      <point x="918" y="210"/>
      <point x="964" y="210" type="curve" smooth="yes"/>
      <point x="1014" y="210" type="line" smooth="yes"/>
      <point x="1061" y="210"/>
      <point x="1070" y="211"/>
      <point x="1070" y="258" type="curve" smooth="yes"/>
      <point x="1070" y="766" type="line" smooth="yes"/>
      <point x="1070" y="820"/>
      <point x="1068" y="830"/>
      <point x="1012" y="830" type="curve" smooth="yes"/>
      <point x="870" y="830" type="line" smooth="yes"/>
      <point x="835" y="830"/>
      <point x="832" y="817"/>
      <point x="832" y="781" type="curve" smooth="yes"/>
      <point x="832" y="344"/>
      <point x="781" y="-40"/>
      <point x="422" y="-40" type="curve" smooth="yes"/>
      <point x="198" y="-40"/>
      <point x="70" y="90"/>
    </contour>
    <contour>
      <point x="1558" y="210" type="line" smooth="yes"/>
      <point x="1650" y="210"/>
      <point x="1708" y="222"/>
      <point x="1708" y="320" type="curve" smooth="yes"/>
      <point x="1708" y="418"/>
      <point x="1650" y="440"/>
      <point x="1558" y="440" type="curve" smooth="yes"/>
      <point x="1539" y="440" type="line" smooth="yes"/>
      <point x="1492" y="440"/>
      <point x="1490" y="432"/>
      <point x="1490" y="384" type="curve" smooth="yes"/>
      <point x="1490" y="246" type="line" smooth="yes"/>
      <point x="1490" y="214"/>
      <point x="1491" y="210"/>
      <point x="1523" y="210" type="curve" smooth="yes"/>
    </contour>
  </outline>
</glyph>
<glyph name="quotedblleft" format="2">
  <advance width="1324"/>
  <unicode hex="201C"/>
  <outline>
    <contour>
      <point x="624" y="1090" type="curve" smooth="yes"/>
      <point x="624" y="944"/>
      <point x="496" y="852"/>
      <point x="360" y="852" type="curve" smooth="yes"/>
      <point x="192" y="852"/>
      <point x="80" y="963"/>
      <point x="80" y="1179" type="curve" smooth="yes"/>
      <point x="80" y="1459"/>
      <point x="367" y="1653"/>
      <point x="551" y="1677" type="curve" smooth="yes"/>
      <point x="580" y="1681"/>
      <point x="588" y="1676"/>
      <point x="588" y="1644" type="curve" smooth="yes"/>
      <point x="588" y="1525" type="line" smooth="yes"/>
      <point x="588" y="1505"/>
      <point x="580" y="1501"/>
      <point x="563" y="1499" type="curve" smooth="yes"/>
      <point x="443" y="1487"/>
      <point x="322" y="1389"/>
      <point x="281" y="1320" type="curve" smooth="yes"/>
      <point x="276" y="1312"/>
      <point x="283" y="1306"/>
      <point x="295" y="1311" type="curve" smooth="yes"/>
      <point x="318" y="1321"/>
      <point x="354" y="1328"/>
      <point x="398" y="1328" type="curve" smooth="yes"/>
      <point x="534" y="1328"/>
      <point x="624" y="1236"/>
    </contour>
    <contour>
      <point x="1244" y="1090" type="curve" smooth="yes"/>
      <point x="1244" y="944"/>
      <point x="1116" y="852"/>
      <point x="980" y="852" type="curve" smooth="yes"/>
      <point x="812" y="852"/>
      <point x="700" y="963"/>
      <point x="700" y="1179" type="curve" smooth="yes"/>
      <point x="700" y="1459"/>
      <point x="987" y="1653"/>
      <point x="1171" y="1677" type="curve" smooth="yes"/>
      <point x="1200" y="1681"/>
      <point x="1208" y="1676"/>
      <point x="1208" y="1644" type="curve" smooth="yes"/>
      <point x="1208" y="1525" type="line" smooth="yes"/>
      <point x="1208" y="1505"/>
      <point x="1200" y="1501"/>
      <point x="1183" y="1499" type="curve" smooth="yes"/>
      <point x="1063" y="1487"/>
      <point x="942" y="1389"/>
      <point x="901" y="1320" type="curve" smooth="yes"/>
      <point x="896" y="1312"/>
      <point x="903" y="1306"/>
      <point x="915" y="1311" type="curve" smooth="yes"/>
      <point x="938" y="1321"/>
      <point x="974" y="1328"/>
      <point x="1018" y="1328" type="curve" smooth="yes"/>
      <point x="1154" y="1328"/>
      <point x="1244" y="1236"/>
    </contour>
  </outline>
</glyph>
<glyph name="numero" format="2">
  <advance width="2956"/>
  <unicode hex="2116"/>
  <anchor x="946" y="1500" name="Anchor-0"/>
  <anchor x="906" y="0" name="Anchor-1"/>
  <anchor x="906" y="0" name="Anchor-2"/>
  <outline>
    <contour>
      <point x="2058" y="318" type="curve" smooth="yes"/>
      <point x="2784" y="318" type="line" smooth="yes"/>
      <point x="2807" y="318"/>
      <point x="2830" y="304"/>
      <point x="2830" y="280" type="curve" smooth="yes"/>
      <point x="2830" y="131" type="line" smooth="yes"/>
      <point x="2830" y="107"/>
      <point x="2808" y="88"/>
      <point x="2782" y="88" type="curve" smooth="yes"/>
      <point x="2056" y="88" type="line" smooth="yes"/>
      <point x="2031" y="88"/>
      <point x="2010" y="102"/>
      <point x="2010" y="128" type="curve" smooth="yes"/>
      <point x="2010" y="280" type="line" smooth="yes"/>
      <point x="2010" y="303"/>
      <point x="2037" y="318"/>
    </contour>
    <contour>
      <point x="2300" y="910" type="curve" smooth="yes"/>
      <point x="2300" y="702"/>
      <point x="2330" y="630"/>
      <point x="2418" y="630" type="curve" smooth="yes"/>
      <point x="2506" y="630"/>
      <point x="2536" y="702"/>
      <point x="2536" y="870" type="curve" smooth="yes"/>
      <point x="2536" y="1078"/>
      <point x="2506" y="1150"/>
      <point x="2418" y="1150" type="curve" smooth="yes"/>
      <point x="2330" y="1150"/>
      <point x="2300" y="1078"/>
    </contour>
    <contour>
      <point x="1940" y="870" type="curve" smooth="yes"/>
      <point x="1940" y="1150"/>
      <point x="2126" y="1360"/>
      <point x="2418" y="1360" type="curve" smooth="yes"/>
      <point x="2710" y="1360"/>
      <point x="2896" y="1150"/>
      <point x="2896" y="910" type="curve" smooth="yes"/>
      <point x="2896" y="630"/>
      <point x="2710" y="420"/>
      <point x="2418" y="420" type="curve" smooth="yes"/>
      <point x="2126" y="420"/>
      <point x="1940" y="630"/>
    </contour>
    <component base="N"/>
  </outline>
</glyph>
<glyph name="trademark" format="2">
  <advance width="1626"/>
  <unicode hex="2122"/>
  <outline>
    <contour>
      <point x="198" y="993" type="curve" smooth="yes"/>
      <point x="198" y="1054" type="line" smooth="yes"/>
      <point x="198" y="1068"/>
      <point x="200" y="1072"/>
      <point x="214" y="1072" type="curve" smooth="yes"/>
      <point x="262" y="1072" type="line" smooth="yes"/>
      <point x="281" y="1072"/>
      <point x="284" y="1077"/>
      <point x="284" y="1096" type="curve" smooth="yes"/>
      <point x="284" y="1408" type="line" smooth="yes"/>
      <point x="284" y="1417"/>
      <point x="281" y="1421"/>
      <point x="272" y="1421" type="curve" smooth="yes"/>
      <point x="266" y="1421" type="line" smooth="yes"/>
      <point x="194" y="1421"/>
      <point x="175" y="1398"/>
      <point x="173" y="1309" type="curve" smooth="yes"/>
      <point x="173" y="1292"/>
      <point x="168" y="1288"/>
      <point x="149" y="1288" type="curve" smooth="yes"/>
      <point x="105" y="1288" type="line" smooth="yes"/>
      <point x="91" y="1288"/>
      <point x="86" y="1289"/>
      <point x="86" y="1303" type="curve" smooth="yes"/>
      <point x="86" y="1494" type="line" smooth="yes"/>
      <point x="86" y="1509"/>
      <point x="87" y="1515"/>
      <point x="102" y="1515" type="curve" smooth="yes"/>
      <point x="623" y="1515" type="line" smooth="yes"/>
      <point x="635" y="1515"/>
      <point x="637" y="1511"/>
      <point x="637" y="1498" type="curve" smooth="yes"/>
      <point x="637" y="1309" type="line" smooth="yes"/>
      <point x="637" y="1291"/>
      <point x="634" y="1288"/>
      <point x="615" y="1288" type="curve" smooth="yes"/>
      <point x="572" y="1288" type="line" smooth="yes"/>
      <point x="553" y="1288"/>
      <point x="550" y="1290"/>
      <point x="550" y="1308" type="curve" smooth="yes"/>
      <point x="548" y="1398"/>
      <point x="529" y="1421"/>
      <point x="457" y="1421" type="curve" smooth="yes"/>
      <point x="453" y="1421" type="line" smooth="yes"/>
      <point x="442" y="1421"/>
      <point x="439" y="1416"/>
      <point x="439" y="1406" type="curve" smooth="yes"/>
      <point x="439" y="1101" type="line" smooth="yes"/>
      <point x="439" y="1078"/>
      <point x="440" y="1072"/>
      <point x="463" y="1072" type="curve" smooth="yes"/>
      <point x="505" y="1072" type="line" smooth="yes"/>
      <point x="522" y="1072"/>
      <point x="525" y="1067"/>
      <point x="525" y="1052" type="curve" smooth="yes"/>
      <point x="525" y="995" type="line" smooth="yes"/>
      <point x="525" y="978"/>
      <point x="522" y="975"/>
      <point x="505" y="975" type="curve" smooth="yes"/>
      <point x="217" y="975" type="line" smooth="yes"/>
      <point x="202" y="975"/>
      <point x="198" y="977"/>
    </contour>
    <contour>
      <point x="788" y="1418" type="curve" smooth="yes"/>
      <point x="746" y="1418" type="line" smooth="yes"/>
      <point x="729" y="1418"/>
      <point x="729" y="1418"/>
      <point x="729" y="1435" type="curve" smooth="yes"/>
      <point x="729" y="1504" type="line" smooth="yes"/>
      <point x="729" y="1519"/>
      <point x="735" y="1515"/>
      <point x="749" y="1515" type="curve" smooth="yes"/>
      <point x="1012" y="1515" type="line" smooth="yes"/>
      <point x="1040" y="1515"/>
      <point x="1037" y="1505"/>
      <point x="1044" y="1485" type="curve" smooth="yes"/>
      <point x="1113" y="1270" type="line" smooth="yes"/>
      <point x="1121" y="1247"/>
      <point x="1125" y="1221"/>
      <point x="1132" y="1221" type="curve" smooth="yes"/>
      <point x="1140" y="1221"/>
      <point x="1144" y="1234"/>
      <point x="1153" y="1258" type="curve" smooth="yes"/>
      <point x="1243" y="1500" type="line" smooth="yes"/>
      <point x="1248" y="1513"/>
      <point x="1248" y="1515"/>
      <point x="1267" y="1515" type="curve" smooth="yes"/>
      <point x="1492" y="1515" type="line" smooth="yes"/>
      <point x="1510" y="1515"/>
      <point x="1518" y="1520"/>
      <point x="1518" y="1500" type="curve" smooth="yes"/>
      <point x="1518" y="1436" type="line" smooth="yes"/>
      <point x="1518" y="1418"/>
      <point x="1518" y="1418"/>
      <point x="1500" y="1418" type="curve" smooth="yes"/>
      <point x="1456" y="1418" type="line" smooth="yes"/>
      <point x="1441" y="1418"/>
      <point x="1442" y="1417"/>
      <point x="1442" y="1402" type="curve" smooth="yes"/>
      <point x="1453" y="1087" type="line" smooth="yes"/>
      <point x="1453" y="1074"/>
      <point x="1451" y="1072"/>
      <point x="1465" y="1072" type="curve" smooth="yes"/>
      <point x="1523" y="1072" type="line" smooth="yes"/>
      <point x="1535" y="1072"/>
      <point x="1536" y="1069"/>
      <point x="1536" y="1057" type="curve" smooth="yes"/>
      <point x="1536" y="995" type="line" smooth="yes"/>
      <point x="1536" y="980"/>
      <point x="1535" y="975"/>
      <point x="1518" y="975" type="curve" smooth="yes"/>
      <point x="1239" y="975" type="line" smooth="yes"/>
      <point x="1223" y="975"/>
      <point x="1222" y="978"/>
      <point x="1222" y="994" type="curve" smooth="yes"/>
      <point x="1222" y="1055" type="line" smooth="yes"/>
      <point x="1222" y="1071"/>
      <point x="1227" y="1072"/>
      <point x="1242" y="1072" type="curve" smooth="yes"/>
      <point x="1280" y="1072" type="line" smooth="yes"/>
      <point x="1295" y="1072"/>
      <point x="1299" y="1076"/>
      <point x="1299" y="1091" type="curve" smooth="yes"/>
      <point x="1294" y="1253" type="line" smooth="yes"/>
      <point x="1293" y="1303"/>
      <point x="1304" y="1352"/>
      <point x="1291" y="1352" type="curve" smooth="yes"/>
      <point x="1282" y="1352"/>
      <point x="1282" y="1339"/>
      <point x="1271" y="1307" type="curve" smooth="yes"/>
      <point x="1160" y="983" type="line" smooth="yes"/>
      <point x="1155" y="968"/>
      <point x="1152" y="964"/>
      <point x="1131" y="964" type="curve" smooth="yes"/>
      <point x="1066" y="964" type="line" smooth="yes"/>
      <point x="1045" y="964"/>
      <point x="1042" y="968"/>
      <point x="1037" y="983" type="curve" smooth="yes"/>
      <point x="930" y="1294" type="line" smooth="yes"/>
      <point x="921" y="1321"/>
      <point x="913" y="1370"/>
      <point x="904" y="1370" type="curve" smooth="yes"/>
      <point x="898" y="1370"/>
      <point x="898" y="1357"/>
      <point x="897" y="1325" type="curve" smooth="yes"/>
      <point x="886" y="1098" type="line" smooth="yes"/>
      <point x="885" y="1081"/>
      <point x="883" y="1072"/>
      <point x="903" y="1072" type="curve" smooth="yes"/>
      <point x="951" y="1072" type="line" smooth="yes"/>
      <point x="964" y="1072"/>
      <point x="967" y="1070"/>
      <point x="967" y="1056" type="curve" smooth="yes"/>
      <point x="967" y="993" type="line" smooth="yes"/>
      <point x="967" y="975"/>
      <point x="963" y="975"/>
      <point x="946" y="975" type="curve" smooth="yes"/>
      <point x="723" y="975" type="line" smooth="yes"/>
      <point x="706" y="975"/>
      <point x="704" y="977"/>
      <point x="704" y="995" type="curve" smooth="yes"/>
      <point x="704" y="1060" type="line" smooth="yes"/>
      <point x="704" y="1070"/>
      <point x="705" y="1072"/>
      <point x="715" y="1072" type="curve" smooth="yes"/>
      <point x="772" y="1072" type="line" smooth="yes"/>
      <point x="794" y="1072"/>
      <point x="789" y="1081"/>
      <point x="790" y="1100" type="curve" smooth="yes"/>
      <point x="806" y="1405" type="line" smooth="yes"/>
      <point x="807" y="1420"/>
      <point x="803" y="1418"/>
    </contour>
  </outline>
</glyph>
<glyph name="summation" format="2">
  <advance width="1449"/>
  <unicode hex="2211"/>
  <outline>
    <contour>
      <point x="110" y="1500" type="line"/>
      <point x="1314" y="1500" type="line"/>
      <point x="1314" y="990" type="line"/>
      <point x="1100" y="990" type="line"/>
      <point x="1100" y="1204"/>
      <point x="1075" y="1287"/>
      <point x="841" y="1287" type="curve" smooth="yes"/>
      <point x="610" y="1287" type="line"/>
      <point x="946" y="813" type="line"/>
      <point x="476" y="213" type="line"/>
      <point x="820" y="213" type="line" smooth="yes"/>
      <point x="1093" y="213"/>
      <point x="1120" y="296"/>
      <point x="1120" y="550" type="curve"/>
      <point x="1333" y="550" type="line"/>
      <point x="1333" y="0" type="line"/>
      <point x="20" y="0" type="line"/>
      <point x="582" y="730" type="line"/>
      <point x="110" y="1387" type="line"/>
    </contour>
  </outline>
</glyph>
<glyph name="bulletoperator" format="2">
  <advance width="610"/>
  <unicode hex="2219"/>
  <outline>
    <contour>
      <point x="65" y="870" type="curve" smooth="yes"/>
      <point x="65" y="1002"/>
      <point x="173" y="1110"/>
      <point x="305" y="1110" type="curve" smooth="yes"/>
      <point x="437" y="1110"/>
      <point x="545" y="1002"/>
      <point x="545" y="870" type="curve" smooth="yes"/>
      <point x="545" y="738"/>
      <point x="437" y="630"/>
      <point x="305" y="630" type="curve" smooth="yes"/>
      <point x="173" y="630"/>
      <point x="65" y="738"/>
    </contour>
  </outline>
</glyph>
<glyph name="approxequal" format="2">
  <advance width="1200"/>
  <unicode hex="2248"/>
  <outline>
    <contour>
      <point x="798" y="674" type="curve" smooth="yes"/>
      <point x="657" y="674"/>
      <point x="561" y="767"/>
      <point x="504" y="835" type="curve" smooth="yes"/>
      <point x="461" y="885"/>
      <point x="423" y="901"/>
      <point x="388" y="901" type="curve" smooth="yes"/>
      <point x="303" y="901"/>
      <point x="282" y="867"/>
      <point x="282" y="817" type="curve" smooth="yes"/>
      <point x="282" y="806"/>
      <point x="284" y="792"/>
      <point x="287" y="778" type="curve" smooth="yes"/>
      <point x="287" y="778"/>
      <point x="289" y="771"/>
      <point x="289" y="767" type="curve" smooth="yes"/>
      <point x="292" y="727"/>
      <point x="259" y="692"/>
      <point x="219" y="692" type="curve" smooth="yes"/>
      <point x="136" y="692" type="line" smooth="yes"/>
      <point x="106" y="692"/>
      <point x="78" y="713"/>
      <point x="69" y="743" type="curve" smooth="yes"/>
      <point x="23" y="905"/>
      <point x="132" y="1066"/>
      <point x="293" y="1111" type="curve" smooth="yes"/>
      <point x="323" y="1119"/>
      <point x="355" y="1124"/>
      <point x="388" y="1124" type="curve" smooth="yes"/>
      <point x="537" y="1124"/>
      <point x="632" y="1028"/>
      <point x="688" y="964" type="curve" smooth="yes"/>
      <point x="735" y="909"/>
      <point x="758" y="897"/>
      <point x="788" y="897" type="curve" smooth="yes"/>
      <point x="852" y="897"/>
      <point x="868" y="920"/>
      <point x="868" y="970" type="curve" smooth="yes"/>
      <point x="868" y="984"/>
      <point x="866" y="1000"/>
      <point x="861" y="1018" type="curve" smooth="yes"/>
      <point x="860" y="1021"/>
      <point x="859" y="1027"/>
      <point x="859" y="1031" type="curve" smooth="yes"/>
      <point x="856" y="1071"/>
      <point x="889" y="1106"/>
      <point x="929" y="1106" type="curve" smooth="yes"/>
      <point x="1012" y="1106" type="line" smooth="yes"/>
      <point x="1041" y="1106"/>
      <point x="1072" y="1084"/>
      <point x="1080" y="1052" type="curve" smooth="yes"/>
      <point x="1121" y="882"/>
      <point x="1015" y="718"/>
      <point x="861" y="681" type="curve" smooth="yes"/>
      <point x="841" y="676"/>
      <point x="820" y="674"/>
    </contour>
    <contour>
      <point x="798" y="174" type="curve" smooth="yes"/>
      <point x="657" y="174"/>
      <point x="561" y="267"/>
      <point x="504" y="335" type="curve" smooth="yes"/>
      <point x="461" y="385"/>
      <point x="423" y="401"/>
      <point x="388" y="401" type="curve" smooth="yes"/>
      <point x="303" y="401"/>
      <point x="282" y="367"/>
      <point x="282" y="317" type="curve" smooth="yes"/>
      <point x="282" y="306"/>
      <point x="284" y="292"/>
      <point x="287" y="278" type="curve" smooth="yes"/>
      <point x="287" y="278"/>
      <point x="289" y="271"/>
      <point x="289" y="267" type="curve" smooth="yes"/>
      <point x="292" y="227"/>
      <point x="259" y="192"/>
      <point x="219" y="192" type="curve" smooth="yes"/>
      <point x="136" y="192" type="line" smooth="yes"/>
      <point x="106" y="192"/>
      <point x="78" y="213"/>
      <point x="69" y="243" type="curve" smooth="yes"/>
      <point x="23" y="405"/>
      <point x="132" y="566"/>
      <point x="293" y="611" type="curve" smooth="yes"/>
      <point x="323" y="619"/>
      <point x="355" y="624"/>
      <point x="388" y="624" type="curve" smooth="yes"/>
      <point x="537" y="624"/>
      <point x="632" y="528"/>
      <point x="688" y="464" type="curve" smooth="yes"/>
      <point x="735" y="409"/>
      <point x="758" y="397"/>
      <point x="788" y="397" type="curve" smooth="yes"/>
      <point x="852" y="397"/>
      <point x="868" y="420"/>
      <point x="868" y="470" type="curve" smooth="yes"/>
      <point x="868" y="484"/>
      <point x="866" y="500"/>
      <point x="861" y="518" type="curve" smooth="yes"/>
      <point x="860" y="521"/>
      <point x="859" y="527"/>
      <point x="859" y="531" type="curve" smooth="yes"/>
      <point x="856" y="571"/>
      <point x="889" y="606"/>
      <point x="929" y="606" type="curve" smooth="yes"/>
      <point x="1012" y="606" type="line" smooth="yes"/>
      <point x="1041" y="606"/>
      <point x="1072" y="584"/>
      <point x="1080" y="552" type="curve" smooth="yes"/>
      <point x="1121" y="382"/>
      <point x="1015" y="218"/>
      <point x="861" y="181" type="curve" smooth="yes"/>
      <point x="841" y="176"/>
      <point x="820" y="174"/>
    </contour>
  </outline>
</glyph>
<glyph name="lozenge" format="2">
  <advance width="1200"/>
  <unicode hex="25CA"/>
  <outline>
    <contour>
      <point x="612" y="30" type="line"/>
      <point x="1000" y="712" type="line"/>
      <point x="612" y="1392" type="line"/>
      <point x="200" y="712" type="line"/>
    </contour>
    <contour>
      <point x="612" y="430" type="line"/>
      <point x="440" y="712" type="line"/>
      <point x="612" y="972" type="line"/>
      <point x="758" y="712" type="line"/>
    </contour>
  </outline>
</glyph>
<glyph name="whitestar" format="2">
  <advance width="2000"/>
  <unicode hex="2606"/>
  <outline>
    <contour>
      <point x="1062" y="1500" type="curve" smooth="yes"/>
      <point x="1207" y="1062" type="line" smooth="yes"/>
      <point x="1225" y="1007"/>
      <point x="1224" y="1000"/>
      <point x="1300" y="1000" type="curve" smooth="yes"/>
      <point x="1808" y="1000" type="line" smooth="yes"/>
      <point x="1911" y="1000"/>
      <point x="1904" y="955"/>
      <point x="1856" y="920" type="curve" smooth="yes"/>
      <point x="1428" y="631" type="line" smooth="yes"/>
      <point x="1371" y="590"/>
      <point x="1369" y="586"/>
      <point x="1393" y="512" type="curve" smooth="yes"/>
      <point x="1570" y="-4" type="line" smooth="yes"/>
      <point x="1600" y="-96"/>
      <point x="1540" y="-104"/>
      <point x="1466" y="-50" type="curve" smooth="yes"/>
      <point x="1052" y="272" type="line" smooth="yes"/>
      <point x="1007" y="305"/>
      <point x="1002" y="312"/>
      <point x="956" y="278" type="curve" smooth="yes"/>
      <point x="532" y="-50" type="line" smooth="yes"/>
      <point x="457" y="-105"/>
      <point x="392" y="-98"/>
      <point x="428" y="10" type="curve" smooth="yes"/>
      <point x="611" y="522" type="line" smooth="yes"/>
      <point x="632" y="586"/>
      <point x="629" y="589"/>
      <point x="580" y="625" type="curve" smooth="yes"/>
      <point x="170" y="904" type="line" smooth="yes"/>
      <point x="119" y="941"/>
      <point x="104" y="1000"/>
      <point x="218" y="1000" type="curve" smooth="yes"/>
      <point x="718" y="1000" type="line" smooth="yes"/>
      <point x="786" y="1000"/>
      <point x="779" y="1019"/>
      <point x="795" y="1068" type="curve" smooth="yes"/>
      <point x="936" y="1500" type="line" smooth="yes"/>
      <point x="978" y="1630"/>
      <point x="1021" y="1625"/>
    </contour>
    <contour>
      <point x="1462" y="850" type="curve" smooth="yes"/>
      <point x="1253" y="840" type="line" smooth="yes"/>
      <point x="1162" y="836"/>
      <point x="1085" y="871"/>
      <point x="1068" y="945" type="curve" smooth="yes"/>
      <point x="1015" y="1176" type="line" smooth="yes"/>
      <point x="997" y="1253"/>
      <point x="998" y="1255"/>
      <point x="980" y="1176" type="curve" smooth="yes"/>
      <point x="929" y="949" type="line" smooth="yes"/>
      <point x="909" y="863"/>
      <point x="841" y="835"/>
      <point x="757" y="840" type="curve" smooth="yes"/>
      <point x="546" y="851" type="line" smooth="yes"/>
      <point x="454" y="856"/>
      <point x="480" y="850"/>
      <point x="534" y="819" type="curve" smooth="yes"/>
      <point x="736" y="704" type="line" smooth="yes"/>
      <point x="826" y="652"/>
      <point x="843" y="589"/>
      <point x="800" y="500" type="curve" smooth="yes"/>
      <point x="719" y="330" type="line" smooth="yes"/>
      <point x="672" y="231"/>
      <point x="683" y="249"/>
      <point x="754" y="310" type="curve" smooth="yes"/>
      <point x="918" y="452" type="line" smooth="yes"/>
      <point x="971" y="494"/>
      <point x="1040" y="488"/>
      <point x="1104" y="438" type="curve" smooth="yes"/>
      <point x="1274" y="294" type="line" smooth="yes"/>
      <point x="1331" y="245"/>
      <point x="1348" y="222"/>
      <point x="1305" y="306" type="curve" smooth="yes"/>
      <point x="1204" y="506" type="line" smooth="yes"/>
      <point x="1170" y="573"/>
      <point x="1184" y="665"/>
      <point x="1262" y="706" type="curve" smooth="yes"/>
      <point x="1472" y="818" type="line" smooth="yes"/>
      <point x="1528" y="848"/>
      <point x="1561" y="855"/>
    </contour>
  </outline>
</glyph>
<glyph name="copyright.ss01" format="2">
  <advance width="1125"/>
  <outline>
    <contour>
      <point x="562" y="1592" type="curve" smooth="yes"/>
      <point x="828" y="1592"/>
      <point x="1025" y="1395"/>
      <point x="1025" y="1130" type="curve" smooth="yes"/>
      <point x="1025" y="864"/>
      <point x="827" y="668"/>
      <point x="562" y="668" type="curve" smooth="yes"/>
      <point x="296" y="668"/>
      <point x="100" y="865"/>
      <point x="100" y="1130" type="curve" smooth="yes"/>
      <point x="100" y="1396"/>
      <point x="297" y="1592"/>
    </contour>
    <contour>
      <point x="562" y="724" type="curve" smooth="yes"/>
      <point x="792" y="724"/>
      <point x="968" y="889"/>
      <point x="968" y="1130" type="curve" smooth="yes"/>
      <point x="968" y="1371"/>
      <point x="791" y="1536"/>
      <point x="562" y="1536" type="curve" smooth="yes"/>
      <point x="332" y="1536"/>
      <point x="157" y="1371"/>
      <point x="157" y="1130" type="curve" smooth="yes"/>
      <point x="157" y="888"/>
      <point x="333" y="724"/>
    </contour>
    <contour>
      <point x="260" y="1124" type="curve" smooth="yes"/>
      <point x="260" y="1285"/>
      <point x="387" y="1408"/>
      <point x="562" y="1408" type="curve" smooth="yes"/>
      <point x="612" y="1408"/>
      <point x="652" y="1393"/>
      <point x="683" y="1369" type="curve" smooth="yes"/>
      <point x="698" y="1358"/>
      <point x="701" y="1359"/>
      <point x="713" y="1374" type="curve" smooth="yes"/>
      <point x="725" y="1390" type="line" smooth="yes"/>
      <point x="730" y="1397"/>
      <point x="733" y="1398"/>
      <point x="746" y="1398" type="curve" smooth="yes"/>
      <point x="796" y="1398" type="line" smooth="yes"/>
      <point x="814" y="1398"/>
      <point x="814" y="1395"/>
      <point x="814" y="1377" type="curve" smooth="yes"/>
      <point x="814" y="1205" type="line" smooth="yes"/>
      <point x="814" y="1191"/>
      <point x="812" y="1189"/>
      <point x="798" y="1189" type="curve" smooth="yes"/>
      <point x="722" y="1189" type="line" smooth="yes"/>
      <point x="705" y="1189"/>
      <point x="702" y="1193"/>
      <point x="699" y="1206" type="curve" smooth="yes"/>
      <point x="683" y="1271"/>
      <point x="649" y="1316"/>
      <point x="573" y="1316" type="curve" smooth="yes"/>
      <point x="498" y="1316"/>
      <point x="447" y="1248"/>
      <point x="447" y="1124" type="curve" smooth="yes"/>
      <point x="447" y="1000"/>
      <point x="498" y="936"/>
      <point x="580" y="936" type="curve" smooth="yes"/>
      <point x="647" y="936"/>
      <point x="700" y="976"/>
      <point x="714" y="1042" type="curve" smooth="yes"/>
      <point x="718" y="1062"/>
      <point x="720" y="1066"/>
      <point x="738" y="1066" type="curve" smooth="yes"/>
      <point x="809" y="1066" type="line" smooth="yes"/>
      <point x="828" y="1066"/>
      <point x="829" y="1062"/>
      <point x="827" y="1049" type="curve" smooth="yes"/>
      <point x="812" y="927"/>
      <point x="726" y="840"/>
      <point x="566" y="840" type="curve" smooth="yes"/>
      <point x="384" y="840"/>
      <point x="260" y="949"/>
    </contour>
  </outline>
</glyph>
<glyph name="d.sc" format="2">
  <advance width="1475"/>
  <anchor x="742" y="1040" name="Anchor-0"/>
  <anchor x="742" y="0" name="Anchor-1"/>
  <outline>
    <contour>
      <point x="35" y="30" type="curve" smooth="yes"/>
      <point x="35" y="205" type="line" smooth="yes"/>
      <point x="35" y="231"/>
      <point x="38" y="241"/>
      <point x="62" y="241" type="curve" smooth="yes"/>
      <point x="162" y="241" type="line" smooth="yes"/>
      <point x="186" y="241"/>
      <point x="188" y="245"/>
      <point x="188" y="268" type="curve" smooth="yes"/>
      <point x="188" y="769" type="line" smooth="yes"/>
      <point x="188" y="796"/>
      <point x="183" y="799"/>
      <point x="155" y="799" type="curve" smooth="yes"/>
      <point x="69" y="799" type="line" smooth="yes"/>
      <point x="36" y="799"/>
      <point x="35" y="807"/>
      <point x="35" y="842" type="curve" smooth="yes"/>
      <point x="35" y="993" type="line" smooth="yes"/>
      <point x="35" y="1029"/>
      <point x="39" y="1040"/>
      <point x="72" y="1040" type="curve" smooth="yes"/>
      <point x="716" y="1040" type="line" smooth="yes"/>
      <point x="962" y="1040"/>
      <point x="1155" y="998"/>
      <point x="1278" y="890" type="curve" smooth="yes"/>
      <point x="1374" y="806"/>
      <point x="1427" y="688"/>
      <point x="1427" y="520" type="curve" smooth="yes"/>
      <point x="1427" y="360"/>
      <point x="1364" y="224"/>
      <point x="1267" y="145" type="curve" smooth="yes"/>
      <point x="1139" y="40"/>
      <point x="969" y="0"/>
      <point x="716" y="0" type="curve" smooth="yes"/>
      <point x="68" y="0" type="line" smooth="yes"/>
      <point x="43" y="0"/>
      <point x="35" y="2"/>
    </contour>
    <contour>
      <point x="648" y="241" type="curve" smooth="yes"/>
      <point x="712" y="241" type="line" smooth="yes"/>
      <point x="791" y="241"/>
      <point x="852" y="264"/>
      <point x="896" y="310" type="curve" smooth="yes"/>
      <point x="940" y="356"/>
      <point x="962" y="426"/>
      <point x="962" y="520" type="curve" smooth="yes"/>
      <point x="962" y="614"/>
      <point x="938" y="684"/>
      <point x="891" y="730" type="curve" smooth="yes"/>
      <point x="844" y="776"/>
      <point x="784" y="799"/>
      <point x="712" y="799" type="curve" smooth="yes"/>
      <point x="649" y="799" type="line" smooth="yes"/>
      <point x="618" y="799"/>
      <point x="608" y="796"/>
      <point x="608" y="766" type="curve" smooth="yes"/>
      <point x="608" y="269" type="line" smooth="yes"/>
      <point x="608" y="242"/>
      <point x="619" y="241"/>
    </contour>
  </outline>
</glyph>
<glyph name="f.sc" format="2">
  <advance width="1311"/>
  <anchor x="666" y="1040" name="Anchor-0"/>
  <anchor x="407" y="0" name="Anchor-1"/>
  <outline>
    <contour>
      <point x="163" y="799" type="curve" smooth="yes"/>
      <point x="52" y="799" type="line" smooth="yes"/>
      <point x="34" y="799"/>
      <point x="35" y="809"/>
      <point x="35" y="828" type="curve" smooth="yes"/>
      <point x="35" y="1017" type="line" smooth="yes"/>
      <point x="35" y="1038"/>
      <point x="39" y="1040"/>
      <point x="58" y="1040" type="curve" smooth="yes"/>
      <point x="1237" y="1040" type="line" smooth="yes"/>
      <point x="1265" y="1040"/>
      <point x="1267" y="1032"/>
      <point x="1267" y="1004" type="curve" smooth="yes"/>
      <point x="1267" y="646" type="line" smooth="yes"/>
      <point x="1267" y="630"/>
      <point x="1256" y="631"/>
      <point x="1235" y="631" type="curve" smooth="yes"/>
      <point x="1076" y="631" type="line" smooth="yes"/>
      <point x="1050" y="631"/>
      <point x="1037" y="628"/>
      <point x="1035" y="648" type="curve" smooth="yes"/>
      <point x="1030" y="772"/>
      <point x="967" y="799"/>
      <point x="821" y="799" type="curve" smooth="yes"/>
      <point x="640" y="799" type="line" smooth="yes"/>
      <point x="620" y="799"/>
      <point x="608" y="801"/>
      <point x="608" y="783" type="curve" smooth="yes"/>
      <point x="608" y="612" type="line" smooth="yes"/>
      <point x="608" y="607"/>
      <point x="610" y="605"/>
      <point x="614" y="605" type="curve" smooth="yes"/>
      <point x="615" y="605" type="line" smooth="yes"/>
      <point x="682" y="605"/>
      <point x="748" y="650"/>
      <point x="753" y="710" type="curve" smooth="yes"/>
      <point x="755" y="718"/>
      <point x="754" y="718"/>
      <point x="766" y="718" type="curve" smooth="yes"/>
      <point x="903" y="718" type="line" smooth="yes"/>
      <point x="919" y="718"/>
      <point x="924" y="716"/>
      <point x="924" y="703" type="curve" smooth="yes"/>
      <point x="924" y="306" type="line" smooth="yes"/>
      <point x="924" y="297"/>
      <point x="914" y="292"/>
      <point x="895" y="292" type="curve" smooth="yes"/>
      <point x="788" y="292" type="line" smooth="yes"/>
      <point x="767" y="292"/>
      <point x="756" y="291"/>
      <point x="753" y="305" type="curve" smooth="yes"/>
      <point x="745" y="360"/>
      <point x="681" y="406"/>
      <point x="618" y="406" type="curve" smooth="yes"/>
      <point x="617" y="406" type="line" smooth="yes"/>
      <point x="611" y="406"/>
      <point x="608" y="404"/>
      <point x="608" y="400" type="curve" smooth="yes"/>
      <point x="608" y="263" type="line" smooth="yes"/>
      <point x="608" y="241"/>
      <point x="615" y="241"/>
      <point x="640" y="241" type="curve" smooth="yes"/>
      <point x="765" y="241" type="line" smooth="yes"/>
      <point x="799" y="241"/>
      <point x="798" y="242"/>
      <point x="798" y="208" type="curve" smooth="yes"/>
      <point x="798" y="42" type="line" smooth="yes"/>
      <point x="798" y="4"/>
      <point x="794" y="0"/>
      <point x="756" y="0" type="curve" smooth="yes"/>
      <point x="63" y="0" type="line" smooth="yes"/>
      <point x="38" y="0"/>
      <point x="35" y="4"/>
      <point x="35" y="31" type="curve" smooth="yes"/>
      <point x="35" y="215" type="line" smooth="yes"/>
      <point x="35" y="239"/>
      <point x="39" y="241"/>
      <point x="61" y="241" type="curve" smooth="yes"/>
      <point x="158" y="241" type="line" smooth="yes"/>
      <point x="185" y="241"/>
      <point x="188" y="243"/>
      <point x="188" y="269" type="curve" smooth="yes"/>
      <point x="188" y="779" type="line" smooth="yes"/>
      <point x="188" y="792"/>
      <point x="180" y="799"/>
    </contour>
  </outline>
</glyph>
<glyph name="f_f_i.liga" format="2">
  <advance height="2310" width="2430"/>
  <outline>
    <contour>
      <point x="662" y="1040" type="curve" smooth="yes"/>
      <point x="994" y="1040" type="line" smooth="yes"/>
      <point x="1011" y="1040"/>
      <point x="1020" y="1045"/>
      <point x="1020" y="1054" type="curve" smooth="yes"/>
      <point x="1020" y="1055" type="line" smooth="yes"/>
      <point x="1020" y="1064"/>
      <point x="987" y="1070"/>
      <point x="974" y="1072" type="curve" smooth="yes"/>
      <point x="871" y="1088"/>
      <point x="806" y="1142"/>
      <point x="806" y="1232" type="curve" smooth="yes"/>
      <point x="806" y="1326"/>
      <point x="878" y="1348"/>
      <point x="878" y="1370" type="curve" smooth="yes"/>
      <point x="878" y="1384"/>
      <point x="850" y="1386"/>
      <point x="830" y="1386" type="curve" smooth="yes"/>
      <point x="750" y="1386"/>
      <point x="640" y="1314"/>
      <point x="640" y="1070" type="curve" smooth="yes"/>
      <point x="640" y="1049"/>
      <point x="641" y="1040"/>
    </contour>
    <contour>
      <point x="40" y="34" type="curve" smooth="yes"/>
      <point x="40" y="162" type="line" smooth="yes"/>
      <point x="40" y="201"/>
      <point x="42" y="210"/>
      <point x="81" y="210" type="curve" smooth="yes"/>
      <point x="183" y="210" type="line" smooth="yes"/>
      <point x="218" y="210"/>
      <point x="220" y="218"/>
      <point x="220" y="254" type="curve" smooth="yes"/>
      <point x="220" y="786" type="line" smooth="yes"/>
      <point x="220" y="824"/>
      <point x="216" y="830"/>
      <point x="179" y="830" type="curve" smooth="yes"/>
      <point x="67" y="830" type="line" smooth="yes"/>
      <point x="40" y="830"/>
      <point x="40" y="840"/>
      <point x="40" y="867" type="curve" smooth="yes"/>
      <point x="40" y="1004" type="line" smooth="yes"/>
      <point x="40" y="1033"/>
      <point x="44" y="1040"/>
      <point x="72" y="1040" type="curve" smooth="yes"/>
      <point x="185" y="1040" type="line" smooth="yes"/>
      <point x="214" y="1040"/>
      <point x="220" y="1045"/>
      <point x="220" y="1073" type="curve" smooth="yes"/>
      <point x="220" y="1104" type="line" smooth="yes"/>
      <point x="220" y="1326"/>
      <point x="414" y="1560"/>
      <point x="814" y="1560" type="curve" smooth="yes"/>
      <point x="959" y="1560"/>
      <point x="1068" y="1532"/>
      <point x="1144" y="1487" type="curve" smooth="yes"/>
      <point x="1192" y="1459"/>
      <point x="1186" y="1458"/>
      <point x="1233" y="1488" type="curve" smooth="yes"/>
      <point x="1338" y="1556"/>
      <point x="1481" y="1600"/>
      <point x="1654" y="1600" type="curve" smooth="yes"/>
      <point x="1976" y="1600"/>
      <point x="2140" y="1462"/>
      <point x="2140" y="1308" type="curve" smooth="yes"/>
      <point x="2140" y="1188"/>
      <point x="2030" y="1106"/>
      <point x="1906" y="1106" type="curve" smooth="yes"/>
      <point x="1762" y="1106"/>
      <point x="1666" y="1162"/>
      <point x="1666" y="1272" type="curve" smooth="yes"/>
      <point x="1666" y="1366"/>
      <point x="1738" y="1388"/>
      <point x="1738" y="1410" type="curve" smooth="yes"/>
      <point x="1738" y="1424"/>
      <point x="1700" y="1426"/>
      <point x="1680" y="1426" type="curve" smooth="yes"/>
      <point x="1580" y="1426"/>
      <point x="1440" y="1354"/>
      <point x="1440" y="1100" type="curve" smooth="yes"/>
      <point x="1440" y="1060" type="line" smooth="yes"/>
      <point x="1440" y="1041"/>
      <point x="1449" y="1040"/>
      <point x="1468" y="1040" type="curve" smooth="yes"/>
      <point x="2185" y="1040" type="line" smooth="yes"/>
      <point x="2233" y="1040"/>
      <point x="2240" y="1035"/>
      <point x="2240" y="985" type="curve" smooth="yes"/>
      <point x="2240" y="258" type="line" smooth="yes"/>
      <point x="2240" y="218"/>
      <point x="2244" y="210"/>
      <point x="2286" y="210" type="curve" smooth="yes"/>
      <point x="2370" y="210" type="line" smooth="yes"/>
      <point x="2405" y="210"/>
      <point x="2420" y="209"/>
      <point x="2420" y="171" type="curve" smooth="yes"/>
      <point x="2420" y="30" type="line" smooth="yes"/>
      <point x="2420" y="6"/>
      <point x="2414" y="0"/>
      <point x="2388" y="0" type="curve" smooth="yes"/>
      <point x="1683" y="0" type="line" smooth="yes"/>
      <point x="1653" y="0"/>
      <point x="1650" y="7"/>
      <point x="1650" y="38" type="curve" smooth="yes"/>
      <point x="1650" y="171" type="line" smooth="yes"/>
      <point x="1650" y="204"/>
      <point x="1655" y="210"/>
      <point x="1690" y="210" type="curve" smooth="yes"/>
      <point x="1787" y="210" type="line" smooth="yes"/>
      <point x="1817" y="210"/>
      <point x="1820" y="218"/>
      <point x="1820" y="249" type="curve" smooth="yes"/>
      <point x="1820" y="778" type="line" smooth="yes"/>
      <point x="1820" y="828"/>
      <point x="1812" y="830"/>
      <point x="1762" y="830" type="curve" smooth="yes"/>
      <point x="1492" y="830" type="line" smooth="yes"/>
      <point x="1444" y="830"/>
      <point x="1440" y="824"/>
      <point x="1440" y="774" type="curve" smooth="yes"/>
      <point x="1440" y="249" type="line" smooth="yes"/>
      <point x="1440" y="211"/>
      <point x="1449" y="210"/>
      <point x="1488" y="210" type="curve" smooth="yes"/>
      <point x="1552" y="210" type="line" smooth="yes"/>
      <point x="1589" y="210"/>
      <point x="1590" y="201"/>
      <point x="1590" y="163" type="curve" smooth="yes"/>
      <point x="1590" y="38" type="line" smooth="yes"/>
      <point x="1590" y="1"/>
      <point x="1575" y="0"/>
      <point x="1542" y="0" type="curve" smooth="yes"/>
      <point x="897" y="0" type="line" smooth="yes"/>
      <point x="871" y="0"/>
      <point x="860" y="3"/>
      <point x="860" y="32" type="curve" smooth="yes"/>
      <point x="860" y="174" type="line" smooth="yes"/>
      <point x="860" y="207"/>
      <point x="867" y="210"/>
      <point x="901" y="210" type="curve" smooth="yes"/>
      <point x="993" y="210" type="line" smooth="yes"/>
      <point x="1017" y="210"/>
      <point x="1020" y="217"/>
      <point x="1020" y="242" type="curve" smooth="yes"/>
      <point x="1020" y="778" type="line" smooth="yes"/>
      <point x="1020" y="821"/>
      <point x="1018" y="830"/>
      <point x="975" y="830" type="curve" smooth="yes"/>
      <point x="683" y="830" type="line" smooth="yes"/>
      <point x="650" y="830"/>
      <point x="640" y="829"/>
      <point x="640" y="796" type="curve" smooth="yes"/>
      <point x="640" y="240" type="line" smooth="yes"/>
      <point x="640" y="218"/>
      <point x="645" y="210"/>
      <point x="669" y="210" type="curve" smooth="yes"/>
      <point x="745" y="210" type="line" smooth="yes"/>
      <point x="770" y="210"/>
      <point x="780" y="209"/>
      <point x="780" y="184" type="curve" smooth="yes"/>
      <point x="780" y="39" type="line" smooth="yes"/>
      <point x="780" y="8"/>
      <point x="777" y="0"/>
      <point x="747" y="0" type="curve" smooth="yes"/>
      <point x="65" y="0" type="line" smooth="yes"/>
      <point x="41" y="0"/>
      <point x="40" y="9"/>
    </contour>
  </outline>
</glyph>
<glyph name="f_f_l.liga" format="2">
  <advance height="2310" width="2460"/>
  <outline>
    <contour>
      <point x="668" y="1040" type="curve" smooth="yes"/>
      <point x="996" y="1040" type="line" smooth="yes"/>
      <point x="1011" y="1040"/>
      <point x="1020" y="1041"/>
      <point x="1020" y="1056" type="curve" smooth="yes"/>
      <point x="1020" y="1058" type="line" smooth="yes"/>
      <point x="1020" y="1068"/>
      <point x="1018" y="1067"/>
      <point x="1009" y="1068" type="curve" smooth="yes"/>
      <point x="886" y="1077"/>
      <point x="806" y="1132"/>
      <point x="806" y="1232" type="curve" smooth="yes"/>
      <point x="806" y="1326"/>
      <point x="878" y="1348"/>
      <point x="878" y="1370" type="curve" smooth="yes"/>
      <point x="878" y="1384"/>
      <point x="850" y="1386"/>
      <point x="830" y="1386" type="curve" smooth="yes"/>
      <point x="750" y="1386"/>
      <point x="640" y="1314"/>
      <point x="640" y="1070" type="curve" smooth="yes"/>
      <point x="640" y="1046"/>
      <point x="645" y="1040"/>
    </contour>
    <contour>
      <point x="40" y="40" type="curve" smooth="yes"/>
      <point x="40" y="174" type="line" smooth="yes"/>
      <point x="40" y="202"/>
      <point x="45" y="210"/>
      <point x="75" y="210" type="curve" smooth="yes"/>
      <point x="180" y="210" type="line" smooth="yes"/>
      <point x="213" y="210"/>
      <point x="220" y="214"/>
      <point x="220" y="246" type="curve" smooth="yes"/>
      <point x="220" y="790" type="line" smooth="yes"/>
      <point x="220" y="825"/>
      <point x="199" y="830"/>
      <point x="168" y="830" type="curve" smooth="yes"/>
      <point x="86" y="830" type="line" smooth="yes"/>
      <point x="45" y="830"/>
      <point x="40" y="837"/>
      <point x="40" y="877" type="curve" smooth="yes"/>
      <point x="40" y="999" type="line" smooth="yes"/>
      <point x="40" y="1031"/>
      <point x="42" y="1040"/>
      <point x="74" y="1040" type="curve" smooth="yes"/>
      <point x="186" y="1040" type="line" smooth="yes"/>
      <point x="218" y="1040"/>
      <point x="220" y="1048"/>
      <point x="220" y="1081" type="curve" smooth="yes"/>
      <point x="220" y="1104" type="line" smooth="yes"/>
      <point x="220" y="1326"/>
      <point x="414" y="1560"/>
      <point x="814" y="1560" type="curve" smooth="yes"/>
      <point x="955" y="1560"/>
      <point x="1062" y="1534"/>
      <point x="1138" y="1491" type="curve" smooth="yes"/>
      <point x="1182" y="1466"/>
      <point x="1180" y="1453"/>
      <point x="1223" y="1482" type="curve" smooth="yes"/>
      <point x="1329" y="1554"/>
      <point x="1476" y="1600"/>
      <point x="1654" y="1600" type="curve" smooth="yes"/>
      <point x="1817" y="1600"/>
      <point x="1939" y="1564"/>
      <point x="2020" y="1510" type="curve" smooth="yes"/>
      <point x="2051" y="1489"/>
      <point x="2051" y="1486"/>
      <point x="2086" y="1504" type="curve" smooth="yes"/>
      <point x="2201" y="1564" type="line" smooth="yes"/>
      <point x="2243" y="1586"/>
      <point x="2270" y="1585"/>
      <point x="2270" y="1506" type="curve" smooth="yes"/>
      <point x="2270" y="243" type="line" smooth="yes"/>
      <point x="2270" y="218"/>
      <point x="2275" y="210"/>
      <point x="2302" y="210" type="curve" smooth="yes"/>
      <point x="2415" y="210" type="line" smooth="yes"/>
      <point x="2445" y="210"/>
      <point x="2450" y="204"/>
      <point x="2450" y="172" type="curve" smooth="yes"/>
      <point x="2450" y="33" type="line" smooth="yes"/>
      <point x="2450" y="1"/>
      <point x="2441" y="0"/>
      <point x="2409" y="0" type="curve" smooth="yes"/>
      <point x="1703" y="0" type="line" smooth="yes"/>
      <point x="1673" y="0"/>
      <point x="1670" y="7"/>
      <point x="1670" y="38" type="curve" smooth="yes"/>
      <point x="1670" y="176" type="line" smooth="yes"/>
      <point x="1670" y="202"/>
      <point x="1675" y="210"/>
      <point x="1703" y="210" type="curve" smooth="yes"/>
      <point x="1809" y="210" type="line" smooth="yes"/>
      <point x="1841" y="210"/>
      <point x="1850" y="212"/>
      <point x="1850" y="244" type="curve" smooth="yes"/>
      <point x="1850" y="1068" type="line" smooth="yes"/>
      <point x="1850" y="1098"/>
      <point x="1837" y="1091"/>
      <point x="1815" y="1097" type="curve" smooth="yes"/>
      <point x="1723" y="1122"/>
      <point x="1666" y="1187"/>
      <point x="1666" y="1272" type="curve" smooth="yes"/>
      <point x="1666" y="1366"/>
      <point x="1738" y="1388"/>
      <point x="1738" y="1410" type="curve" smooth="yes"/>
      <point x="1738" y="1424"/>
      <point x="1700" y="1426"/>
      <point x="1680" y="1426" type="curve" smooth="yes"/>
      <point x="1580" y="1426"/>
      <point x="1440" y="1354"/>
      <point x="1440" y="1100" type="curve" smooth="yes"/>
      <point x="1440" y="1079" type="line" smooth="yes"/>
      <point x="1440" y="1046"/>
      <point x="1445" y="1040"/>
      <point x="1477" y="1040" type="curve" smooth="yes"/>
      <point x="1607" y="1040" type="line" smooth="yes"/>
      <point x="1632" y="1040"/>
      <point x="1640" y="1038"/>
      <point x="1640" y="1014" type="curve" smooth="yes"/>
      <point x="1640" y="867" type="line" smooth="yes"/>
      <point x="1640" y="838"/>
      <point x="1637" y="830"/>
      <point x="1609" y="830" type="curve" smooth="yes"/>
      <point x="1481" y="830" type="line" smooth="yes"/>
      <point x="1448" y="830"/>
      <point x="1440" y="826"/>
      <point x="1440" y="790" type="curve" smooth="yes"/>
      <point x="1440" y="252" type="line" smooth="yes"/>
      <point x="1440" y="212"/>
      <point x="1448" y="210"/>
      <point x="1489" y="210" type="curve" smooth="yes"/>
      <point x="1539" y="210" type="line" smooth="yes"/>
      <point x="1577" y="210"/>
      <point x="1590" y="208"/>
      <point x="1590" y="167" type="curve" smooth="yes"/>
      <point x="1590" y="43" type="line" smooth="yes"/>
      <point x="1590" y="3"/>
      <point x="1579" y="0"/>
      <point x="1541" y="0" type="curve" smooth="yes"/>
      <point x="895" y="0" type="line" smooth="yes"/>
      <point x="864" y="0"/>
      <point x="860" y="7"/>
      <point x="860" y="39" type="curve" smooth="yes"/>
      <point x="860" y="171" type="line" smooth="yes"/>
      <point x="860" y="204"/>
      <point x="864" y="210"/>
      <point x="896" y="210" type="curve" smooth="yes"/>
      <point x="988" y="210" type="line" smooth="yes"/>
      <point x="1018" y="210"/>
      <point x="1020" y="225"/>
      <point x="1020" y="252" type="curve" smooth="yes"/>
      <point x="1020" y="787" type="line" smooth="yes"/>
      <point x="1020" y="829"/>
      <point x="1005" y="830"/>
      <point x="966" y="830" type="curve" smooth="yes"/>
      <point x="680" y="830" type="line" smooth="yes"/>
      <point x="646" y="830"/>
      <point x="640" y="826"/>
      <point x="640" y="793" type="curve" smooth="yes"/>
      <point x="640" y="239" type="line" smooth="yes"/>
      <point x="640" y="211"/>
      <point x="649" y="210"/>
      <point x="678" y="210" type="curve" smooth="yes"/>
      <point x="749" y="210" type="line" smooth="yes"/>
      <point x="775" y="210"/>
      <point x="780" y="204"/>
      <point x="780" y="176" type="curve" smooth="yes"/>
      <point x="780" y="34" type="line" smooth="yes"/>
      <point x="780" y="8"/>
      <point x="777" y="0"/>
      <point x="752" y="0" type="curve" smooth="yes"/>
      <point x="76" y="0" type="line" smooth="yes"/>
      <point x="44" y="0"/>
      <point x="40" y="7"/>
    </contour>
  </outline>
</glyph>
<glyph name="five.osf" format="2">
  <advance height="2310" width="1300"/>
  <outline>
    <contour>
      <point x="65" y="-142" type="curve" smooth="yes"/>
      <point x="65" y="4"/>
      <point x="165" y="90"/>
      <point x="293" y="90" type="curve" smooth="yes"/>
      <point x="417" y="90"/>
      <point x="497" y="8"/>
      <point x="497" y="-76" type="curve" smooth="yes"/>
      <point x="497" y="-168"/>
      <point x="423" y="-208"/>
      <point x="423" y="-254" type="curve" smooth="yes"/>
      <point x="423" y="-298"/>
      <point x="479" y="-316"/>
      <point x="557" y="-316" type="curve" smooth="yes"/>
      <point x="715" y="-316"/>
      <point x="843" y="-158"/>
      <point x="843" y="50" type="curve" smooth="yes"/>
      <point x="843" y="268"/>
      <point x="725" y="352"/>
      <point x="607" y="352" type="curve" smooth="yes"/>
      <point x="528" y="352"/>
      <point x="426" y="303"/>
      <point x="340" y="195" type="curve" smooth="yes"/>
      <point x="324" y="174"/>
      <point x="313" y="164"/>
      <point x="274" y="164" type="curve" smooth="yes"/>
      <point x="210" y="164" type="line" smooth="yes"/>
      <point x="156" y="164"/>
      <point x="161" y="182"/>
      <point x="166" y="226" type="curve" smooth="yes"/>
      <point x="258" y="1000" type="line" smooth="yes"/>
      <point x="262" y="1038"/>
      <point x="272" y="1040"/>
      <point x="314" y="1040" type="curve" smooth="yes"/>
      <point x="679" y="1040" type="line" smooth="yes"/>
      <point x="880" y="1040"/>
      <point x="942" y="1008"/>
      <point x="1008" y="1083" type="curve" smooth="yes"/>
      <point x="1021" y="1098"/>
      <point x="1031" y="1104"/>
      <point x="1062" y="1104" type="curve" smooth="yes"/>
      <point x="1167" y="1104" type="line" smooth="yes"/>
      <point x="1193" y="1104"/>
      <point x="1204" y="1097"/>
      <point x="1199" y="1074" type="curve" smooth="yes"/>
      <point x="1191" y="1040" type="line" smooth="yes"/>
      <point x="1155" y="876"/>
      <point x="1119" y="660"/>
      <point x="645" y="660" type="curve" smooth="yes"/>
      <point x="420" y="660" type="line" smooth="yes"/>
      <point x="382" y="660"/>
      <point x="378" y="651"/>
      <point x="373" y="618" type="curve" smooth="yes"/>
      <point x="353" y="470" type="line" smooth="yes"/>
      <point x="347" y="432"/>
      <point x="331" y="390"/>
      <point x="339" y="386" type="curve" smooth="yes"/>
      <point x="354" y="377"/>
      <point x="362" y="412"/>
      <point x="394" y="436" type="curve" smooth="yes"/>
      <point x="470" y="492"/>
      <point x="580" y="540"/>
      <point x="721" y="540" type="curve" smooth="yes"/>
      <point x="1063" y="540"/>
      <point x="1245" y="320"/>
      <point x="1245" y="40" type="curve" smooth="yes"/>
      <point x="1245" y="-300"/>
      <point x="979" y="-480"/>
      <point x="597" y="-480" type="curve" smooth="yes"/>
      <point x="293" y="-480"/>
      <point x="65" y="-346"/>
    </contour>
  </outline>
</glyph>
<glyph name="four.osf" format="2">
  <advance height="2310" width="1310"/>
  <outline>
    <contour>
      <point x="1260" y="-296" type="curve" smooth="yes"/>
      <point x="1260" y="-424" type="line" smooth="yes"/>
      <point x="1260" y="-457"/>
      <point x="1252" y="-460"/>
      <point x="1218" y="-460" type="curve" smooth="yes"/>
      <point x="486" y="-460" type="line" smooth="yes"/>
      <point x="439" y="-460"/>
      <point x="430" y="-459"/>
      <point x="430" y="-412" type="curve" smooth="yes"/>
      <point x="430" y="-295" type="line" smooth="yes"/>
      <point x="430" y="-259"/>
      <point x="437" y="-250"/>
      <point x="474" y="-250" type="curve" smooth="yes"/>
      <point x="623" y="-250" type="line" smooth="yes"/>
      <point x="667" y="-250"/>
      <point x="670" y="-243"/>
      <point x="670" y="-198" type="curve" smooth="yes"/>
      <point x="670" y="-104" type="line" smooth="yes"/>
      <point x="670" y="-50"/>
      <point x="670" y="-50"/>
      <point x="616" y="-50" type="curve" smooth="yes"/>
      <point x="118" y="-50" type="line" smooth="yes"/>
      <point x="75" y="-50"/>
      <point x="75" y="-42"/>
      <point x="61" y="-16" type="curve" smooth="yes"/>
      <point x="30" y="42" type="line" smooth="yes"/>
      <point x="18" y="63"/>
      <point x="25" y="72"/>
      <point x="36" y="94" type="curve" smooth="yes"/>
      <point x="193" y="408"/>
      <point x="605" y="588"/>
      <point x="708" y="984" type="curve" smooth="yes"/>
      <point x="719" y="1026"/>
      <point x="720" y="1040"/>
      <point x="776" y="1040" type="curve" smooth="yes"/>
      <point x="1046" y="1040" type="line" smooth="yes"/>
      <point x="1099" y="1040"/>
      <point x="1108" y="1035"/>
      <point x="1100" y="988" type="curve" smooth="yes"/>
      <point x="1036" y="602"/>
      <point x="557" y="451"/>
      <point x="361" y="232" type="curve" smooth="yes"/>
      <point x="334" y="202"/>
      <point x="309" y="160"/>
      <point x="387" y="160" type="curve" smooth="yes"/>
      <point x="632" y="160" type="line" smooth="yes"/>
      <point x="667" y="160"/>
      <point x="670" y="168"/>
      <point x="670" y="204" type="curve" smooth="yes"/>
      <point x="670" y="250" type="line" smooth="yes"/>
      <point x="670" y="297"/>
      <point x="681" y="294"/>
      <point x="712" y="311" type="curve" smooth="yes"/>
      <point x="778" y="346"/>
      <point x="867" y="394"/>
      <point x="908" y="480" type="curve" smooth="yes"/>
      <point x="917" y="500"/>
      <point x="923" y="510"/>
      <point x="954" y="510" type="curve" smooth="yes"/>
      <point x="1020" y="510" type="line" smooth="yes"/>
      <point x="1051" y="510"/>
      <point x="1060" y="509"/>
      <point x="1060" y="478" type="curve" smooth="yes"/>
      <point x="1060" y="218" type="line" smooth="yes"/>
      <point x="1060" y="185"/>
      <point x="1069" y="160"/>
      <point x="1106" y="160" type="curve" smooth="yes"/>
      <point x="1254" y="160" type="line" smooth="yes"/>
      <point x="1286" y="160"/>
      <point x="1290" y="152"/>
      <point x="1290" y="122" type="curve" smooth="yes"/>
      <point x="1290" y="6" type="line" smooth="yes"/>
      <point x="1290" y="-40"/>
      <point x="1290" y="-50"/>
      <point x="1244" y="-50" type="curve" smooth="yes"/>
      <point x="1114" y="-50" type="line" smooth="yes"/>
      <point x="1073" y="-50"/>
      <point x="1060" y="-54"/>
      <point x="1060" y="-98" type="curve" smooth="yes"/>
      <point x="1060" y="-198" type="line" smooth="yes"/>
      <point x="1060" y="-243"/>
      <point x="1065" y="-250"/>
      <point x="1112" y="-250" type="curve" smooth="yes"/>
      <point x="1216" y="-250" type="line" smooth="yes"/>
      <point x="1255" y="-250"/>
      <point x="1260" y="-256"/>
    </contour>
  </outline>
</glyph>
<glyph name="m.sc" format="2">
  <advance width="1759"/>
  <anchor x="858" y="1040" name="Anchor-0"/>
  <anchor x="788" y="5" name="Anchor-1"/>
  <outline>
    <contour>
      <point x="163" y="799" type="curve" smooth="yes"/>
      <point x="84" y="799" type="line" smooth="yes"/>
      <point x="47" y="799"/>
      <point x="50" y="801"/>
      <point x="50" y="841" type="curve" smooth="yes"/>
      <point x="50" y="1012" type="line" smooth="yes"/>
      <point x="50" y="1047"/>
      <point x="61" y="1040"/>
      <point x="89" y="1040" type="curve" smooth="yes"/>
      <point x="622" y="1040" type="line" smooth="yes"/>
      <point x="680" y="1040"/>
      <point x="671" y="1023"/>
      <point x="688" y="983" type="curve" smooth="yes"/>
      <point x="862" y="574" type="line" smooth="yes"/>
      <point x="870" y="552"/>
      <point x="877" y="531"/>
      <point x="882" y="511" type="curve" smooth="yes"/>
      <point x="891" y="477"/>
      <point x="908" y="469"/>
      <point x="922" y="499" type="curve" smooth="yes"/>
      <point x="928" y="511"/>
      <point x="935" y="529"/>
      <point x="944" y="552" type="curve" smooth="yes"/>
      <point x="1139" y="1012" type="line" smooth="yes"/>
      <point x="1150" y="1038"/>
      <point x="1151" y="1040"/>
      <point x="1189" y="1040" type="curve" smooth="yes"/>
      <point x="1676" y="1040" type="line" smooth="yes"/>
      <point x="1717" y="1040"/>
      <point x="1724" y="1049"/>
      <point x="1724" y="1002" type="curve" smooth="yes"/>
      <point x="1724" y="845" type="line" smooth="yes"/>
      <point x="1724" y="800"/>
      <point x="1737" y="799"/>
      <point x="1691" y="799" type="curve" smooth="yes"/>
      <point x="1599" y="799" type="line" smooth="yes"/>
      <point x="1566" y="799"/>
      <point x="1566" y="802"/>
      <point x="1566" y="774" type="curve" smooth="yes"/>
      <point x="1566" y="265" type="line" smooth="yes"/>
      <point x="1566" y="241"/>
      <point x="1557" y="241"/>
      <point x="1589" y="241" type="curve" smooth="yes"/>
      <point x="1700" y="241" type="line" smooth="yes"/>
      <point x="1725" y="241"/>
      <point x="1725" y="232"/>
      <point x="1725" y="204" type="curve" smooth="yes"/>
      <point x="1725" y="49" type="line" smooth="yes"/>
      <point x="1725" y="14"/>
      <point x="1725" y="0"/>
      <point x="1691" y="0" type="curve" smooth="yes"/>
      <point x="1066" y="0" type="line" smooth="yes"/>
      <point x="1032" y="0"/>
      <point x="1034" y="11"/>
      <point x="1034" y="47" type="curve" smooth="yes"/>
      <point x="1034" y="199" type="line" smooth="yes"/>
      <point x="1034" y="236"/>
      <point x="1038" y="241"/>
      <point x="1071" y="241" type="curve" smooth="yes"/>
      <point x="1145" y="241" type="line" smooth="yes"/>
      <point x="1171" y="241"/>
      <point x="1204" y="245"/>
      <point x="1204" y="271" type="curve" smooth="yes"/>
      <point x="1203" y="533" type="line" smooth="yes"/>
      <point x="1202" y="574"/>
      <point x="1200" y="611"/>
      <point x="1197" y="644" type="curve" smooth="yes"/>
      <point x="1194" y="677"/>
      <point x="1187" y="693"/>
      <point x="1176" y="693" type="curve" smooth="yes"/>
      <point x="1167" y="693"/>
      <point x="1161" y="687"/>
      <point x="1158" y="676" type="curve" smooth="yes"/>
      <point x="1155" y="665"/>
      <point x="1148" y="647"/>
      <point x="1137" y="621" type="curve" smooth="yes"/>
      <point x="914" y="19" type="line" smooth="yes"/>
      <point x="902" y="-14"/>
      <point x="900" y="-21"/>
      <point x="858" y="-21" type="curve" smooth="yes"/>
      <point x="733" y="-21" type="line" smooth="yes"/>
      <point x="690" y="-21"/>
      <point x="689" y="-13"/>
      <point x="676" y="19" type="curve" smooth="yes"/>
      <point x="447" y="600" type="line" smooth="yes"/>
      <point x="441" y="615"/>
      <point x="435" y="631"/>
      <point x="430" y="650" type="curve" smooth="yes"/>
      <point x="425" y="669"/>
      <point x="413" y="722"/>
      <point x="397" y="722" type="curve" smooth="yes"/>
      <point x="388" y="722"/>
      <point x="384" y="698"/>
      <point x="384" y="650" type="curve" smooth="yes"/>
      <point x="386" y="282" type="line" smooth="yes"/>
      <point x="386" y="247"/>
      <point x="373" y="241"/>
      <point x="419" y="241" type="curve" smooth="yes"/>
      <point x="511" y="241" type="line" smooth="yes"/>
      <point x="540" y="241"/>
      <point x="541" y="233"/>
      <point x="541" y="201" type="curve" smooth="yes"/>
      <point x="541" y="46" type="line" smooth="yes"/>
      <point x="541" y="6"/>
      <point x="537" y="0"/>
      <point x="501" y="0" type="curve" smooth="yes"/>
      <point x="71" y="0" type="line" smooth="yes"/>
      <point x="34" y="0"/>
      <point x="35" y="9"/>
      <point x="35" y="49" type="curve" smooth="yes"/>
      <point x="35" y="210" type="line" smooth="yes"/>
      <point x="35" y="233"/>
      <point x="34" y="241"/>
      <point x="55" y="241" type="curve" smooth="yes"/>
      <point x="165" y="241" type="line" smooth="yes"/>
      <point x="218" y="241"/>
      <point x="200" y="248"/>
      <point x="200" y="286" type="curve" smooth="yes"/>
      <point x="199" y="779" type="line" smooth="yes"/>
      <point x="199" y="798"/>
      <point x="186" y="799"/>
    </contour>
  </outline>
</glyph>
<glyph name="nine.tf" format="2">
  <advance height="2310" width="1400"/>
  <outline>
    <contour>
      <point x="539" y="188" type="curve" smooth="yes"/>
      <point x="539" y="162"/>
      <point x="559" y="134"/>
      <point x="627" y="134" type="curve" smooth="yes"/>
      <point x="745" y="134"/>
      <point x="861" y="303"/>
      <point x="881" y="636" type="curve" smooth="yes"/>
      <point x="883" y="671"/>
      <point x="888" y="685"/>
      <point x="881" y="689" type="curve" smooth="yes"/>
      <point x="872" y="694"/>
      <point x="868" y="678"/>
      <point x="848" y="658" type="curve" smooth="yes"/>
      <point x="777" y="586"/>
      <point x="663" y="540"/>
      <point x="533" y="540" type="curve" smooth="yes"/>
      <point x="311" y="540"/>
      <point x="95" y="690"/>
      <point x="95" y="1000" type="curve" smooth="yes"/>
      <point x="95" y="1370"/>
      <point x="385" y="1520"/>
      <point x="687" y="1520" type="curve" smooth="yes"/>
      <point x="1009" y="1520"/>
      <point x="1285" y="1330"/>
      <point x="1285" y="760" type="curve" smooth="yes"/>
      <point x="1285" y="280"/>
      <point x="1009" y="-20"/>
      <point x="637" y="-20" type="curve" smooth="yes"/>
      <point x="333" y="-20"/>
      <point x="145" y="114"/>
      <point x="145" y="278" type="curve" smooth="yes"/>
      <point x="145" y="414"/>
      <point x="224" y="510"/>
      <point x="363" y="510" type="curve" smooth="yes"/>
      <point x="497" y="510"/>
      <point x="587" y="438"/>
      <point x="587" y="324" type="curve" smooth="yes"/>
      <point x="587" y="252"/>
      <point x="539" y="214"/>
    </contour>
    <contour>
      <point x="495" y="1030" type="curve" smooth="yes"/>
      <point x="495" y="842"/>
      <point x="579" y="778"/>
      <point x="687" y="778" type="curve" smooth="yes"/>
      <point x="793" y="778"/>
      <point x="885" y="880"/>
      <point x="885" y="1040" type="curve" smooth="yes"/>
      <point x="885" y="1198"/>
      <point x="815" y="1290"/>
      <point x="687" y="1290" type="curve" smooth="yes"/>
      <point x="569" y="1290"/>
      <point x="495" y="1208"/>
    </contour>
  </outline>
</glyph>
<glyph name="w.sc" format="2">
  <advance width="1925"/>
  <anchor x="968" y="1040" name="Anchor-0"/>
  <anchor x="905" y="-54" name="Anchor-1"/>
  <outline>
    <contour>
      <point x="734" y="799" type="line" smooth="yes"/>
      <point x="700" y="799"/>
      <point x="698" y="813"/>
      <point x="698" y="846" type="curve" smooth="yes"/>
      <point x="698" y="999" type="line" smooth="yes"/>
      <point x="698" y="1035"/>
      <point x="705" y="1040"/>
      <point x="740" y="1040" type="curve" smooth="yes"/>
      <point x="1214" y="1040" type="line" smooth="yes"/>
      <point x="1250" y="1040"/>
      <point x="1258" y="1036"/>
      <point x="1258" y="999" type="curve" smooth="yes"/>
      <point x="1258" y="844" type="line" smooth="yes"/>
      <point x="1258" y="806"/>
      <point x="1256" y="799"/>
      <point x="1218" y="799" type="curve" smooth="yes"/>
      <point x="1204" y="799" type="line" smooth="yes"/>
      <point x="1183" y="799"/>
      <point x="1186" y="788"/>
      <point x="1193" y="774" type="curve" smooth="yes"/>
      <point x="1299" y="541" type="line" smooth="yes"/>
      <point x="1308" y="522"/>
      <point x="1341" y="442"/>
      <point x="1357" y="442" type="curve" smooth="yes"/>
      <point x="1374" y="442"/>
      <point x="1413" y="586"/>
      <point x="1419" y="603" type="curve" smooth="yes"/>
      <point x="1468" y="752" type="line" smooth="yes"/>
      <point x="1477" y="783"/>
      <point x="1482" y="799"/>
      <point x="1444" y="799" type="curve" smooth="yes"/>
      <point x="1364" y="799" type="line" smooth="yes"/>
      <point x="1336" y="799"/>
      <point x="1332" y="809"/>
      <point x="1332" y="836" type="curve" smooth="yes"/>
      <point x="1332" y="1013" type="line" smooth="yes"/>
      <point x="1332" y="1029"/>
      <point x="1348" y="1040"/>
      <point x="1368" y="1040" type="curve" smooth="yes"/>
      <point x="1862" y="1040" type="line" smooth="yes"/>
      <point x="1886" y="1040"/>
      <point x="1900" y="1022"/>
      <point x="1900" y="1002" type="curve" smooth="yes"/>
      <point x="1900" y="846" type="line" smooth="yes"/>
      <point x="1900" y="808"/>
      <point x="1899" y="799"/>
      <point x="1860" y="799" type="curve" smooth="yes"/>
      <point x="1786" y="799" type="line" smooth="yes"/>
      <point x="1744" y="799"/>
      <point x="1733" y="814"/>
      <point x="1722" y="780" type="curve" smooth="yes"/>
      <point x="1472" y="21" type="line" smooth="yes"/>
      <point x="1462" y="-7"/>
      <point x="1450" y="-30"/>
      <point x="1410" y="-30" type="curve" smooth="yes"/>
      <point x="1254" y="-30" type="line" smooth="yes"/>
      <point x="1195" y="-30"/>
      <point x="1194" y="-27"/>
      <point x="1177" y="15" type="curve" smooth="yes"/>
      <point x="999" y="450" type="line" smooth="yes"/>
      <point x="987" y="478"/>
      <point x="981" y="511"/>
      <point x="963" y="511" type="curve" smooth="yes"/>
      <point x="946" y="511"/>
      <point x="938" y="475"/>
      <point x="929" y="453" type="curve" smooth="yes"/>
      <point x="742" y="15" type="line" smooth="yes"/>
      <point x="725" y="-24"/>
      <point x="729" y="-30"/>
      <point x="672" y="-30" type="curve" smooth="yes"/>
      <point x="520" y="-30" type="line" smooth="yes"/>
      <point x="460" y="-30"/>
      <point x="463" y="-23"/>
      <point x="448" y="21" type="curve" smooth="yes"/>
      <point x="189" y="750" type="line" smooth="yes"/>
      <point x="178" y="781"/>
      <point x="163" y="799"/>
      <point x="120" y="799" type="curve" smooth="yes"/>
      <point x="26" y="799" type="line" smooth="yes"/>
      <point x="-8" y="799"/>
      <point x="-10" y="813"/>
      <point x="-10" y="846" type="curve" smooth="yes"/>
      <point x="-10" y="999" type="line" smooth="yes"/>
      <point x="-10" y="1035"/>
      <point x="-3" y="1040"/>
      <point x="32" y="1040" type="curve" smooth="yes"/>
      <point x="573" y="1040" type="line" smooth="yes"/>
      <point x="609" y="1040"/>
      <point x="617" y="1036"/>
      <point x="617" y="999" type="curve" smooth="yes"/>
      <point x="617" y="844" type="line" smooth="yes"/>
      <point x="617" y="806"/>
      <point x="615" y="799"/>
      <point x="577" y="799" type="curve" smooth="yes"/>
      <point x="562" y="799" type="line" smooth="yes"/>
      <point x="536" y="799"/>
      <point x="544" y="777"/>
      <point x="552" y="752" type="curve" smooth="yes"/>
      <point x="630" y="518" type="line" smooth="yes"/>
      <point x="639" y="489"/>
      <point x="647" y="444"/>
      <point x="668" y="444" type="curve" smooth="yes"/>
      <point x="684" y="444"/>
      <point x="708" y="537"/>
      <point x="720" y="567" type="curve" smooth="yes"/>
      <point x="801" y="774" type="line" smooth="yes"/>
      <point x="808" y="794"/>
      <point x="810" y="799"/>
      <point x="784" y="799" type="curve" smooth="yes"/>
    </contour>
  </outline>
</glyph>
<glyph name="x.sc" format="2">
  <advance width="1276"/>
  <anchor x="691" y="1040" name="Anchor-0"/>
  <anchor x="587" y="0" name="Anchor-1"/>
  <outline>
    <contour>
      <point x="0" y="53" type="curve" smooth="yes"/>
      <point x="0" y="188" type="line" smooth="yes"/>
      <point x="0" y="227"/>
      <point x="-3" y="241"/>
      <point x="33" y="241" type="curve" smooth="yes"/>
      <point x="111" y="241" type="line" smooth="yes"/>
      <point x="145" y="241"/>
      <point x="154" y="246"/>
      <point x="172" y="261" type="curve" smooth="yes"/>
      <point x="420" y="467" type="line" smooth="yes"/>
      <point x="460" y="500"/>
      <point x="455" y="510"/>
      <point x="417" y="544" type="curve" smooth="yes"/>
      <point x="169" y="771" type="line" smooth="yes"/>
      <point x="147" y="792"/>
      <point x="145" y="799"/>
      <point x="101" y="799" type="curve" smooth="yes"/>
      <point x="46" y="799" type="line" smooth="yes"/>
      <point x="8" y="799"/>
      <point x="7" y="809"/>
      <point x="7" y="851" type="curve" smooth="yes"/>
      <point x="7" y="978" type="line" smooth="yes"/>
      <point x="7" y="1025"/>
      <point x="5" y="1040"/>
      <point x="49" y="1040" type="curve" smooth="yes"/>
      <point x="619" y="1040" type="line" smooth="yes"/>
      <point x="654" y="1040"/>
      <point x="659" y="1033"/>
      <point x="659" y="994" type="curve" smooth="yes"/>
      <point x="659" y="844" type="line" smooth="yes"/>
      <point x="659" y="811"/>
      <point x="660" y="799"/>
      <point x="630" y="799" type="curve" smooth="yes"/>
      <point x="559" y="799" type="line" smooth="yes"/>
      <point x="527" y="799"/>
      <point x="541" y="785"/>
      <point x="557" y="771" type="curve" smooth="yes"/>
      <point x="662" y="676" type="line" smooth="yes"/>
      <point x="679" y="661"/>
      <point x="700" y="665"/>
      <point x="725" y="687" type="curve" smooth="yes"/>
      <point x="825" y="774" type="line" smooth="yes"/>
      <point x="853" y="797"/>
      <point x="827" y="799"/>
      <point x="789" y="799" type="curve" smooth="yes"/>
      <point x="763" y="799" type="line" smooth="yes"/>
      <point x="731" y="799"/>
      <point x="728" y="804"/>
      <point x="728" y="839" type="curve" smooth="yes"/>
      <point x="728" y="992" type="line" smooth="yes"/>
      <point x="728" y="1029"/>
      <point x="727" y="1040"/>
      <point x="761" y="1040" type="curve" smooth="yes"/>
      <point x="1225" y="1040" type="line" smooth="yes"/>
      <point x="1247" y="1040"/>
      <point x="1248" y="1030"/>
      <point x="1248" y="1005" type="curve" smooth="yes"/>
      <point x="1248" y="839" type="line" smooth="yes"/>
      <point x="1248" y="804"/>
      <point x="1245" y="799"/>
      <point x="1212" y="799" type="curve" smooth="yes"/>
      <point x="1137" y="799" type="line" smooth="yes"/>
      <point x="1104" y="799"/>
      <point x="1097" y="799"/>
      <point x="1080" y="784" type="curve" smooth="yes"/>
      <point x="828" y="576" type="line" smooth="yes"/>
      <point x="796" y="549"/>
      <point x="816" y="537"/>
      <point x="847" y="509" type="curve" smooth="yes"/>
      <point x="1120" y="263" type="line" smooth="yes"/>
      <point x="1139" y="247"/>
      <point x="1139" y="241"/>
      <point x="1176" y="241" type="curve" smooth="yes"/>
      <point x="1239" y="241" type="line" smooth="yes"/>
      <point x="1269" y="241"/>
      <point x="1276" y="233"/>
      <point x="1276" y="201" type="curve" smooth="yes"/>
      <point x="1276" y="38" type="line" smooth="yes"/>
      <point x="1276" y="3"/>
      <point x="1273" y="0"/>
      <point x="1241" y="0" type="curve" smooth="yes"/>
      <point x="663" y="0" type="line" smooth="yes"/>
      <point x="629" y="0"/>
      <point x="624" y="4"/>
      <point x="624" y="40" type="curve" smooth="yes"/>
      <point x="624" y="198" type="line" smooth="yes"/>
      <point x="624" y="229"/>
      <point x="624" y="241"/>
      <point x="652" y="241" type="curve" smooth="yes"/>
      <point x="689" y="241" type="line" smooth="yes"/>
      <point x="730" y="241"/>
      <point x="738" y="251"/>
      <point x="712" y="275" type="curve" smooth="yes"/>
      <point x="603" y="377" type="line" smooth="yes"/>
      <point x="582" y="397"/>
      <point x="576" y="400"/>
      <point x="554" y="381" type="curve" smooth="yes"/>
      <point x="426" y="268" type="line" smooth="yes"/>
      <point x="402" y="247"/>
      <point x="406" y="241"/>
      <point x="447" y="241" type="curve" smooth="yes"/>
      <point x="487" y="241" type="line" smooth="yes"/>
      <point x="520" y="241"/>
      <point x="527" y="228"/>
      <point x="527" y="192" type="curve" smooth="yes"/>
      <point x="527" y="71" type="line" smooth="yes"/>
      <point x="527" y="23"/>
      <point x="520" y="0"/>
      <point x="476" y="0" type="curve" smooth="yes"/>
      <point x="33" y="0" type="line" smooth="yes"/>
      <point x="-3" y="0"/>
      <point x="0" y="14"/>
    </contour>
  </outline>
</glyph>
<glyph name="z.sc" format="2">
  <advance width="1284"/>
  <anchor x="600" y="1040" name="Anchor-0"/>
  <anchor x="621" y="0" name="Anchor-1"/>
  <outline>
    <contour>
      <point x="117" y="1040" type="curve" smooth="yes"/>
      <point x="1160" y="1040" type="line" smooth="yes"/>
      <point x="1200" y="1040"/>
      <point x="1217" y="1038"/>
      <point x="1217" y="1000" type="curve" smooth="yes"/>
      <point x="1217" y="872" type="line" smooth="yes"/>
      <point x="1217" y="824"/>
      <point x="1201" y="819"/>
      <point x="1174" y="796" type="curve" smooth="yes"/>
      <point x="600" y="304" type="line" smooth="yes"/>
      <point x="581" y="288"/>
      <point x="488" y="241"/>
      <point x="585" y="241" type="curve" smooth="yes"/>
      <point x="848" y="241" type="line" smooth="yes"/>
      <point x="991" y="241"/>
      <point x="1018" y="312"/>
      <point x="1026" y="448" type="curve" smooth="yes"/>
      <point x="1029" y="485"/>
      <point x="1035" y="485"/>
      <point x="1080" y="485" type="curve" smooth="yes"/>
      <point x="1194" y="485" type="line" smooth="yes"/>
      <point x="1231" y="485"/>
      <point x="1241" y="472"/>
      <point x="1241" y="441" type="curve" smooth="yes"/>
      <point x="1241" y="55" type="line" smooth="yes"/>
      <point x="1241" y="6"/>
      <point x="1236" y="0"/>
      <point x="1190" y="0" type="curve" smooth="yes"/>
      <point x="84" y="0" type="line" smooth="yes"/>
      <point x="44" y="0"/>
      <point x="35" y="0"/>
      <point x="35" y="39" type="curve" smooth="yes"/>
      <point x="35" y="175" type="line" smooth="yes"/>
      <point x="35" y="220"/>
      <point x="43" y="223"/>
      <point x="67" y="243" type="curve" smooth="yes"/>
      <point x="687" y="757" type="line" smooth="yes"/>
      <point x="722" y="786"/>
      <point x="717" y="799"/>
      <point x="651" y="799" type="curve" smooth="yes"/>
      <point x="485" y="799" type="line" smooth="yes"/>
      <point x="350" y="799"/>
      <point x="299" y="729"/>
      <point x="292" y="605" type="curve" smooth="yes"/>
      <point x="290" y="574"/>
      <point x="286" y="578"/>
      <point x="248" y="578" type="curve" smooth="yes"/>
      <point x="109" y="578" type="line" smooth="yes"/>
      <point x="81" y="578"/>
      <point x="77" y="575"/>
      <point x="77" y="599" type="curve" smooth="yes"/>
      <point x="77" y="1001" type="line" smooth="yes"/>
      <point x="77" y="1037"/>
      <point x="82" y="1040"/>
    </contour>
  </outline>
</glyph>
<glyph name="zero.tf" format="2">
  <advance width="1400"/>
  <outline>
    <contour>
      <point x="90" y="750" type="curve" smooth="yes"/>
      <point x="90" y="1316"/>
      <point x="354" y="1520"/>
      <point x="700" y="1520" type="curve" smooth="yes"/>
      <point x="1066" y="1520"/>
      <point x="1310" y="1316"/>
      <point x="1310" y="750" type="curve" smooth="yes"/>
      <point x="1310" y="184"/>
      <point x="1026" y="-20"/>
      <point x="700" y="-20" type="curve" smooth="yes"/>
      <point x="354" y="-20"/>
      <point x="90" y="184"/>
    </contour>
    <contour>
      <point x="510" y="750" type="curve" smooth="yes"/>
      <point x="510" y="306"/>
      <point x="572" y="190"/>
      <point x="700" y="190" type="curve" smooth="yes"/>
      <point x="838" y="190"/>
      <point x="890" y="306"/>
      <point x="890" y="750" type="curve" smooth="yes"/>
      <point x="890" y="1194"/>
      <point x="838" y="1310"/>
      <point x="700" y="1310" type="curve" smooth="yes"/>
      <point x="572" y="1310"/>
      <point x="510" y="1194"/>
    </contour>
  </outline>
</glyph>
<glyph name="zero.tosf" format="2">
  <advance width="1400"/>
  <outline>
    <contour>
      <point x="140" y="520" type="curve" smooth="yes"/>
      <point x="140" y="886"/>
      <point x="394" y="1060"/>
      <point x="700" y="1060" type="curve" smooth="yes"/>
      <point x="1016" y="1060"/>
      <point x="1260" y="886"/>
      <point x="1260" y="520" type="curve" smooth="yes"/>
      <point x="1260" y="154"/>
      <point x="976" y="-20"/>
      <point x="700" y="-20" type="curve" smooth="yes"/>
      <point x="394" y="-20"/>
      <point x="140" y="154"/>
    </contour>
    <contour>
      <point x="560" y="520" type="curve" smooth="yes"/>
      <point x="560" y="276"/>
      <point x="602" y="180"/>
      <point x="700" y="180" type="curve" smooth="yes"/>
      <point x="788" y="180"/>
      <point x="840" y="276"/>
      <point x="840" y="520" type="curve" smooth="yes"/>
      <point x="840" y="764"/>
      <point x="788" y="860"/>
      <point x="700" y="860" type="curve" smooth="yes"/>
      <point x="602" y="860"/>
      <point x="560" y="764"/>
    </contour>
  </outline>
</glyph>
